<svg xmlns="http://www.w3.org/2000/svg" xml:space="preserve" style="enable-background:new 0 0 512 512" viewBox="0 0 512 512"><circle cx="256" cy="256" r="250" style="fill:#52b36e"/><path d="M505.4 273.4c-.2-.3-.5-.6-.8-.9-43.5-43.4-86.9-86.8-130.3-130.3-2.7-2.7-5.7-4.5-9.3-5.6-31.8-9.3-63.6-18.7-95.4-28.1-8.5-2.5-17-2.5-25.5 0-16 4.8-32 9.5-48 14.2-15.9 4.7-31.7 9.4-47.6 14-3.5 1-6.5 2.7-8.9 5.4-3.2 3.7-4.4 8-4.4 12.8v72.5c0 5.4.1 10.9.3 16.3.5 12.6 2.4 25 5.6 37.1 8.6 32.8 25.1 61 49 85l130.3 130.3c.4.4.7.8.9 1.2C422.4 470 498 381.1 505.4 273.4z" style="fill:#2cab61"/><path d="M256 406c-2.2 0-4.4-.4-6.5-1.3-33.6-13.7-62.2-36.8-82.8-66.8-21.1-30.8-32.2-66.8-32.2-104.2v-80.9c0-7.5 5-14.2 12.2-16.4l97.6-28.8a41.6 41.6 0 0 1 23.2 0l97.6 28.8c7.2 2.1 12.2 8.9 12.2 16.4v80.9c0 37.4-11.1 73.5-32.2 104.2-20.6 30-49.2 53.1-82.8 66.8-1.9.9-4.1 1.3-6.3 1.3zm0-286.3c-2.6 0-5.2.4-7.7 1.1l-97.6 28.8c-1.4.4-2.4 1.8-2.4 3.3v80.9c0 34.7 10.3 68 29.8 96.5 19.1 27.8 45.6 49.2 76.7 61.9.8.3 1.8.3 2.6 0 31.1-12.7 57.6-34.1 76.7-61.9 19.5-28.5 29.8-61.8 29.8-96.5v-80.9c0-1.5-1-2.8-2.4-3.3l-97.6-28.8c-2.7-.8-5.3-1.1-7.9-1.1z" style="fill:#fff"/></svg>