<?xml version="1.0" ?><svg id="katman_1" style="enable-background:new 0 0 512 512;" version="1.1" viewBox="0 0 512 512" xml:space="preserve" xmlns="http://www.w3.org/2000/svg" xmlns:xlink="http://www.w3.org/1999/xlink"><style type="text/css">
	.st0{fill:#52B36E;}
	.st1{fill:#2CAB61;}
	.st2{fill:#FFFFFF;}
</style><g><g><circle class="st0" cx="256" cy="256" r="250"/></g><path class="st1" d="M505.4,273.4c-0.2-0.3-0.5-0.6-0.8-0.9c-43.5-43.4-86.9-86.8-130.3-130.3c-2.7-2.7-5.7-4.5-9.3-5.6   c-31.8-9.3-63.6-18.7-95.4-28.1c-8.5-2.5-17-2.5-25.5,0c-16,4.8-32,9.5-48,14.2c-15.9,4.7-31.7,9.4-47.6,14c-3.5,1-6.5,2.7-8.9,5.4   c-3.2,3.7-4.4,8-4.4,12.8c0,24.2,0,48.3,0,72.5c0,5.4,0.1,10.9,0.3,16.3c0.5,12.6,2.4,25,5.6,37.1c8.6,32.8,25.1,61,49,85   c43.4,43.4,86.9,86.9,130.3,130.3c0.4,0.4,0.7,0.8,0.9,1.2C422.4,470,498,381.1,505.4,273.4z"/><path class="st2" d="M256,406c-2.2,0-4.4-0.4-6.5-1.3c-33.6-13.7-62.2-36.8-82.8-66.8c-21.1-30.8-32.2-66.8-32.2-104.2v-80.9   c0-7.5,5-14.2,12.2-16.4l97.6-28.8c7.6-2.2,15.6-2.2,23.2,0l97.6,28.8c7.2,2.1,12.2,8.9,12.2,16.4v80.9   c0,37.4-11.1,73.5-32.2,104.2c-20.6,30-49.2,53.1-82.8,66.8C260.4,405.6,258.2,406,256,406z M256,119.7c-2.6,0-5.2,0.4-7.7,1.1   l-97.6,28.8c-1.4,0.4-2.4,1.8-2.4,3.3v80.9c0,34.7,10.3,68,29.8,96.5c19.1,27.8,45.6,49.2,76.7,61.9c0.8,0.3,1.8,0.3,2.6,0   c31.1-12.7,57.6-34.1,76.7-61.9c19.5-28.5,29.8-61.8,29.8-96.5v-80.9c0-1.5-1-2.8-2.4-3.3l-97.6-28.8   C261.2,120,258.6,119.7,256,119.7z"/></g></svg>