<?xml version="1.0" encoding="iso-8859-1"?>
<!-- Generator: Adobe Illustrator 19.0.0, SVG Export Plug-In . SVG Version: 6.00 Build 0)  -->
<svg version="1.1" id="Layer_1" xmlns="http://www.w3.org/2000/svg" xmlns:xlink="http://www.w3.org/1999/xlink" x="0px" y="0px"
	 viewBox="0 0 512 512" style="enable-background:new 0 0 512 512;" xml:space="preserve">
<circle style="fill:#34495E;" cx="256" cy="256" r="256"/>
<path style="fill:#203549;" d="M508.692,296.965L369.014,157.307l-23.26-23.26l-22.06-5.806l-26.716,26.716
	c-3,2.99-4.841,7.094-4.841,11.61c0,4.557,1.841,8.66,4.841,11.651l4.971,4.972l-44.091,44.134l-99.21-99.208l-21.591,21.588
	l99.208,99.215l-62.134,62.09l-4.969-4.972c-2.995-2.995-7.094-4.841-11.612-4.841c-4.557,0-8.66,1.846-11.651,4.79l-26.716,26.765
	l5.801,22.06l23.263,23.26L280.94,510.766C397.01,499.546,490.376,410.819,508.692,296.965z"/>
<path style="fill:#FF8E31;" d="M268.48,293.898l82.88,82.88c4.396,4.403,10.465,7.112,17.178,7.107
	c6.707,0.005,12.774-2.706,17.172-7.107c4.403-4.39,7.114-10.465,7.114-17.172c0-6.72-2.714-12.79-7.114-17.178l-82.888-82.88
	L268.48,293.898z"/>
<path style="fill:#FEC74F;" d="M370.954,378.097c-0.604,0.614-1.475,1.006-2.417,1.006c-5.217,0-10.112-2.038-13.793-5.706
	l-82.88-82.88c-1.341-1.331-1.341-3.497,0-4.841c1.329-1.331,3.497-1.331,4.833,0l82.888,82.877
	c2.381,2.396,5.568,3.704,8.952,3.704c1.889,0,3.428,1.528,3.428,3.423C371.965,376.622,371.566,377.472,370.954,378.097z"/>
<path style="fill:#F28124;" d="M262.945,293.898c1.526,1.528,4.017,1.528,5.535,0l34.342-34.35c1.526-1.528,1.526-4.017,0-5.527
	l-2.368-2.378c-1.523-1.526-3.996-1.526-5.524,0l-34.345,34.36c-1.523,1.518-1.528,4.006-0.013,5.524L262.945,293.898z"/>
<rect x="222.626" y="149.652" transform="matrix(0.7072 -0.707 0.707 0.7072 -88.2899 225.7312)" style="fill:#E1EFFA;" width="11.53" height="139.621"/>
<g>
	<path style="fill:#F2F9FF;" d="M182.628,152.108c1.848,1.853,2.988,4.385,2.988,7.191c0,2.821-1.142,5.366-2.988,7.199
		l-7.188,7.204c-1.841,1.833-4.396,2.985-7.191,2.985c-2.821,0-5.373-1.152-7.209-2.985l-23.982-23.997l21.591-21.588
		L182.628,152.108z"/>
	<polygon style="fill:#F2F9FF;" points="192.049,328.927 174.126,311.025 301.965,183.204 319.867,201.114 	"/>
</g>
<path style="fill:#B8D1E6;" d="M191.493,311.58c-1.992-1.989-2.002-5.238,0-7.224l103.793-103.795
	c1.979-1.992,5.24-1.992,7.219-0.008l0,0c1.979,1.979,1.979,5.235,0,7.227L198.712,311.575
	C196.726,313.554,193.472,313.554,191.493,311.58L191.493,311.58z"/>
<g>
	<path style="fill:#F2F9FF;" d="M369.004,157.299l-23.224,23.229l-23.247-23.229l23.247-23.25l-22.083-5.809l-26.729,26.734
		c-2.962,2.975-4.826,7.084-4.826,11.622c0.008,4.526,1.864,8.643,4.826,11.61l27.896,27.894c2.977,2.97,7.086,4.81,11.615,4.818
		c4.544,0,8.632-1.836,11.617-4.818l26.729-26.724L369.004,157.299z"/>
	<path style="fill:#F2F9FF;" d="M124.992,354.836l23.242-23.237l23.24,23.237l-23.24,23.242l22.07,5.806l26.729-26.729
		c2.977-2.967,4.81-7.073,4.81-11.612c0-4.534-1.833-8.643-4.81-11.617l-27.881-27.894c-2.977-2.97-7.091-4.818-11.61-4.818
		c-4.557,0-8.658,1.848-11.635,4.81l-26.737,26.744L124.992,354.836z"/>
</g>
<g>
</g>
<g>
</g>
<g>
</g>
<g>
</g>
<g>
</g>
<g>
</g>
<g>
</g>
<g>
</g>
<g>
</g>
<g>
</g>
<g>
</g>
<g>
</g>
<g>
</g>
<g>
</g>
<g>
</g>
</svg>
