<svg xmlns="http://www.w3.org/2000/svg" xml:space="preserve" style="enable-background:new 0 0 512 512" viewBox="0 0 512 512"><circle cx="256" cy="256" r="256" style="fill:#34495e"/><path d="M508.692 296.965 369.014 157.307l-23.26-23.26-22.06-5.806-26.716 26.716c-3 2.99-4.841 7.094-4.841 11.61 0 4.557 1.841 8.66 4.841 11.651l4.971 4.972-44.091 44.134-99.21-99.208-21.591 21.588 99.208 99.215-62.134 62.09-4.969-4.972c-2.995-2.995-7.094-4.841-11.612-4.841-4.557 0-8.66 1.846-11.651 4.79l-26.716 26.765 5.801 22.06 23.263 23.26L280.94 510.766c116.07-11.22 209.436-99.947 227.752-213.801z" style="fill:#203549"/><path d="m268.48 293.898 82.88 82.88a24.153 24.153 0 0 0 17.178 7.107 24.161 24.161 0 0 0 17.172-7.107 24.165 24.165 0 0 0 7.114-17.172c0-6.72-2.714-12.79-7.114-17.178l-82.888-82.88-34.342 34.35z" style="fill:#ff8e31"/><path d="M370.954 378.097a3.408 3.408 0 0 1-2.417 1.006c-5.217 0-10.112-2.038-13.793-5.706l-82.88-82.88a3.416 3.416 0 0 1 0-4.841 3.424 3.424 0 0 1 4.833 0l82.888 82.877c2.381 2.396 5.568 3.704 8.952 3.704a3.425 3.425 0 0 1 3.428 3.423c0 .942-.399 1.792-1.011 2.417z" style="fill:#fec74f"/><path d="M262.945 293.898c1.526 1.528 4.017 1.528 5.535 0l34.342-34.35c1.526-1.528 1.526-4.017 0-5.527l-2.368-2.378a3.905 3.905 0 0 0-5.524 0l-34.345 34.36c-1.523 1.518-1.528 4.006-.013 5.524l2.373 2.371z" style="fill:#f28124"/><path d="M222.626 149.652h11.53v139.621h-11.53z" style="fill:#e1effa" transform="rotate(-44.992 228.39 219.466)"/><path d="M182.628 152.108c1.848 1.853 2.988 4.385 2.988 7.191 0 2.821-1.142 5.366-2.988 7.199l-7.188 7.204a10.199 10.199 0 0 1-7.191 2.985 10.186 10.186 0 0 1-7.209-2.985l-23.982-23.997 21.591-21.588 23.979 23.991zM192.049 328.927l-17.923-17.902 127.839-127.821 17.902 17.91z" style="fill:#f2f9ff"/><path d="M191.493 311.58c-1.992-1.989-2.002-5.238 0-7.224l103.793-103.795c1.979-1.992 5.24-1.992 7.219-.008 1.979 1.979 1.979 5.235 0 7.227L198.712 311.575c-1.986 1.979-5.24 1.979-7.219.005z" style="fill:#b8d1e6"/><path d="m369.004 157.299-23.224 23.229-23.247-23.229 23.247-23.25-22.083-5.809-26.729 26.734c-2.962 2.975-4.826 7.084-4.826 11.622a16.461 16.461 0 0 0 4.826 11.61l27.896 27.894a16.445 16.445 0 0 0 11.615 4.818c4.544 0 8.632-1.836 11.617-4.818l26.729-26.724-5.821-22.077zM124.992 354.836l23.242-23.237 23.24 23.237-23.24 23.242 22.07 5.806 26.729-26.729a16.333 16.333 0 0 0 4.81-11.612c0-4.534-1.833-8.643-4.81-11.617l-27.881-27.894c-2.977-2.97-7.091-4.818-11.61-4.818a16.436 16.436 0 0 0-11.635 4.81l-26.737 26.744 5.822 22.068z" style="fill:#f2f9ff"/></svg>