<?xml version="1.0" standalone="no"?>
<!DOCTYPE svg PUBLIC "-//W3C//DTD SVG 20010904//EN"
 "http://www.w3.org/TR/2001/REC-SVG-20010904/DTD/svg10.dtd">
<svg version="1.0" xmlns="http://www.w3.org/2000/svg"
 width="1206.000000pt" height="1280.000000pt" viewBox="0 0 1206.000000 1280.000000"
 preserveAspectRatio="xMidYMid meet">
<metadata>
Created by potrace 1.15, written by Peter Selinger 2001-2017
</metadata>
<g transform="translate(0.000000,1280.000000) scale(0.100000,-0.100000)"
fill="#21A8F4" stroke="none">
<path d="M9743 11839 c-252 -24 -448 -197 -499 -439 -19 -93 -8 -193 35 -314
15 -44 31 -90 35 -101 4 -11 -1 -6 -11 12 l-18 32 3 -112 c3 -116 21 -274 46
-412 9 -44 16 -96 16 -115 l0 -35 21 25 c39 47 6 -5 -57 -91 -83 -112 -108
-168 -108 -240 1 -99 57 -181 159 -233 55 -28 55 -34 -1 -11 -19 8 -32 10 -29
5 7 -12 -15 -80 -26 -80 -4 0 -5 -9 -2 -20 3 -11 1 -20 -5 -20 -5 0 -15 -12
-21 -27 -12 -29 -72 -76 -97 -76 -7 0 -14 -3 -14 -7 0 -3 -10 -7 -22 -8 -74
-5 -151 -4 -208 1 -36 4 -94 9 -129 12 -35 3 -80 7 -100 10 l-36 5 35 -11 c19
-5 52 -15 74 -20 21 -6 36 -12 34 -14 -2 -2 -28 2 -58 10 -195 52 -447 17
-663 -91 -285 -142 -484 -341 -832 -833 -79 -113 -186 -259 -237 -325 -104
-134 -282 -319 -373 -387 -77 -58 -99 -70 -55 -30 l35 32 -60 -5 c-68 -6 -206
10 -250 29 -16 7 -49 18 -72 24 -24 7 -43 16 -43 21 0 6 -6 10 -13 10 -19 0
-119 99 -137 135 -8 17 -18 32 -21 35 -3 3 -14 35 -24 73 -14 54 -17 87 -12
166 7 102 19 147 64 241 24 49 117 197 132 210 4 3 22 25 41 50 19 25 41 52
50 60 8 8 40 44 70 80 30 36 61 72 70 80 9 8 31 35 50 60 19 25 43 54 53 65
40 44 137 195 179 280 97 193 138 366 138 581 0 299 -88 556 -274 799 -41 54
-191 203 -241 240 -22 17 -46 36 -53 43 -7 6 -17 12 -22 12 -5 0 -15 6 -22 13
-7 7 -44 30 -83 51 -38 21 -88 49 -110 61 -22 13 -76 35 -120 50 -44 15 -89
31 -100 36 -58 25 -440 97 -452 85 -2 -2 19 -9 47 -16 28 -7 49 -14 47 -17 -3
-2 -40 5 -83 16 -129 32 -214 41 -387 41 -121 0 -197 -6 -288 -21 -225 -38
-484 -139 -674 -263 -47 -31 -85 -53 -85 -51 0 3 32 26 70 51 72 48 96 71 38
36 -18 -10 -69 -39 -113 -63 -198 -107 -352 -242 -469 -413 -59 -86 -155 -282
-190 -390 -32 -96 -32 -104 -1 -46 28 53 34 46 6 -8 -34 -67 -109 -296 -135
-413 -39 -176 -57 -337 -57 -526 -1 -194 4 -254 33 -432 82 -510 335 -1005
700 -1371 319 -320 645 -511 1142 -669 171 -54 247 -101 334 -205 77 -91 86
-120 85 -266 0 -63 -6 -100 -22 -142 -12 -32 -26 -58 -29 -58 -4 0 -13 -12
-20 -27 -15 -32 -113 -113 -136 -113 -9 0 -16 -4 -16 -9 0 -5 -34 -17 -76 -27
-94 -20 -220 -14 -313 16 -35 11 -70 20 -77 20 -8 0 -14 5 -14 10 0 6 -4 10
-9 10 -30 0 -168 79 -247 141 -61 49 -211 204 -258 268 -14 18 -34 42 -45 52
-11 10 -34 40 -52 66 -18 27 -39 54 -46 61 -7 7 -13 17 -13 22 0 5 -10 19 -23
32 -12 13 -38 43 -57 68 -55 71 -71 89 -139 164 -88 96 -88 96 -157 143 -104
71 -216 120 -399 174 -16 4 -79 16 -139 25 -60 9 -121 20 -134 25 -43 16 -34
3 23 -35 30 -20 55 -39 55 -42 0 -3 -19 8 -42 24 -159 109 -356 172 -536 172
-195 -1 -348 -58 -477 -181 -124 -118 -184 -268 -171 -429 17 -222 152 -418
399 -580 51 -34 218 -123 372 -199 381 -189 509 -276 621 -424 100 -133 144
-270 144 -451 0 -182 -57 -354 -174 -525 -154 -226 -344 -385 -766 -643 -355
-218 -456 -286 -610 -416 -239 -200 -393 -436 -445 -685 -19 -88 -19 -264 0
-345 60 -256 239 -440 501 -513 63 -19 104 -23 204 -23 143 1 264 27 395 88
79 37 103 41 35 6 -22 -11 -40 -23 -40 -26 0 -2 8 -1 18 4 9 5 46 12 82 16
159 16 332 91 497 215 121 91 265 238 351 360 25 36 49 68 52 71 14 11 88 129
119 190 19 36 42 76 51 90 9 14 81 153 160 310 78 157 146 290 150 295 4 6 23
37 40 70 18 33 41 69 51 81 11 11 19 26 19 32 0 7 3 12 8 12 4 0 18 17 32 38
104 156 345 353 550 450 140 66 332 108 459 99 55 -3 67 -9 136 -62 172 -131
343 -362 441 -595 90 -214 153 -459 258 -995 96 -488 151 -675 272 -920 183
-371 465 -618 800 -702 49 -12 109 -17 204 -17 117 1 147 4 223 28 98 29 149
53 217 100 25 17 50 31 55 32 47 4 183 52 227 81 21 12 40 23 44 23 8 0 79 54
117 89 51 47 115 137 155 217 74 148 97 249 97 429 0 245 -56 457 -195 740
-71 144 -111 218 -231 425 -185 321 -281 537 -330 745 -31 134 -31 348 1 476
18 73 91 245 109 259 4 3 18 21 31 40 29 42 106 120 118 120 4 0 18 9 30 20
12 12 22 19 22 16 0 -3 20 4 44 15 64 28 193 34 308 15 93 -16 282 -71 305
-88 7 -5 22 -11 35 -12 13 -2 97 -52 188 -113 284 -189 413 -259 585 -317 287
-96 589 -66 778 78 26 20 51 35 55 33 10 -3 167 130 212 179 122 133 176 297
149 453 -7 42 -20 96 -30 121 -9 25 -23 61 -31 80 -7 19 -16 37 -19 40 -3 3
-12 16 -19 29 -21 41 -138 167 -199 214 -71 56 -191 122 -292 161 -146 56
-416 113 -624 131 -33 3 -73 8 -90 10 -16 3 -52 7 -80 9 -107 10 -243 28 -305
41 -175 36 -221 48 -295 76 -110 41 -158 65 -244 122 -76 51 -198 165 -241
227 -13 19 -27 37 -30 40 -9 8 -63 101 -77 134 -85 193 -94 360 -30 581 37
129 151 278 292 382 55 41 108 81 118 89 9 8 19 14 21 14 3 0 103 55 181 100
22 12 76 42 120 65 176 93 240 129 243 137 2 4 9 8 15 8 22 0 130 78 221 160
216 194 305 357 335 610 6 47 13 108 16 135 4 28 6 55 6 60 0 6 0 28 -1 50 -1
38 2 64 16 130 4 17 17 44 30 62 13 17 24 35 24 40 0 4 8 13 18 19 41 26 144
81 237 127 373 186 626 457 721 770 36 119 82 311 93 392 27 181 5 375 -58
527 -33 77 -127 231 -116 188 3 -14 -7 -2 -22 25 -100 176 -219 292 -374 365
-113 52 -221 71 -346 59z m-4228 -369 c13 -6 15 -9 5 -9 -8 0 -22 4 -30 9 -18
12 -2 12 25 0z m85 -30 c8 -5 11 -10 5 -10 -5 0 -17 5 -25 10 -8 5 -10 10 -5
10 6 0 17 -5 25 -10z m-1660 -244 c0 -2 -8 -10 -17 -17 -16 -13 -17 -12 -4 4
13 16 21 21 21 13z m-40 -29 c0 -2 -10 -12 -22 -23 l-23 -19 19 23 c18 21 26
27 26 19z m4960 -1627 c8 -5 11 -10 5 -10 -5 0 -17 5 -25 10 -8 5 -10 10 -5
10 6 0 17 -5 25 -10z m-3428 -3024 c10 -38 18 -83 17 -100 0 -18 -6 -1 -14 39
-7 39 -20 90 -29 114 -19 51 -20 64 -4 36 6 -10 20 -51 30 -89z m15 -233 c-3
-10 -5 -4 -5 12 0 17 2 24 5 18 2 -7 2 -21 0 -30z m3406 -190 c-18 -2 -48 -2
-65 0 -18 2 -4 4 32 4 36 0 50 -2 33 -4z m210 -10 c-23 -2 -64 -2 -90 0 -26 2
-7 3 42 3 50 0 71 -1 48 -3z m258 -23 c39 -10 -43 -4 -151 10 -58 8 -55 8 26
3 50 -2 106 -9 125 -13z m87 -17 c-10 -2 -26 -2 -35 0 -10 3 -2 5 17 5 19 0
27 -2 18 -5z m49 -9 c-3 -3 -12 -4 -19 -1 -8 3 -5 6 6 6 11 1 17 -2 13 -5z
m56 -11 c-7 -2 -21 -2 -30 0 -10 3 -4 5 12 5 17 0 24 -2 18 -5z m74 -19 c-3
-3 -12 -4 -19 -1 -8 3 -5 6 6 6 11 1 17 -2 13 -5z m-997 -1001 c0 -7 -61 31
-73 46 -7 8 7 2 31 -14 23 -15 42 -30 42 -32z m1713 -204 c-10 -18 -37 -52
-61 -78 l-43 -46 45 57 c25 32 50 67 56 78 6 11 13 20 16 20 3 0 -3 -14 -13
-31z m-5232 -240 c34 -17 59 -32 57 -35 -3 -2 -33 12 -69 31 -79 43 -70 46 12
4z m2689 -3124 c-24 -25 -46 -45 -49 -45 -3 0 15 20 39 45 24 25 46 45 49 45
3 0 -15 -20 -39 -45z"/>
<path d="M5288 11533 c7 -3 16 -2 19 1 4 3 -2 6 -13 5 -11 0 -14 -3 -6 -6z"/>
<path d="M5328 11523 c6 -2 18 -2 25 0 6 3 1 5 -13 5 -14 0 -19 -2 -12 -5z"/>
<path d="M3246 10313 c-6 -14 -5 -15 5 -6 7 7 10 15 7 18 -3 3 -9 -2 -12 -12z"/>
<path d="M941 10269 c-268 -70 -479 -290 -552 -574 -28 -112 -28 -290 0 -406
79 -316 325 -548 631 -594 47 -7 72 -13 55 -14 -28 -2 -26 -4 26 -29 342 -170
724 -55 912 276 207 361 95 801 -270 1066 -47 33 -67 38 -45 10 4 -5 -15 15
-42 44 -96 104 -258 199 -391 227 -97 20 -234 18 -324 -6z"/>
</g>
</svg>
