<?xml version="1.0" encoding="UTF-8" standalone="no"?>
<svg
   width="64pt"
   height="64pt"
   viewBox="0 0 22.577778 22.577778"
   version="1.1"
   id="svg831"
   inkscape:version="1.1 (1:1.1+202106031931+af4d65493e)"
   sodipodi:docname="2. Color Palette.svg"
   inkscape:export-filename="/media/taufikramadhan/Data/Tr Design Studio/Project Design/TR Creative Design/Icon Design/Project Hiring/Icon Icons/007 - Design And Development/Team/September Project/FILEDLINE - September Project/SVG/2. Color Palette.png"
   inkscape:export-xdpi="576"
   inkscape:export-ydpi="576"
   xmlns:inkscape="http://www.inkscape.org/namespaces/inkscape"
   xmlns:sodipodi="http://sodipodi.sourceforge.net/DTD/sodipodi-0.dtd"
   xmlns="http://www.w3.org/2000/svg"
   xmlns:svg="http://www.w3.org/2000/svg"
   xmlns:rdf="http://www.w3.org/1999/02/22-rdf-syntax-ns#"
   xmlns:cc="http://creativecommons.org/ns#"
   xmlns:dc="http://purl.org/dc/elements/1.1/">
  <defs
     id="defs825">
    <pattern
       id="EMFhbasepattern"
       patternUnits="userSpaceOnUse"
       width="6"
       height="6"
       x="0"
       y="0" />
    <pattern
       id="EMFhbasepattern-9"
       patternUnits="userSpaceOnUse"
       width="6"
       height="6"
       x="0"
       y="0" />
    <pattern
       id="EMFhbasepattern-0"
       patternUnits="userSpaceOnUse"
       width="6"
       height="6"
       x="0"
       y="0" />
    <pattern
       id="EMFhbasepattern-7"
       patternUnits="userSpaceOnUse"
       width="6"
       height="6"
       x="0"
       y="0" />
    <pattern
       id="EMFhbasepattern-2"
       patternUnits="userSpaceOnUse"
       width="6"
       height="6"
       x="0"
       y="0" />
    <pattern
       id="EMFhbasepattern-98"
       patternUnits="userSpaceOnUse"
       width="6"
       height="6"
       x="0"
       y="0" />
    <pattern
       id="EMFhbasepattern-6"
       patternUnits="userSpaceOnUse"
       width="6"
       height="6"
       x="0"
       y="0" />
    <pattern
       id="EMFhbasepattern-01"
       patternUnits="userSpaceOnUse"
       width="6"
       height="6"
       x="0"
       y="0" />
    <pattern
       id="EMFhbasepattern-07"
       patternUnits="userSpaceOnUse"
       width="6"
       height="6"
       x="0"
       y="0" />
    <pattern
       id="EMFhbasepattern-8"
       patternUnits="userSpaceOnUse"
       width="6"
       height="6"
       x="0"
       y="0" />
    <pattern
       id="EMFhbasepattern-4"
       patternUnits="userSpaceOnUse"
       width="6"
       height="6"
       x="0"
       y="0" />
    <pattern
       id="EMFhbasepattern-40"
       patternUnits="userSpaceOnUse"
       width="6"
       height="6"
       x="0"
       y="0" />
    <pattern
       id="EMFhbasepattern-08"
       patternUnits="userSpaceOnUse"
       width="6"
       height="6"
       x="0"
       y="0" />
    <pattern
       id="EMFhbasepattern-04"
       patternUnits="userSpaceOnUse"
       width="6"
       height="6"
       x="0"
       y="0" />
    <pattern
       id="EMFhbasepattern-014"
       patternUnits="userSpaceOnUse"
       width="6"
       height="6"
       x="0"
       y="0" />
    <pattern
       id="EMFhbasepattern-27"
       patternUnits="userSpaceOnUse"
       width="6"
       height="6"
       x="0"
       y="0" />
    <pattern
       id="EMFhbasepattern-09"
       patternUnits="userSpaceOnUse"
       width="6"
       height="6"
       x="0"
       y="0" />
    <pattern
       id="EMFhbasepattern-5"
       patternUnits="userSpaceOnUse"
       width="6"
       height="6"
       x="0"
       y="0" />
    <pattern
       id="EMFhbasepattern-018"
       patternUnits="userSpaceOnUse"
       width="6"
       height="6"
       x="0"
       y="0" />
  </defs>
  <sodipodi:namedview
     id="base"
     pagecolor="#ffffff"
     bordercolor="#666666"
     borderopacity="1.0"
     inkscape:pageopacity="0.0"
     inkscape:pageshadow="2"
     inkscape:zoom="6.046875"
     inkscape:cx="36.382429"
     inkscape:cy="42.666667"
     inkscape:document-units="pt"
     inkscape:current-layer="layer1"
     showgrid="false"
     units="pt"
     inkscape:window-width="1366"
     inkscape:window-height="705"
     inkscape:window-x="0"
     inkscape:window-y="31"
     inkscape:window-maximized="1"
     inkscape:pagecheckerboard="true"
     inkscape:showpageshadow="false"
     inkscape:object-paths="true"
     inkscape:snap-intersection-paths="true"
     inkscape:snap-smooth-nodes="true"
     inkscape:snap-midpoints="true"
     showguides="false"
     inkscape:snap-bbox="true"
     inkscape:bbox-nodes="true"
     inkscape:snap-nodes="true"
     inkscape:snap-global="true"
     inkscape:document-rotation="0">
    <inkscape:grid
       type="xygrid"
       id="grid1378" />
    <sodipodi:guide
       position="0.97013831,21.607643"
       orientation="78.000048,0"
       id="guide1380"
       inkscape:locked="false" />
    <sodipodi:guide
       position="0.97013831,0.97013129"
       orientation="0,78.000005"
       id="guide1382"
       inkscape:locked="false" />
    <sodipodi:guide
       position="21.607639,0.97013129"
       orientation="-78.000048,0"
       id="guide1384"
       inkscape:locked="false" />
    <sodipodi:guide
       position="21.607639,21.607643"
       orientation="0,-78.000005"
       id="guide1386"
       inkscape:locked="false" />
  </sodipodi:namedview>
  <metadata
     id="metadata828">
    <rdf:RDF>
      <cc:Work
         rdf:about="">
        <dc:format>image/svg+xml</dc:format>
        <dc:type
           rdf:resource="http://purl.org/dc/dcmitype/StillImage" />
      </cc:Work>
    </rdf:RDF>
  </metadata>
  <g
     inkscape:label="Icon"
     inkscape:groupmode="layer"
     id="layer1"
     transform="translate(0,-274.42223)">
    <g
       transform="matrix(1.2580395,0,0,1.2580395,39.01109,-38.90128)"
       style="display:inline"
       id="g887">
      <g
         id="g1749">
        <path
           style="color:#000000;font-style:normal;font-variant:normal;font-weight:normal;font-stretch:normal;font-size:medium;line-height:normal;font-family:sans-serif;font-variant-ligatures:normal;font-variant-position:normal;font-variant-caps:normal;font-variant-numeric:normal;font-variant-alternates:normal;font-variant-east-asian:normal;font-feature-settings:normal;font-variation-settings:normal;text-indent:0;text-align:start;text-decoration:none;text-decoration-line:none;text-decoration-style:solid;text-decoration-color:#000000;letter-spacing:normal;word-spacing:normal;text-transform:none;writing-mode:lr-tb;direction:ltr;text-orientation:mixed;dominant-baseline:auto;baseline-shift:baseline;text-anchor:start;white-space:normal;shape-padding:0;shape-margin:0;inline-size:0;clip-rule:nonzero;display:inline;overflow:visible;visibility:visible;isolation:auto;mix-blend-mode:normal;color-interpolation:sRGB;color-interpolation-filters:linearRGB;solid-color:#000000;solid-opacity:1;vector-effect:none;fill:#ea686a;fill-opacity:1;fill-rule:nonzero;stroke:none;stroke-width:0.529167;stroke-linecap:round;stroke-linejoin:round;stroke-miterlimit:4;stroke-dasharray:none;stroke-dashoffset:0;stroke-opacity:1;color-rendering:auto;image-rendering:auto;shape-rendering:auto;text-rendering:auto;enable-background:accumulate;stop-color:#000000"
           d="m -20.919922,250.89648 c -0.957133,0.0557 -1.565191,0.30974 -1.917969,0.70118 -0.352777,0.39143 -0.408033,0.88816 -0.349609,1.30664 0.0471,0.33739 0.127308,0.75644 0.134766,1.12304 0.0075,0.36661 -0.06475,0.63772 -0.212891,0.75391 -0.05476,0.0429 -0.118256,0.0808 -0.185547,0.11523 l -1.890625,0.37305 a 0.26460996,0.26460996 0 0 0 -0.02734,0.006 c -0.756989,0.2357 -1.672609,0.70219 -2.333984,1.62109 -0.661375,0.91891 -1.049703,2.27817 -0.802734,4.23243 a 0.26460996,0.26460996 0 0 0 0.002,0.0137 c 0,0 0.22937,1.27884 1.265625,2.54492 1.036255,1.26608 2.898583,2.52857 6.076172,2.54492 0.0031,4e-5 1.75145,0.0187 3.52539,-0.91601 1.775505,-0.93557 3.58216,-2.868 3.664063,-6.61914 a 0.26460996,0.26460996 0 0 0 0,-0.0176 c -0.171615,-3.41862 -1.642223,-5.40376 -3.201172,-6.49414 -1.558949,-1.09039 -3.150732,-1.30805 -3.738281,-1.28907 a 0.26460996,0.26460996 0 0 0 -0.0078,0 z"
           id="path1564" />
        <path
           id="path1726"
           style="fill:#e65658;fill-opacity:1;stroke:none;stroke-width:0.999999px;stroke-linecap:butt;stroke-linejoin:miter;stroke-opacity:1"
           d="m -79.068359,-110.25 c -3.617511,0.21052 -5.914713,1.17093 -7.248047,2.65039 -1.333331,1.47942 -1.543081,3.3578 -1.322266,4.93945 0.178016,1.27518 0.481578,2.85857 0.509766,4.244144 0.02835,1.385613 -0.244785,2.410466 -0.804688,2.84961 -0.166736,0.130624 -0.364623,0.242445 -0.564453,0.351562 -0.04821,0.02633 -0.08728,0.05869 -0.136719,0.08398 l -7.144531,1.410156 a 1.0001006,1.0001006 0 0 0 -0.103515,0.02148 c -0.267225,0.0832 -0.5439,0.182145 -0.820313,0.28125 9.649979,1.464609 15.087851,4.502898 18.113281,8.521485 0.962921,10.030038 -10.287234,23.514287 -9.226562,31.804687 2.342373,0.49605 4.940289,0.789798 7.833984,0.804688 0.0062,8e-5 1.885304,0.0028 4.623047,-0.501953 0.598794,-0.110395 1.229045,-0.243847 1.902344,-0.410157 0.09917,-0.02432 0.206122,-0.05832 0.30664,-0.08398 0.602266,-0.154855 1.210326,-0.315387 1.853516,-0.523438 0.0058,-0.0019 0.01176,-0.004 0.01758,-0.0059 0.03993,-0.01286 0.08104,-0.02988 0.121094,-0.04297 0.30915,-0.101597 0.619588,-0.20506 0.935547,-0.320312 0.179873,-0.06532 0.363159,-0.138946 0.544922,-0.208985 0.194657,-0.07527 0.387571,-0.147724 0.583984,-0.228515 0.257963,-0.105826 0.51878,-0.221956 0.779297,-0.337891 0.149344,-0.06656 0.297354,-0.127324 0.447265,-0.197266 0.401662,-0.187204 0.804474,-0.386467 1.208985,-0.599609 6.71057,-3.536012 13.538101,-10.840041 13.847656,-25.017578 a 1.0001006,1.0001006 0 0 0 0,-0.06641 c -0.648623,-12.920769 -6.205565,-20.423798 -12.097656,-24.544918 -5.892091,-4.12116 -11.908249,-4.94283 -14.128906,-4.8711 a 1.0001006,1.0001006 0 0 0 -0.0293,0 z"
           transform="matrix(0.26458334,0,0,0.26458334,0,280.06666)" />
        <path
           style="color:#000000;font-style:normal;font-variant:normal;font-weight:normal;font-stretch:normal;font-size:medium;line-height:normal;font-family:sans-serif;font-variant-ligatures:normal;font-variant-position:normal;font-variant-caps:normal;font-variant-numeric:normal;font-variant-alternates:normal;font-variant-east-asian:normal;font-feature-settings:normal;font-variation-settings:normal;text-indent:0;text-align:start;text-decoration:none;text-decoration-line:none;text-decoration-style:solid;text-decoration-color:#000000;letter-spacing:normal;word-spacing:normal;text-transform:none;writing-mode:lr-tb;direction:ltr;text-orientation:mixed;dominant-baseline:auto;baseline-shift:baseline;text-anchor:start;white-space:normal;shape-padding:0;shape-margin:0;inline-size:0;clip-rule:nonzero;display:inline;overflow:visible;visibility:visible;isolation:auto;mix-blend-mode:normal;color-interpolation:sRGB;color-interpolation-filters:linearRGB;solid-color:#000000;solid-opacity:1;vector-effect:none;fill:#1e65a4;fill-opacity:1;fill-rule:nonzero;stroke:none;stroke-width:0.529167;stroke-linecap:round;stroke-linejoin:round;stroke-miterlimit:4;stroke-dasharray:none;stroke-dashoffset:0;stroke-opacity:1;color-rendering:auto;image-rendering:auto;shape-rendering:auto;text-rendering:auto;enable-background:accumulate;stop-color:#000000"
           d="m -22.832031,261.19141 c -1.015045,0 -1.841793,0.82675 -1.841797,1.84179 -3e-6,1.01505 0.826748,1.84375 1.841797,1.84375 1.015049,0 1.843752,-0.8287 1.84375,-1.84375 -4e-6,-1.01504 -0.828706,-1.84179 -1.84375,-1.84179 z"
           id="path1635" />
        <path
           style="color:#000000;font-style:normal;font-variant:normal;font-weight:normal;font-stretch:normal;font-size:medium;line-height:normal;font-family:sans-serif;font-variant-ligatures:normal;font-variant-position:normal;font-variant-caps:normal;font-variant-numeric:normal;font-variant-alternates:normal;font-variant-east-asian:normal;font-feature-settings:normal;font-variation-settings:normal;text-indent:0;text-align:start;text-decoration:none;text-decoration-line:none;text-decoration-style:solid;text-decoration-color:#000000;letter-spacing:normal;word-spacing:normal;text-transform:none;writing-mode:lr-tb;direction:ltr;text-orientation:mixed;dominant-baseline:auto;baseline-shift:baseline;text-anchor:start;white-space:normal;shape-padding:0;shape-margin:0;inline-size:0;clip-rule:nonzero;display:inline;overflow:visible;visibility:visible;isolation:auto;mix-blend-mode:normal;color-interpolation:sRGB;color-interpolation-filters:linearRGB;solid-color:#000000;solid-opacity:1;vector-effect:none;fill:#7cad39;fill-opacity:1;fill-rule:nonzero;stroke:none;stroke-width:0.529167;stroke-linecap:round;stroke-linejoin:round;stroke-miterlimit:4;stroke-dasharray:none;stroke-dashoffset:0;stroke-opacity:1;color-rendering:auto;image-rendering:auto;shape-rendering:auto;text-rendering:auto;enable-background:accumulate;stop-color:#000000"
           d="m -18.380859,260.18555 c -1.015045,0 -1.843747,0.8287 -1.84375,1.84375 3e-6,1.01504 0.828705,1.84375 1.84375,1.84375 1.015044,0 1.843746,-0.82871 1.84375,-1.84375 -4e-6,-1.01505 -0.828706,-1.84375 -1.84375,-1.84375 z"
           id="path1599" />
        <path
           style="color:#000000;font-style:normal;font-variant:normal;font-weight:normal;font-stretch:normal;font-size:medium;line-height:normal;font-family:sans-serif;font-variant-ligatures:normal;font-variant-position:normal;font-variant-caps:normal;font-variant-numeric:normal;font-variant-alternates:normal;font-variant-east-asian:normal;font-feature-settings:normal;font-variation-settings:normal;text-indent:0;text-align:start;text-decoration:none;text-decoration-line:none;text-decoration-style:solid;text-decoration-color:#000000;letter-spacing:normal;word-spacing:normal;text-transform:none;writing-mode:lr-tb;direction:ltr;text-orientation:mixed;dominant-baseline:auto;baseline-shift:baseline;text-anchor:start;white-space:normal;shape-padding:0;shape-margin:0;inline-size:0;clip-rule:nonzero;display:inline;overflow:visible;visibility:visible;isolation:auto;mix-blend-mode:normal;color-interpolation:sRGB;color-interpolation-filters:linearRGB;solid-color:#000000;solid-opacity:1;vector-effect:none;fill:#d91d4b;fill-opacity:1;fill-rule:nonzero;stroke:none;stroke-width:0.529167;stroke-linecap:round;stroke-linejoin:round;stroke-miterlimit:4;stroke-dasharray:none;stroke-dashoffset:0;stroke-opacity:1;color-rendering:auto;image-rendering:auto;shape-rendering:auto;text-rendering:auto;enable-background:accumulate;stop-color:#000000"
           d="m -19.816406,252.43359 c -1.015045,0 -1.843747,0.82871 -1.84375,1.84375 -3e-6,1.01505 0.828701,1.84375 1.84375,1.84375 1.015049,0 1.843752,-0.8287 1.84375,-1.84375 -4e-6,-1.01504 -0.828706,-1.84375 -1.84375,-1.84375 z"
           id="path1593" />
        <path
           style="color:#000000;font-style:normal;font-variant:normal;font-weight:normal;font-stretch:normal;font-size:medium;line-height:normal;font-family:sans-serif;font-variant-ligatures:normal;font-variant-position:normal;font-variant-caps:normal;font-variant-numeric:normal;font-variant-alternates:normal;font-variant-east-asian:normal;font-feature-settings:normal;font-variation-settings:normal;text-indent:0;text-align:start;text-decoration:none;text-decoration-line:none;text-decoration-style:solid;text-decoration-color:#000000;letter-spacing:normal;word-spacing:normal;text-transform:none;writing-mode:lr-tb;direction:ltr;text-orientation:mixed;dominant-baseline:auto;baseline-shift:baseline;text-anchor:start;white-space:normal;shape-padding:0;shape-margin:0;inline-size:0;clip-rule:nonzero;display:inline;overflow:visible;visibility:visible;isolation:auto;mix-blend-mode:normal;color-interpolation:sRGB;color-interpolation-filters:linearRGB;solid-color:#000000;solid-opacity:1;vector-effect:none;fill:#ebb347;fill-opacity:1;fill-rule:nonzero;stroke:none;stroke-width:0.529167;stroke-linecap:round;stroke-linejoin:round;stroke-miterlimit:4;stroke-dasharray:none;stroke-dashoffset:0;stroke-opacity:1;color-rendering:auto;image-rendering:auto;shape-rendering:auto;text-rendering:auto;enable-background:accumulate;stop-color:#000000"
           d="m -17.232422,255.87891 c -1.01504,0 -1.84374,0.82871 -1.84375,1.84375 -3e-6,1.01505 0.828701,1.84375 1.84375,1.84375 1.015049,0 1.843753,-0.8287 1.84375,-1.84375 -10e-6,-1.01504 -0.82871,-1.84375 -1.84375,-1.84375 z"
           id="path1605" />
        <path
           style="color:#000000;font-style:normal;font-variant:normal;font-weight:normal;font-stretch:normal;font-size:medium;line-height:normal;font-family:sans-serif;font-variant-ligatures:normal;font-variant-position:normal;font-variant-caps:normal;font-variant-numeric:normal;font-variant-alternates:normal;font-variant-east-asian:normal;font-feature-settings:normal;font-variation-settings:normal;text-indent:0;text-align:start;text-decoration:none;text-decoration-line:none;text-decoration-style:solid;text-decoration-color:#000000;letter-spacing:normal;word-spacing:normal;text-transform:none;writing-mode:lr-tb;direction:ltr;text-orientation:mixed;dominant-baseline:auto;baseline-shift:baseline;text-anchor:start;white-space:normal;shape-padding:0;shape-margin:0;inline-size:0;clip-rule:nonzero;display:inline;overflow:visible;visibility:visible;isolation:auto;mix-blend-mode:normal;color-interpolation:sRGB;color-interpolation-filters:linearRGB;solid-color:#000000;solid-opacity:1;vector-effect:none;fill:#6f1e49;fill-opacity:1;fill-rule:nonzero;stroke:none;stroke-width:0.529167;stroke-linecap:round;stroke-linejoin:round;stroke-miterlimit:4;stroke-dasharray:none;stroke-dashoffset:0;stroke-opacity:1;color-rendering:auto;image-rendering:auto;shape-rendering:auto;text-rendering:auto;enable-background:accumulate;stop-color:#000000"
           d="m -25.701172,257.74609 c -1.015044,0 -1.843746,0.82871 -1.84375,1.84375 4e-6,1.01505 0.828706,1.8418 1.84375,1.8418 1.015044,0 1.841793,-0.82675 1.841797,-1.8418 -4e-6,-1.01504 -0.826753,-1.84375 -1.841797,-1.84375 z"
           id="path1658" />
        <path
           style="color:#000000;font-style:normal;font-variant:normal;font-weight:normal;font-stretch:normal;font-size:medium;line-height:normal;font-family:sans-serif;font-variant-ligatures:normal;font-variant-position:normal;font-variant-caps:normal;font-variant-numeric:normal;font-variant-alternates:normal;font-variant-east-asian:normal;font-feature-settings:normal;font-variation-settings:normal;text-indent:0;text-align:start;text-decoration:none;text-decoration-line:none;text-decoration-style:solid;text-decoration-color:#000000;letter-spacing:normal;word-spacing:normal;text-transform:none;writing-mode:lr-tb;direction:ltr;text-orientation:mixed;dominant-baseline:auto;baseline-shift:baseline;text-anchor:start;white-space:normal;shape-padding:0;shape-margin:0;inline-size:0;clip-rule:nonzero;display:inline;overflow:visible;visibility:visible;isolation:auto;mix-blend-mode:normal;color-interpolation:sRGB;color-interpolation-filters:linearRGB;solid-color:#000000;solid-opacity:1;vector-effect:none;fill:#c14d0b;fill-opacity:1;fill-rule:nonzero;stroke:none;stroke-width:0.529167;stroke-linecap:round;stroke-linejoin:round;stroke-miterlimit:4;stroke-dasharray:none;stroke-dashoffset:0;stroke-opacity:1;color-rendering:auto;image-rendering:auto;shape-rendering:auto;text-rendering:auto;enable-background:accumulate;stop-color:#000000"
           d="m -29.242188,249.82812 c -0.219015,-7e-5 -0.439303,0.0858 -0.605468,0.25196 -0.166177,0.16618 -0.252007,0.38648 -0.251953,0.60547 5e-6,0.21887 0.08572,0.43925 0.251953,0.60547 l 4.542968,4.54492 a 0.26460996,0.26460996 0 0 0 0.375,0 l 0.837891,-0.83789 a 0.26460996,0.26460996 0 0 0 0,-0.375 l -4.544922,-4.54297 c -0.166172,-0.1661 -0.386558,-0.25191 -0.605469,-0.25196 z"
           id="path1536" />
        <path
           style="color:#000000;font-style:normal;font-variant:normal;font-weight:normal;font-stretch:normal;font-size:medium;line-height:normal;font-family:sans-serif;font-variant-ligatures:normal;font-variant-position:normal;font-variant-caps:normal;font-variant-numeric:normal;font-variant-alternates:normal;font-variant-east-asian:normal;font-feature-settings:normal;font-variation-settings:normal;text-indent:0;text-align:start;text-decoration:none;text-decoration-line:none;text-decoration-style:solid;text-decoration-color:#000000;letter-spacing:normal;word-spacing:normal;text-transform:none;writing-mode:lr-tb;direction:ltr;text-orientation:mixed;dominant-baseline:auto;baseline-shift:baseline;text-anchor:start;white-space:normal;shape-padding:0;shape-margin:0;inline-size:0;clip-rule:nonzero;display:inline;overflow:visible;visibility:visible;isolation:auto;mix-blend-mode:normal;color-interpolation:sRGB;color-interpolation-filters:linearRGB;solid-color:#000000;solid-opacity:1;vector-effect:none;fill:#a7430c;fill-opacity:1;fill-rule:nonzero;stroke:none;stroke-width:0.529167;stroke-linecap:round;stroke-linejoin:round;stroke-miterlimit:4;stroke-dasharray:none;stroke-dashoffset:0;stroke-opacity:1;color-rendering:auto;image-rendering:auto;shape-rendering:auto;text-rendering:auto;enable-background:accumulate;stop-color:#000000"
           d="m -24.029297,254.40039 a 0.26460996,0.26460996 0 0 0 -0.0957,0.0273 l -0.08398,0.043 c -0.540553,0.2703 -0.97974,0.70748 -1.25,1.24805 l -0.04102,0.084 a 0.26460996,0.26460996 0 0 0 0.01367,0.25977 l 0.03516,0.0547 c 0.480827,0.75559 1.121366,1.39612 1.876953,1.87695 l 0.05469,0.0352 a 0.26460996,0.26460996 0 0 0 0.328125,-0.0371 l 1.255859,-1.25586 a 0.26460996,0.26460996 0 0 0 0.03711,-0.33008 l -0.03516,-0.0527 c -0.480829,-0.75559 -1.121365,-1.39613 -1.876953,-1.87696 l -0.05469,-0.0352 a 0.26460996,0.26460996 0 0 0 -0.164063,-0.041 z"
           id="path1550" />
        <path
           style="color:#000000;font-style:normal;font-variant:normal;font-weight:normal;font-stretch:normal;font-size:medium;line-height:normal;font-family:sans-serif;font-variant-ligatures:normal;font-variant-position:normal;font-variant-caps:normal;font-variant-numeric:normal;font-variant-alternates:normal;font-variant-east-asian:normal;font-feature-settings:normal;font-variation-settings:normal;text-indent:0;text-align:start;text-decoration:none;text-decoration-line:none;text-decoration-style:solid;text-decoration-color:#000000;letter-spacing:normal;word-spacing:normal;text-transform:none;writing-mode:lr-tb;direction:ltr;text-orientation:mixed;dominant-baseline:auto;baseline-shift:baseline;text-anchor:start;white-space:normal;shape-padding:0;shape-margin:0;inline-size:0;clip-rule:nonzero;display:inline;overflow:visible;visibility:visible;isolation:auto;mix-blend-mode:normal;color-interpolation:sRGB;color-interpolation-filters:linearRGB;solid-color:#000000;solid-opacity:1;vector-effect:none;fill:#b7d1e0;fill-opacity:1;fill-rule:nonzero;stroke:none;stroke-width:0.529167;stroke-linecap:round;stroke-linejoin:round;stroke-miterlimit:4;stroke-dasharray:none;stroke-dashoffset:0;stroke-opacity:1;color-rendering:auto;image-rendering:auto;shape-rendering:auto;text-rendering:auto;enable-background:accumulate;stop-color:#000000"
           d="m -22.09375,256.47328 c -0.0771,-0.005 -0.15274,0.0231 -0.207031,0.0781 l -1.265625,1.06773 c -0.05378,0.0542 -0.08155,0.12893 -0.07617,0.20508 0.01564,0.22632 0.05322,0.48659 0.197266,0.73047 6.55e-4,10e-4 0.0013,0.003 0.002,0.004 0.33569,0.54983 0.855313,0.69225 1.259765,0.77735 0.404453,0.0851 0.681622,0.12633 0.884766,0.42968 0.113658,0.1688 0.367367,0.15148 0.457031,-0.0312 0.345735,-0.70221 0.159552,-1.44245 -0.143974,-2.18894 -0.005,-0.0122 -0.01085,-0.0239 -0.01758,-0.0352 -0.114386,-0.19339 -0.177302,-0.40715 -0.358552,-0.61991 -0.181251,-0.21277 -0.297452,-0.31526 -0.688882,-0.40928 -0.01408,-0.004 -0.02845,-0.007 -0.04297,-0.008 z"
           id="path1578"
           sodipodi:nodetypes="ccccccsccccsccc" />
        <path
           id="path1684"
           style="color:#000000;font-style:normal;font-variant:normal;font-weight:normal;font-stretch:normal;font-size:medium;line-height:normal;font-family:sans-serif;font-variant-ligatures:normal;font-variant-position:normal;font-variant-caps:normal;font-variant-numeric:normal;font-variant-alternates:normal;font-variant-east-asian:normal;font-feature-settings:normal;font-variation-settings:normal;text-indent:0;text-align:start;text-decoration:none;text-decoration-line:none;text-decoration-style:solid;text-decoration-color:#000000;letter-spacing:normal;word-spacing:normal;text-transform:none;writing-mode:lr-tb;direction:ltr;text-orientation:mixed;dominant-baseline:auto;baseline-shift:baseline;text-anchor:start;white-space:normal;shape-padding:0;shape-margin:0;inline-size:0;clip-rule:nonzero;display:inline;overflow:visible;visibility:visible;isolation:auto;mix-blend-mode:normal;color-interpolation:sRGB;color-interpolation-filters:linearRGB;solid-color:#000000;solid-opacity:1;vector-effect:none;fill:#bf1a42;fill-opacity:1;fill-rule:nonzero;stroke:none;stroke-width:0.529167;stroke-linecap:round;stroke-linejoin:round;stroke-miterlimit:4;stroke-dasharray:none;stroke-dashoffset:0;stroke-opacity:1;color-rendering:auto;image-rendering:auto;shape-rendering:auto;text-rendering:auto;enable-background:accumulate;stop-color:#000000"
           d="m -19.816362,252.43372 c -0.642336,0 -1.209131,0.33261 -1.539441,0.83354 0.290662,-0.19166 0.637566,-0.30437 1.010275,-0.30437 1.015043,0 1.843811,0.82877 1.843815,1.84381 0,0.37271 -0.112717,0.71962 -0.304375,1.01028 0.500935,-0.33031 0.833542,-0.8971 0.833541,-1.53944 -4e-6,-1.01504 -0.828771,-1.84382 -1.843815,-1.84382 z" />
        <path
           id="path1689"
           style="color:#000000;font-style:normal;font-variant:normal;font-weight:normal;font-stretch:normal;font-size:medium;line-height:normal;font-family:sans-serif;font-variant-ligatures:normal;font-variant-position:normal;font-variant-caps:normal;font-variant-numeric:normal;font-variant-alternates:normal;font-variant-east-asian:normal;font-feature-settings:normal;font-variation-settings:normal;text-indent:0;text-align:start;text-decoration:none;text-decoration-line:none;text-decoration-style:solid;text-decoration-color:#000000;letter-spacing:normal;word-spacing:normal;text-transform:none;writing-mode:lr-tb;direction:ltr;text-orientation:mixed;dominant-baseline:auto;baseline-shift:baseline;text-anchor:start;white-space:normal;shape-padding:0;shape-margin:0;inline-size:0;clip-rule:nonzero;display:inline;overflow:visible;visibility:visible;isolation:auto;mix-blend-mode:normal;color-interpolation:sRGB;color-interpolation-filters:linearRGB;solid-color:#000000;solid-opacity:1;vector-effect:none;fill:#db9c27;fill-opacity:1;fill-rule:nonzero;stroke:none;stroke-width:0.529167;stroke-linecap:round;stroke-linejoin:round;stroke-miterlimit:4;stroke-dasharray:none;stroke-dashoffset:0;stroke-opacity:1;color-rendering:auto;image-rendering:auto;shape-rendering:auto;text-rendering:auto;enable-background:accumulate;stop-color:#000000"
           d="m -17.23254,255.87899 c -0.642334,0 -1.209131,0.3326 -1.539441,0.83354 0.29066,-0.19166 0.637568,-0.30437 1.010274,-0.30437 1.01504,0 1.843805,0.82877 1.843815,1.84381 1e-6,0.37271 -0.112716,0.71961 -0.304374,1.01027 0.500935,-0.3303 0.833543,-0.8971 0.833541,-1.53944 -10e-6,-1.01504 -0.828775,-1.84381 -1.843815,-1.84381 z" />
        <path
           id="path1695"
           style="color:#000000;font-style:normal;font-variant:normal;font-weight:normal;font-stretch:normal;font-size:medium;line-height:normal;font-family:sans-serif;font-variant-ligatures:normal;font-variant-position:normal;font-variant-caps:normal;font-variant-numeric:normal;font-variant-alternates:normal;font-variant-east-asian:normal;font-feature-settings:normal;font-variation-settings:normal;text-indent:0;text-align:start;text-decoration:none;text-decoration-line:none;text-decoration-style:solid;text-decoration-color:#000000;letter-spacing:normal;word-spacing:normal;text-transform:none;writing-mode:lr-tb;direction:ltr;text-orientation:mixed;dominant-baseline:auto;baseline-shift:baseline;text-anchor:start;white-space:normal;shape-padding:0;shape-margin:0;inline-size:0;clip-rule:nonzero;display:inline;overflow:visible;visibility:visible;isolation:auto;mix-blend-mode:normal;color-interpolation:sRGB;color-interpolation-filters:linearRGB;solid-color:#000000;solid-opacity:1;vector-effect:none;fill:#6a9631;fill-opacity:1;fill-rule:nonzero;stroke:none;stroke-width:0.529167;stroke-linecap:round;stroke-linejoin:round;stroke-miterlimit:4;stroke-dasharray:none;stroke-dashoffset:0;stroke-opacity:1;color-rendering:auto;image-rendering:auto;shape-rendering:auto;text-rendering:auto;enable-background:accumulate;stop-color:#000000"
           d="m -18.380791,260.1857 c -0.642569,0 -1.2097,0.3323 -1.539957,0.83354 0.290736,-0.1918 0.637925,-0.30437 1.010791,-0.30437 1.015044,0 1.843811,0.82876 1.843815,1.84381 -2e-6,0.37248 -0.112419,0.71921 -0.303858,1.00976 0.500713,-0.33035 0.833022,-0.89676 0.833025,-1.53892 -4e-6,-1.01505 -0.828771,-1.84382 -1.843816,-1.84382 z" />
        <path
           id="path1700"
           style="color:#000000;font-style:normal;font-variant:normal;font-weight:normal;font-stretch:normal;font-size:medium;line-height:normal;font-family:sans-serif;font-variant-ligatures:normal;font-variant-position:normal;font-variant-caps:normal;font-variant-numeric:normal;font-variant-alternates:normal;font-variant-east-asian:normal;font-feature-settings:normal;font-variation-settings:normal;text-indent:0;text-align:start;text-decoration:none;text-decoration-line:none;text-decoration-style:solid;text-decoration-color:#000000;letter-spacing:normal;word-spacing:normal;text-transform:none;writing-mode:lr-tb;direction:ltr;text-orientation:mixed;dominant-baseline:auto;baseline-shift:baseline;text-anchor:start;white-space:normal;shape-padding:0;shape-margin:0;inline-size:0;clip-rule:nonzero;display:inline;overflow:visible;visibility:visible;isolation:auto;mix-blend-mode:normal;color-interpolation:sRGB;color-interpolation-filters:linearRGB;solid-color:#000000;solid-opacity:1;vector-effect:none;fill:#5e193d;fill-opacity:1;fill-rule:nonzero;stroke:none;stroke-width:0.529167;stroke-linecap:round;stroke-linejoin:round;stroke-miterlimit:4;stroke-dasharray:none;stroke-dashoffset:0;stroke-opacity:1;color-rendering:auto;image-rendering:auto;shape-rendering:auto;text-rendering:auto;enable-background:accumulate;stop-color:#000000"
           d="m -25.701274,257.74606 c -0.642336,0 -1.209131,0.3326 -1.539441,0.83354 0.290661,-0.19166 0.637566,-0.30438 1.010274,-0.30438 1.015044,0 1.841744,0.82878 1.841748,1.84382 -1e-6,0.37246 -0.112254,0.71903 -0.303341,1.00924 0.500691,-0.32968 0.832505,-0.89581 0.832508,-1.53841 -4e-6,-1.01504 -0.826704,-1.84381 -1.841748,-1.84381 z" />
        <path
           id="path1706"
           style="color:#000000;font-style:normal;font-variant:normal;font-weight:normal;font-stretch:normal;font-size:medium;line-height:normal;font-family:sans-serif;font-variant-ligatures:normal;font-variant-position:normal;font-variant-caps:normal;font-variant-numeric:normal;font-variant-alternates:normal;font-variant-east-asian:normal;font-feature-settings:normal;font-variation-settings:normal;text-indent:0;text-align:start;text-decoration:none;text-decoration-line:none;text-decoration-style:solid;text-decoration-color:#000000;letter-spacing:normal;word-spacing:normal;text-transform:none;writing-mode:lr-tb;direction:ltr;text-orientation:mixed;dominant-baseline:auto;baseline-shift:baseline;text-anchor:start;white-space:normal;shape-padding:0;shape-margin:0;inline-size:0;clip-rule:nonzero;display:inline;overflow:visible;visibility:visible;isolation:auto;mix-blend-mode:normal;color-interpolation:sRGB;color-interpolation-filters:linearRGB;solid-color:#000000;solid-opacity:1;vector-effect:none;fill:#19558a;fill-opacity:1;fill-rule:nonzero;stroke:none;stroke-width:0.529167;stroke-linecap:round;stroke-linejoin:round;stroke-miterlimit:4;stroke-dasharray:none;stroke-dashoffset:0;stroke-opacity:1;color-rendering:auto;image-rendering:auto;shape-rendering:auto;text-rendering:auto;enable-background:accumulate;stop-color:#000000"
           d="m -22.832199,261.19133 c -0.64259,0 -1.208729,0.33181 -1.538407,0.8325 0.290208,-0.19108 0.636785,-0.30334 1.009241,-0.30334 1.015044,0 1.843811,0.82671 1.843815,1.84175 0,0.37271 -0.112717,0.71961 -0.304374,1.01027 0.500934,-0.3303 0.833542,-0.8971 0.83354,-1.53944 -4e-6,-1.01504 -0.828771,-1.84174 -1.843815,-1.84174 z" />
        <path
           id="path1712"
           style="color:#000000;font-style:normal;font-variant:normal;font-weight:normal;font-stretch:normal;font-size:medium;line-height:normal;font-family:sans-serif;font-variant-ligatures:normal;font-variant-position:normal;font-variant-caps:normal;font-variant-numeric:normal;font-variant-alternates:normal;font-variant-east-asian:normal;font-feature-settings:normal;font-variation-settings:normal;text-indent:0;text-align:start;text-decoration:none;text-decoration-line:none;text-decoration-style:solid;text-decoration-color:#000000;letter-spacing:normal;word-spacing:normal;text-transform:none;writing-mode:lr-tb;direction:ltr;text-orientation:mixed;dominant-baseline:auto;baseline-shift:baseline;text-anchor:start;white-space:normal;shape-padding:0;shape-margin:0;inline-size:0;clip-rule:nonzero;display:inline;overflow:visible;visibility:visible;isolation:auto;mix-blend-mode:normal;color-interpolation:sRGB;color-interpolation-filters:linearRGB;solid-color:#000000;solid-opacity:1;vector-effect:none;fill:#97bed3;fill-opacity:1;fill-rule:nonzero;stroke:none;stroke-width:0.529167;stroke-linecap:round;stroke-linejoin:round;stroke-miterlimit:4;stroke-dasharray:none;stroke-dashoffset:0;stroke-opacity:1;color-rendering:auto;image-rendering:auto;shape-rendering:auto;text-rendering:auto;enable-background:accumulate;stop-color:#000000"
           d="m -22.088979,256.35578 c -0.06961,8.5e-4 -0.136073,0.0291 -0.185001,0.0786 l -0.435083,0.45307 c 0.05409,-0.0524 0.12796,-0.0793 0.203089,-0.0739 0.01449,10e-4 0.02884,0.004 0.04289,0.008 0.39143,0.094 0.543623,0.26865 0.724874,0.48142 0.18125,0.21276 0.280422,0.43552 0.394808,0.62891 0.0067,0.0113 0.01259,0.023 0.01757,0.0351 0.245523,0.60383 0.286841,1.27312 0.112138,1.87895 0.13271,0.0784 0.304079,0.0272 0.372071,-0.1111 0.345734,-0.70221 0.294514,-1.46958 -0.009,-2.21607 -0.005,-0.0121 -0.01085,-0.0238 -0.01757,-0.0351 -0.114386,-0.19339 -0.195568,-0.40714 -0.376818,-0.6199 -0.181251,-0.21277 -0.387414,-0.40539 -0.778844,-0.49941 -0.01405,-0.004 -0.0284,-0.007 -0.04289,-0.008 -0.0074,-4.8e-4 -0.01481,-6.5e-4 -0.02222,-5.2e-4 z"
           sodipodi:nodetypes="cccccsccccccscccc" />
        <path
           id="path1717"
           style="color:#000000;font-style:normal;font-variant:normal;font-weight:normal;font-stretch:normal;font-size:medium;line-height:normal;font-family:sans-serif;font-variant-ligatures:normal;font-variant-position:normal;font-variant-caps:normal;font-variant-numeric:normal;font-variant-alternates:normal;font-variant-east-asian:normal;font-feature-settings:normal;font-variation-settings:normal;text-indent:0;text-align:start;text-decoration:none;text-decoration-line:none;text-decoration-style:solid;text-decoration-color:#000000;letter-spacing:normal;word-spacing:normal;text-transform:none;writing-mode:lr-tb;direction:ltr;text-orientation:mixed;dominant-baseline:auto;baseline-shift:baseline;text-anchor:start;white-space:normal;shape-padding:0;shape-margin:0;inline-size:0;clip-rule:nonzero;display:inline;overflow:visible;visibility:visible;isolation:auto;mix-blend-mode:normal;color-interpolation:sRGB;color-interpolation-filters:linearRGB;solid-color:#000000;solid-opacity:1;vector-effect:none;fill:#97bed3;fill-opacity:1;fill-rule:nonzero;stroke:none;stroke-width:0.529167;stroke-linecap:round;stroke-linejoin:round;stroke-miterlimit:4;stroke-dasharray:none;stroke-dashoffset:0;stroke-opacity:1;color-rendering:auto;image-rendering:auto;shape-rendering:auto;text-rendering:auto;enable-background:accumulate;stop-color:#000000"
           d="m -23.037295,258.14853 1.265556,-1.26556 c 0.05435,-0.055 0.130068,-0.0835 0.207222,-0.078 0.01449,10e-4 0.02884,0.004 0.04289,0.008 0.185716,0.0446 0.342128,0.11069 0.476456,0.18914 -0.04789,-0.0761 -0.09961,-0.15253 -0.163814,-0.22789 -0.181251,-0.21277 -0.4631,-0.26282 -0.85453,-0.35684 -0.01405,-0.004 -0.0284,-0.007 -0.04289,-0.008 -0.0074,-4.8e-4 -0.01481,-6.6e-4 -0.02222,-5.2e-4 l -6e-5,-4.6e-4 c -0.0696,8.5e-4 -0.136073,0.0291 -0.185001,0.0786 l -1.252835,1.13198 c -0.05373,0.0542 -0.08142,0.12902 -0.07596,0.20516 0.01564,0.22632 0.05336,0.48682 0.197404,0.7307"
           sodipodi:nodetypes="cccccccccccccc" />
      </g>
      <path
         d="m -29.242142,249.82814 c -0.219017,-7e-5 -0.439483,0.0855 -0.60565,0.25166 -0.166176,0.16618 -0.251716,0.38666 -0.251663,0.60565 5e-6,0.21887 0.08543,0.43943 0.251663,0.60565 l 4.112928,4.11499 c -0.67196,0.26431 -1.410394,0.71513 -1.968355,1.49035 -0.661374,0.91891 -1.049504,2.27804 -0.802534,4.2323 a 0.26460995,0.26460995 0 0 0 0.0021,0.014 c 0,0 0.229301,1.27847 1.265555,2.54455 1.036256,1.26608 2.898527,2.52872 6.076116,2.54507 0.0031,4e-5 1.751426,0.019 3.525366,-0.91571 1.775505,-0.93557 3.581956,-2.86809 3.663859,-6.61923 a 0.26460995,0.26460995 0 0 0 0,-0.0176 c -0.171615,-3.41862 -1.641889,-5.40379 -3.200838,-6.49417 -1.558949,-1.09039 -3.150724,-1.30831 -3.738273,-1.28933 a 0.26460995,0.26460995 0 0 0 -0.0083,0 c -0.957133,0.0557 -1.564935,0.30981 -1.917713,0.70125 -0.352777,0.39143 -0.408273,0.88842 -0.349849,1.3069 0.04711,0.33739 0.127417,0.75633 0.134875,1.12292 0.0075,0.36661 -0.06477,0.63777 -0.212907,0.75396 -0.01839,0.0144 -0.0391,0.0272 -0.05891,0.0408 -0.156304,-0.12237 -0.317558,-0.23868 -0.485758,-0.34572 l -0.05478,-0.0351 a 0.26460995,0.26460995 0 0 0 -0.164331,-0.0408 0.26460995,0.26460995 0 0 0 -0.0956,0.0274 l -0.08372,0.0429 c -0.0077,0.004 -0.01503,0.008 -0.02274,0.0124 l -4.404899,-4.40335 c -0.166172,-0.1661 -0.386736,-0.25161 -0.605647,-0.25166 z m 0,0.52917 c 0.08434,2e-5 0.167418,0.0305 0.232542,0.0956 l 4.322218,4.32377 c -0.172346,0.13554 -0.328083,0.29057 -0.464055,0.4625 l -4.32325,-4.32118 c -0.06509,-0.0651 -0.0956,-0.14825 -0.0956,-0.23255 -2.1e-5,-0.0843 0.03045,-0.16738 0.0956,-0.23254 0.06515,-0.0652 0.148273,-0.0956 0.232545,-0.0956 z m 8.351427,1.0666 c 0.407088,-0.0121 1.974641,0.18836 3.414263,1.19527 1.441295,1.0081 2.805547,2.80477 2.972428,6.07819 -0.08219,3.57952 -1.734654,5.28376 -3.378605,6.15001 -1.646007,0.86733 -3.27577,0.85576 -3.27577,0.85576 a 0.26460995,0.26460995 0 0 0 -0.0016,0 c -3.040427,-0.0156 -4.718992,-1.18994 -5.669939,-2.35179 -0.949333,-1.15988 -1.151694,-2.29471 -1.152385,-2.29857 -0.231618,-1.85 0.134586,-3.04767 0.709002,-3.84576 0.489725,-0.68042 1.142119,-1.07966 1.747181,-1.31517 a 0.26460995,0.26460995 0 0 0 0.03979,0.17054 l 0.03514,0.0548 c 0.468883,0.73682 1.090376,1.36309 1.821594,1.83968 0.02186,0.1925 0.06766,0.40011 0.184485,0.5979 a 0.26460995,0.26460995 0 0 0 0.0016,0.004 c 0.33569,0.54983 0.855419,0.69263 1.259871,0.77773 0.404453,0.0851 0.681557,0.12608 0.884701,0.42943 a 0.26460995,0.26460995 0 0 0 0.457336,-0.031 c 0.345735,-0.70221 0.348483,-1.55053 0.04496,-2.29702 a 0.26460995,0.26460995 0 0 0 -0.01757,-0.0351 c -0.114386,-0.19339 -0.213558,-0.41614 -0.394808,-0.6289 -0.166398,-0.19533 -0.411762,-0.36258 -0.752925,-0.46199 -0.270823,-0.41789 -0.591457,-0.79891 -0.952914,-1.13739 0.337342,-0.28489 0.399761,-0.73527 0.391191,-1.15652 -0.0088,-0.43225 -0.09684,-0.87436 -0.14056,-1.18753 -0.04518,-0.3236 -0.0062,-0.62696 0.219108,-0.87695 0.225034,-0.24969 0.679756,-0.47776 1.554427,-0.52916 z m 1.074354,1.00976 c -1.015046,0 -1.843813,0.82877 -1.843816,1.84381 -3e-6,1.01505 0.828766,1.8433 1.843816,1.8433 1.015049,0 1.843817,-0.82825 1.843815,-1.8433 -4e-6,-1.01504 -0.828771,-1.84381 -1.843815,-1.84381 z m 0,0.52916 c 0.729062,0 1.314645,0.58559 1.314648,1.31465 2e-6,0.72907 -0.585583,1.31413 -1.314648,1.31413 -0.729066,0 -1.314651,-0.58506 -1.314649,-1.31413 2e-6,-0.72906 0.585586,-1.31465 1.314649,-1.31465 z m -4.206979,2.02934 c 0.613274,0.40595 1.132383,0.93328 1.543058,1.54305 l -0.914156,0.91003 c -0.608004,-0.40993 -1.133708,-0.92743 -1.538924,-1.53893 0.209491,-0.3876 0.522436,-0.70464 0.910022,-0.91415 z m 6.7908,0.88676 c -1.01504,0 -1.843805,0.82878 -1.843815,1.84382 -3e-6,1.01505 0.828766,1.84381 1.843815,1.84381 1.015049,0 1.843818,-0.82876 1.843816,-1.84381 -10e-6,-1.01504 -0.828776,-1.84382 -1.843816,-1.84382 z m 0,0.52917 c 0.729059,0 1.314642,0.58559 1.314649,1.31465 2e-6,0.72906 -0.585583,1.31413 -1.314649,1.31413 -0.729065,0 -1.314133,-0.58507 -1.314131,-1.31413 7e-6,-0.72906 0.585073,-1.31465 1.314131,-1.31465 z m -4.805392,0.43046 c 0.208075,0.0696 0.328063,0.16052 0.426848,0.27647 0.112963,0.13261 0.202444,0.31852 0.324011,0.52762 0.21101,0.52281 0.139471,1.08554 -0.02532,1.58595 -0.261645,-0.15232 -0.519321,-0.35888 -0.763778,-0.41031 -0.387748,-0.0816 -0.67377,-0.14629 -0.912089,-0.5333 -0.06237,-0.10561 -0.09219,-0.2405 -0.110587,-0.38551 z m -3.663342,0.90744 c -1.015044,0 -1.843812,0.82878 -1.843814,1.84382 2e-6,1.01505 0.82877,1.84175 1.843814,1.84175 1.015044,0 1.841744,-0.8267 1.841748,-1.84175 -4e-6,-1.01504 -0.826704,-1.84382 -1.841748,-1.84382 z m 0,0.52917 c 0.729062,0 1.314647,0.58559 1.314649,1.31465 -2e-6,0.72907 -0.585587,1.31465 -1.314649,1.31465 -0.729062,0 -1.314129,-0.58558 -1.314132,-1.31465 3e-6,-0.72906 0.58507,-1.31465 1.314132,-1.31465 z m 7.320484,1.91048 c -1.015045,0 -1.843813,0.82876 -1.843815,1.84381 2e-6,1.01504 0.82877,1.8433 1.843815,1.8433 1.015044,0 1.843811,-0.82826 1.843815,-1.8433 -4e-6,-1.01505 -0.828771,-1.84381 -1.843815,-1.84381 z m 0,0.52916 c 0.729062,0 1.314129,0.58558 1.314132,1.31465 -3e-6,0.72906 -0.58507,1.31413 -1.314132,1.31413 -0.729062,0 -1.314647,-0.58507 -1.314648,-1.31413 1e-6,-0.72907 0.585586,-1.31465 1.314648,-1.31465 z m -4.451408,0.47646 c -1.015045,0 -1.841744,0.82671 -1.841748,1.84175 -3e-6,1.01505 0.826699,1.84381 1.841748,1.84381 1.015049,0 1.843817,-0.82876 1.843815,-1.84381 -4e-6,-1.01504 -0.828771,-1.84175 -1.843815,-1.84175 z m 0,0.52762 c 0.729062,0 1.314645,0.58507 1.314648,1.31413 2e-6,0.72907 -0.585583,1.31465 -1.314648,1.31465 -0.729065,0 -1.314134,-0.58558 -1.314132,-1.31465 2e-6,-0.72906 0.58507,-1.31413 1.314132,-1.31413 z"
         style="color:#000000;font-style:normal;font-variant:normal;font-weight:normal;font-stretch:normal;font-size:medium;line-height:normal;font-family:sans-serif;font-variant-ligatures:normal;font-variant-position:normal;font-variant-caps:normal;font-variant-numeric:normal;font-variant-alternates:normal;font-variant-east-asian:normal;font-feature-settings:normal;font-variation-settings:normal;text-indent:0;text-align:start;text-decoration:none;text-decoration-line:none;text-decoration-style:solid;text-decoration-color:#000000;letter-spacing:normal;word-spacing:normal;text-transform:none;writing-mode:lr-tb;direction:ltr;text-orientation:mixed;dominant-baseline:auto;baseline-shift:baseline;text-anchor:start;white-space:normal;shape-padding:0;shape-margin:0;inline-size:0;clip-rule:nonzero;display:inline;overflow:visible;visibility:visible;opacity:1;isolation:auto;mix-blend-mode:normal;color-interpolation:sRGB;color-interpolation-filters:linearRGB;solid-color:#000000;solid-opacity:1;vector-effect:none;fill:#000000;fill-opacity:1;fill-rule:nonzero;stroke:none;stroke-width:0.529167;stroke-linecap:round;stroke-linejoin:round;stroke-miterlimit:4;stroke-dasharray:none;stroke-dashoffset:0;stroke-opacity:1;color-rendering:auto;image-rendering:auto;shape-rendering:auto;text-rendering:auto;enable-background:accumulate;stop-color:#000000;stop-opacity:1"
         id="path171" />
    </g>
  </g>
</svg>
