<svg xmlns="http://www.w3.org/2000/svg" width="64pt" height="64pt" viewBox="0 0 22.578 22.578"><g style="display:inline"><path d="M-20.92 250.896c-.957.056-1.565.31-1.918.702-.353.391-.408.888-.35 1.306.048.338.128.757.135 1.123.008.367-.064.638-.213.754-.054.043-.118.081-.185.115l-1.89.374a.265.265 0 0 0-.028.006c-.757.235-1.673.702-2.334 1.62-.661.92-1.05 2.279-.803 4.233a.265.265 0 0 0 .002.014s.23 1.279 1.266 2.545 2.898 2.528 6.076 2.545c.003 0 1.751.018 3.525-.916 1.776-.936 3.582-2.868 3.664-6.62a.265.265 0 0 0 0-.017c-.171-3.419-1.642-5.404-3.2-6.494-1.56-1.09-3.152-1.308-3.74-1.29a.265.265 0 0 0-.007 0z" style="color:#000;font-style:normal;font-variant:normal;font-weight:400;font-stretch:normal;font-size:medium;line-height:normal;font-family:sans-serif;font-variant-ligatures:normal;font-variant-position:normal;font-variant-caps:normal;font-variant-numeric:normal;font-variant-alternates:normal;font-variant-east-asian:normal;font-feature-settings:normal;font-variation-settings:normal;text-indent:0;text-align:start;text-decoration:none;text-decoration-line:none;text-decoration-style:solid;text-decoration-color:#000;letter-spacing:normal;word-spacing:normal;text-transform:none;writing-mode:lr-tb;direction:ltr;text-orientation:mixed;dominant-baseline:auto;baseline-shift:baseline;text-anchor:start;white-space:normal;shape-padding:0;shape-margin:0;inline-size:0;clip-rule:nonzero;display:inline;overflow:visible;visibility:visible;isolation:auto;mix-blend-mode:normal;color-interpolation:sRGB;color-interpolation-filters:linearRGB;solid-color:#000;solid-opacity:1;vector-effect:none;fill:#ea686a;fill-opacity:1;fill-rule:nonzero;stroke:none;stroke-width:.529167;stroke-linecap:round;stroke-linejoin:round;stroke-miterlimit:4;stroke-dasharray:none;stroke-dashoffset:0;stroke-opacity:1;color-rendering:auto;image-rendering:auto;shape-rendering:auto;text-rendering:auto;enable-background:accumulate;stop-color:#000" transform="matrix(1.25804 0 0 1.25804 39.011 -313.324)"/><path d="M-79.068-110.25c-3.618.21-5.915 1.17-7.248 2.65-1.334 1.48-1.543 3.358-1.323 4.94.178 1.275.482 2.858.51 4.244.028 1.386-.245 2.41-.805 2.85-.166.13-.364.242-.564.351-.048.026-.087.059-.137.084l-7.144 1.41a1 1 0 0 0-.104.022c-.267.083-.544.182-.82.281 9.65 1.465 15.088 4.503 18.113 8.522.963 10.03-10.287 23.514-9.226 31.804 2.342.496 4.94.79 7.834.805.006 0 1.885.003 4.623-.502.598-.11 1.229-.244 1.902-.41.1-.025.206-.059.307-.084.602-.155 1.21-.316 1.853-.524l.018-.006c.04-.012.08-.03.12-.043.31-.101.62-.205.936-.32.18-.065.364-.139.545-.209.195-.075.388-.148.584-.228.258-.106.519-.222.78-.338.149-.067.297-.128.447-.197.401-.188.804-.387 1.209-.6 6.71-3.536 13.538-10.84 13.847-25.018a1 1 0 0 0 0-.066c-.648-12.92-6.205-20.424-12.097-24.545-5.892-4.121-11.908-4.943-14.13-4.871a1 1 0 0 0-.028 0z" style="fill:#e65658;fill-opacity:1;stroke:none;stroke-width:.999999px;stroke-linecap:butt;stroke-linejoin:miter;stroke-opacity:1" transform="matrix(.33286 0 0 .33286 39.011 39.011)"/><path d="M-22.832 261.191a1.845 1.845 0 0 0-1.842 1.842c0 1.015.827 1.844 1.842 1.844a1.848 1.848 0 0 0 1.844-1.844 1.846 1.846 0 0 0-1.844-1.842z" style="color:#000;font-style:normal;font-variant:normal;font-weight:400;font-stretch:normal;font-size:medium;line-height:normal;font-family:sans-serif;font-variant-ligatures:normal;font-variant-position:normal;font-variant-caps:normal;font-variant-numeric:normal;font-variant-alternates:normal;font-variant-east-asian:normal;font-feature-settings:normal;font-variation-settings:normal;text-indent:0;text-align:start;text-decoration:none;text-decoration-line:none;text-decoration-style:solid;text-decoration-color:#000;letter-spacing:normal;word-spacing:normal;text-transform:none;writing-mode:lr-tb;direction:ltr;text-orientation:mixed;dominant-baseline:auto;baseline-shift:baseline;text-anchor:start;white-space:normal;shape-padding:0;shape-margin:0;inline-size:0;clip-rule:nonzero;display:inline;overflow:visible;visibility:visible;isolation:auto;mix-blend-mode:normal;color-interpolation:sRGB;color-interpolation-filters:linearRGB;solid-color:#000;solid-opacity:1;vector-effect:none;fill:#1e65a4;fill-opacity:1;fill-rule:nonzero;stroke:none;stroke-width:.529167;stroke-linecap:round;stroke-linejoin:round;stroke-miterlimit:4;stroke-dasharray:none;stroke-dashoffset:0;stroke-opacity:1;color-rendering:auto;image-rendering:auto;shape-rendering:auto;text-rendering:auto;enable-background:accumulate;stop-color:#000" transform="matrix(1.25804 0 0 1.25804 39.011 -313.324)"/><path d="M-18.38 260.186a1.848 1.848 0 0 0-1.845 1.843c0 1.015.83 1.844 1.844 1.844a1.848 1.848 0 0 0 1.844-1.844 1.848 1.848 0 0 0-1.844-1.843z" style="color:#000;font-style:normal;font-variant:normal;font-weight:400;font-stretch:normal;font-size:medium;line-height:normal;font-family:sans-serif;font-variant-ligatures:normal;font-variant-position:normal;font-variant-caps:normal;font-variant-numeric:normal;font-variant-alternates:normal;font-variant-east-asian:normal;font-feature-settings:normal;font-variation-settings:normal;text-indent:0;text-align:start;text-decoration:none;text-decoration-line:none;text-decoration-style:solid;text-decoration-color:#000;letter-spacing:normal;word-spacing:normal;text-transform:none;writing-mode:lr-tb;direction:ltr;text-orientation:mixed;dominant-baseline:auto;baseline-shift:baseline;text-anchor:start;white-space:normal;shape-padding:0;shape-margin:0;inline-size:0;clip-rule:nonzero;display:inline;overflow:visible;visibility:visible;isolation:auto;mix-blend-mode:normal;color-interpolation:sRGB;color-interpolation-filters:linearRGB;solid-color:#000;solid-opacity:1;vector-effect:none;fill:#7cad39;fill-opacity:1;fill-rule:nonzero;stroke:none;stroke-width:.529167;stroke-linecap:round;stroke-linejoin:round;stroke-miterlimit:4;stroke-dasharray:none;stroke-dashoffset:0;stroke-opacity:1;color-rendering:auto;image-rendering:auto;shape-rendering:auto;text-rendering:auto;enable-background:accumulate;stop-color:#000" transform="matrix(1.25804 0 0 1.25804 39.011 -313.324)"/><path d="M-19.816 252.434a1.848 1.848 0 0 0-1.844 1.843c0 1.015.829 1.844 1.844 1.844a1.848 1.848 0 0 0 1.843-1.844 1.848 1.848 0 0 0-1.843-1.843z" style="color:#000;font-style:normal;font-variant:normal;font-weight:400;font-stretch:normal;font-size:medium;line-height:normal;font-family:sans-serif;font-variant-ligatures:normal;font-variant-position:normal;font-variant-caps:normal;font-variant-numeric:normal;font-variant-alternates:normal;font-variant-east-asian:normal;font-feature-settings:normal;font-variation-settings:normal;text-indent:0;text-align:start;text-decoration:none;text-decoration-line:none;text-decoration-style:solid;text-decoration-color:#000;letter-spacing:normal;word-spacing:normal;text-transform:none;writing-mode:lr-tb;direction:ltr;text-orientation:mixed;dominant-baseline:auto;baseline-shift:baseline;text-anchor:start;white-space:normal;shape-padding:0;shape-margin:0;inline-size:0;clip-rule:nonzero;display:inline;overflow:visible;visibility:visible;isolation:auto;mix-blend-mode:normal;color-interpolation:sRGB;color-interpolation-filters:linearRGB;solid-color:#000;solid-opacity:1;vector-effect:none;fill:#d91d4b;fill-opacity:1;fill-rule:nonzero;stroke:none;stroke-width:.529167;stroke-linecap:round;stroke-linejoin:round;stroke-miterlimit:4;stroke-dasharray:none;stroke-dashoffset:0;stroke-opacity:1;color-rendering:auto;image-rendering:auto;shape-rendering:auto;text-rendering:auto;enable-background:accumulate;stop-color:#000" transform="matrix(1.25804 0 0 1.25804 39.011 -313.324)"/><path d="M-17.232 255.879a1.848 1.848 0 0 0-1.844 1.844c0 1.015.829 1.843 1.844 1.843a1.848 1.848 0 0 0 1.843-1.843 1.848 1.848 0 0 0-1.843-1.844z" style="color:#000;font-style:normal;font-variant:normal;font-weight:400;font-stretch:normal;font-size:medium;line-height:normal;font-family:sans-serif;font-variant-ligatures:normal;font-variant-position:normal;font-variant-caps:normal;font-variant-numeric:normal;font-variant-alternates:normal;font-variant-east-asian:normal;font-feature-settings:normal;font-variation-settings:normal;text-indent:0;text-align:start;text-decoration:none;text-decoration-line:none;text-decoration-style:solid;text-decoration-color:#000;letter-spacing:normal;word-spacing:normal;text-transform:none;writing-mode:lr-tb;direction:ltr;text-orientation:mixed;dominant-baseline:auto;baseline-shift:baseline;text-anchor:start;white-space:normal;shape-padding:0;shape-margin:0;inline-size:0;clip-rule:nonzero;display:inline;overflow:visible;visibility:visible;isolation:auto;mix-blend-mode:normal;color-interpolation:sRGB;color-interpolation-filters:linearRGB;solid-color:#000;solid-opacity:1;vector-effect:none;fill:#ebb347;fill-opacity:1;fill-rule:nonzero;stroke:none;stroke-width:.529167;stroke-linecap:round;stroke-linejoin:round;stroke-miterlimit:4;stroke-dasharray:none;stroke-dashoffset:0;stroke-opacity:1;color-rendering:auto;image-rendering:auto;shape-rendering:auto;text-rendering:auto;enable-background:accumulate;stop-color:#000" transform="matrix(1.25804 0 0 1.25804 39.011 -313.324)"/><path d="M-25.701 257.746a1.848 1.848 0 0 0-1.844 1.844c0 1.015.829 1.842 1.844 1.842a1.845 1.845 0 0 0 1.842-1.842 1.846 1.846 0 0 0-1.842-1.844z" style="color:#000;font-style:normal;font-variant:normal;font-weight:400;font-stretch:normal;font-size:medium;line-height:normal;font-family:sans-serif;font-variant-ligatures:normal;font-variant-position:normal;font-variant-caps:normal;font-variant-numeric:normal;font-variant-alternates:normal;font-variant-east-asian:normal;font-feature-settings:normal;font-variation-settings:normal;text-indent:0;text-align:start;text-decoration:none;text-decoration-line:none;text-decoration-style:solid;text-decoration-color:#000;letter-spacing:normal;word-spacing:normal;text-transform:none;writing-mode:lr-tb;direction:ltr;text-orientation:mixed;dominant-baseline:auto;baseline-shift:baseline;text-anchor:start;white-space:normal;shape-padding:0;shape-margin:0;inline-size:0;clip-rule:nonzero;display:inline;overflow:visible;visibility:visible;isolation:auto;mix-blend-mode:normal;color-interpolation:sRGB;color-interpolation-filters:linearRGB;solid-color:#000;solid-opacity:1;vector-effect:none;fill:#6f1e49;fill-opacity:1;fill-rule:nonzero;stroke:none;stroke-width:.529167;stroke-linecap:round;stroke-linejoin:round;stroke-miterlimit:4;stroke-dasharray:none;stroke-dashoffset:0;stroke-opacity:1;color-rendering:auto;image-rendering:auto;shape-rendering:auto;text-rendering:auto;enable-background:accumulate;stop-color:#000" transform="matrix(1.25804 0 0 1.25804 39.011 -313.324)"/><path d="M-29.242 249.828a.857.857 0 0 0-.606 1.463l4.543 4.545a.265.265 0 0 0 .375 0l.838-.838a.265.265 0 0 0 0-.375l-4.545-4.543a.858.858 0 0 0-.605-.252z" style="color:#000;font-style:normal;font-variant:normal;font-weight:400;font-stretch:normal;font-size:medium;line-height:normal;font-family:sans-serif;font-variant-ligatures:normal;font-variant-position:normal;font-variant-caps:normal;font-variant-numeric:normal;font-variant-alternates:normal;font-variant-east-asian:normal;font-feature-settings:normal;font-variation-settings:normal;text-indent:0;text-align:start;text-decoration:none;text-decoration-line:none;text-decoration-style:solid;text-decoration-color:#000;letter-spacing:normal;word-spacing:normal;text-transform:none;writing-mode:lr-tb;direction:ltr;text-orientation:mixed;dominant-baseline:auto;baseline-shift:baseline;text-anchor:start;white-space:normal;shape-padding:0;shape-margin:0;inline-size:0;clip-rule:nonzero;display:inline;overflow:visible;visibility:visible;isolation:auto;mix-blend-mode:normal;color-interpolation:sRGB;color-interpolation-filters:linearRGB;solid-color:#000;solid-opacity:1;vector-effect:none;fill:#c14d0b;fill-opacity:1;fill-rule:nonzero;stroke:none;stroke-width:.529167;stroke-linecap:round;stroke-linejoin:round;stroke-miterlimit:4;stroke-dasharray:none;stroke-dashoffset:0;stroke-opacity:1;color-rendering:auto;image-rendering:auto;shape-rendering:auto;text-rendering:auto;enable-background:accumulate;stop-color:#000" transform="matrix(1.25804 0 0 1.25804 39.011 -313.324)"/><path d="M-24.03 254.4a.265.265 0 0 0-.095.028l-.084.043c-.54.27-.98.707-1.25 1.248l-.041.084a.265.265 0 0 0 .014.26l.035.054a6.117 6.117 0 0 0 1.877 1.877l.054.035a.265.265 0 0 0 .329-.037l1.255-1.256a.265.265 0 0 0 .038-.33l-.036-.052a6.117 6.117 0 0 0-1.877-1.877l-.054-.036a.265.265 0 0 0-.164-.04z" style="color:#000;font-style:normal;font-variant:normal;font-weight:400;font-stretch:normal;font-size:medium;line-height:normal;font-family:sans-serif;font-variant-ligatures:normal;font-variant-position:normal;font-variant-caps:normal;font-variant-numeric:normal;font-variant-alternates:normal;font-variant-east-asian:normal;font-feature-settings:normal;font-variation-settings:normal;text-indent:0;text-align:start;text-decoration:none;text-decoration-line:none;text-decoration-style:solid;text-decoration-color:#000;letter-spacing:normal;word-spacing:normal;text-transform:none;writing-mode:lr-tb;direction:ltr;text-orientation:mixed;dominant-baseline:auto;baseline-shift:baseline;text-anchor:start;white-space:normal;shape-padding:0;shape-margin:0;inline-size:0;clip-rule:nonzero;display:inline;overflow:visible;visibility:visible;isolation:auto;mix-blend-mode:normal;color-interpolation:sRGB;color-interpolation-filters:linearRGB;solid-color:#000;solid-opacity:1;vector-effect:none;fill:#a7430c;fill-opacity:1;fill-rule:nonzero;stroke:none;stroke-width:.529167;stroke-linecap:round;stroke-linejoin:round;stroke-miterlimit:4;stroke-dasharray:none;stroke-dashoffset:0;stroke-opacity:1;color-rendering:auto;image-rendering:auto;shape-rendering:auto;text-rendering:auto;enable-background:accumulate;stop-color:#000" transform="matrix(1.25804 0 0 1.25804 39.011 -313.324)"/><path d="M-22.094 256.473a.266.266 0 0 0-.207.078l-1.265 1.068a.265.265 0 0 0-.077.205c.016.227.054.487.198.73l.002.005c.335.55.855.692 1.26.777.404.085.681.126.884.43a.265.265 0 0 0 .457-.032c.346-.702.16-1.442-.144-2.188a.265.265 0 0 0-.017-.036c-.115-.193-.178-.407-.359-.62-.181-.212-.297-.315-.689-.409a.21.21 0 0 0-.043-.008z" style="color:#000;font-style:normal;font-variant:normal;font-weight:400;font-stretch:normal;font-size:medium;line-height:normal;font-family:sans-serif;font-variant-ligatures:normal;font-variant-position:normal;font-variant-caps:normal;font-variant-numeric:normal;font-variant-alternates:normal;font-variant-east-asian:normal;font-feature-settings:normal;font-variation-settings:normal;text-indent:0;text-align:start;text-decoration:none;text-decoration-line:none;text-decoration-style:solid;text-decoration-color:#000;letter-spacing:normal;word-spacing:normal;text-transform:none;writing-mode:lr-tb;direction:ltr;text-orientation:mixed;dominant-baseline:auto;baseline-shift:baseline;text-anchor:start;white-space:normal;shape-padding:0;shape-margin:0;inline-size:0;clip-rule:nonzero;display:inline;overflow:visible;visibility:visible;isolation:auto;mix-blend-mode:normal;color-interpolation:sRGB;color-interpolation-filters:linearRGB;solid-color:#000;solid-opacity:1;vector-effect:none;fill:#b7d1e0;fill-opacity:1;fill-rule:nonzero;stroke:none;stroke-width:.529167;stroke-linecap:round;stroke-linejoin:round;stroke-miterlimit:4;stroke-dasharray:none;stroke-dashoffset:0;stroke-opacity:1;color-rendering:auto;image-rendering:auto;shape-rendering:auto;text-rendering:auto;enable-background:accumulate;stop-color:#000" transform="matrix(1.25804 0 0 1.25804 39.011 -313.324)"/><path d="M-19.816 252.434c-.643 0-1.21.332-1.54.833a1.83 1.83 0 0 1 1.01-.304c1.016 0 1.844.829 1.844 1.844 0 .372-.112.72-.304 1.01.5-.33.833-.897.833-1.54a1.848 1.848 0 0 0-1.843-1.843z" style="color:#000;font-style:normal;font-variant:normal;font-weight:400;font-stretch:normal;font-size:medium;line-height:normal;font-family:sans-serif;font-variant-ligatures:normal;font-variant-position:normal;font-variant-caps:normal;font-variant-numeric:normal;font-variant-alternates:normal;font-variant-east-asian:normal;font-feature-settings:normal;font-variation-settings:normal;text-indent:0;text-align:start;text-decoration:none;text-decoration-line:none;text-decoration-style:solid;text-decoration-color:#000;letter-spacing:normal;word-spacing:normal;text-transform:none;writing-mode:lr-tb;direction:ltr;text-orientation:mixed;dominant-baseline:auto;baseline-shift:baseline;text-anchor:start;white-space:normal;shape-padding:0;shape-margin:0;inline-size:0;clip-rule:nonzero;display:inline;overflow:visible;visibility:visible;isolation:auto;mix-blend-mode:normal;color-interpolation:sRGB;color-interpolation-filters:linearRGB;solid-color:#000;solid-opacity:1;vector-effect:none;fill:#bf1a42;fill-opacity:1;fill-rule:nonzero;stroke:none;stroke-width:.529167;stroke-linecap:round;stroke-linejoin:round;stroke-miterlimit:4;stroke-dasharray:none;stroke-dashoffset:0;stroke-opacity:1;color-rendering:auto;image-rendering:auto;shape-rendering:auto;text-rendering:auto;enable-background:accumulate;stop-color:#000" transform="matrix(1.25804 0 0 1.25804 39.011 -313.324)"/><path d="M-17.233 255.879c-.642 0-1.209.333-1.539.834a1.83 1.83 0 0 1 1.01-.305c1.015 0 1.844.829 1.844 1.844 0 .373-.113.72-.304 1.01.5-.33.833-.897.833-1.54a1.848 1.848 0 0 0-1.844-1.843z" style="color:#000;font-style:normal;font-variant:normal;font-weight:400;font-stretch:normal;font-size:medium;line-height:normal;font-family:sans-serif;font-variant-ligatures:normal;font-variant-position:normal;font-variant-caps:normal;font-variant-numeric:normal;font-variant-alternates:normal;font-variant-east-asian:normal;font-feature-settings:normal;font-variation-settings:normal;text-indent:0;text-align:start;text-decoration:none;text-decoration-line:none;text-decoration-style:solid;text-decoration-color:#000;letter-spacing:normal;word-spacing:normal;text-transform:none;writing-mode:lr-tb;direction:ltr;text-orientation:mixed;dominant-baseline:auto;baseline-shift:baseline;text-anchor:start;white-space:normal;shape-padding:0;shape-margin:0;inline-size:0;clip-rule:nonzero;display:inline;overflow:visible;visibility:visible;isolation:auto;mix-blend-mode:normal;color-interpolation:sRGB;color-interpolation-filters:linearRGB;solid-color:#000;solid-opacity:1;vector-effect:none;fill:#db9c27;fill-opacity:1;fill-rule:nonzero;stroke:none;stroke-width:.529167;stroke-linecap:round;stroke-linejoin:round;stroke-miterlimit:4;stroke-dasharray:none;stroke-dashoffset:0;stroke-opacity:1;color-rendering:auto;image-rendering:auto;shape-rendering:auto;text-rendering:auto;enable-background:accumulate;stop-color:#000" transform="matrix(1.25804 0 0 1.25804 39.011 -313.324)"/><path d="M-18.38 260.186c-.643 0-1.21.332-1.54.833a1.83 1.83 0 0 1 1.01-.304c1.015 0 1.844.829 1.844 1.844 0 .372-.113.719-.304 1.01.5-.33.833-.897.833-1.54a1.848 1.848 0 0 0-1.844-1.843z" style="color:#000;font-style:normal;font-variant:normal;font-weight:400;font-stretch:normal;font-size:medium;line-height:normal;font-family:sans-serif;font-variant-ligatures:normal;font-variant-position:normal;font-variant-caps:normal;font-variant-numeric:normal;font-variant-alternates:normal;font-variant-east-asian:normal;font-feature-settings:normal;font-variation-settings:normal;text-indent:0;text-align:start;text-decoration:none;text-decoration-line:none;text-decoration-style:solid;text-decoration-color:#000;letter-spacing:normal;word-spacing:normal;text-transform:none;writing-mode:lr-tb;direction:ltr;text-orientation:mixed;dominant-baseline:auto;baseline-shift:baseline;text-anchor:start;white-space:normal;shape-padding:0;shape-margin:0;inline-size:0;clip-rule:nonzero;display:inline;overflow:visible;visibility:visible;isolation:auto;mix-blend-mode:normal;color-interpolation:sRGB;color-interpolation-filters:linearRGB;solid-color:#000;solid-opacity:1;vector-effect:none;fill:#6a9631;fill-opacity:1;fill-rule:nonzero;stroke:none;stroke-width:.529167;stroke-linecap:round;stroke-linejoin:round;stroke-miterlimit:4;stroke-dasharray:none;stroke-dashoffset:0;stroke-opacity:1;color-rendering:auto;image-rendering:auto;shape-rendering:auto;text-rendering:auto;enable-background:accumulate;stop-color:#000" transform="matrix(1.25804 0 0 1.25804 39.011 -313.324)"/><path d="M-25.701 257.746c-.643 0-1.21.333-1.54.834a1.83 1.83 0 0 1 1.01-.305c1.016 0 1.842.829 1.842 1.844 0 .373-.112.72-.303 1.01a1.84 1.84 0 0 0-1.01-3.383z" style="color:#000;font-style:normal;font-variant:normal;font-weight:400;font-stretch:normal;font-size:medium;line-height:normal;font-family:sans-serif;font-variant-ligatures:normal;font-variant-position:normal;font-variant-caps:normal;font-variant-numeric:normal;font-variant-alternates:normal;font-variant-east-asian:normal;font-feature-settings:normal;font-variation-settings:normal;text-indent:0;text-align:start;text-decoration:none;text-decoration-line:none;text-decoration-style:solid;text-decoration-color:#000;letter-spacing:normal;word-spacing:normal;text-transform:none;writing-mode:lr-tb;direction:ltr;text-orientation:mixed;dominant-baseline:auto;baseline-shift:baseline;text-anchor:start;white-space:normal;shape-padding:0;shape-margin:0;inline-size:0;clip-rule:nonzero;display:inline;overflow:visible;visibility:visible;isolation:auto;mix-blend-mode:normal;color-interpolation:sRGB;color-interpolation-filters:linearRGB;solid-color:#000;solid-opacity:1;vector-effect:none;fill:#5e193d;fill-opacity:1;fill-rule:nonzero;stroke:none;stroke-width:.529167;stroke-linecap:round;stroke-linejoin:round;stroke-miterlimit:4;stroke-dasharray:none;stroke-dashoffset:0;stroke-opacity:1;color-rendering:auto;image-rendering:auto;shape-rendering:auto;text-rendering:auto;enable-background:accumulate;stop-color:#000" transform="matrix(1.25804 0 0 1.25804 39.011 -313.324)"/><path d="M-22.832 261.191a1.84 1.84 0 0 0-1.539.833 1.83 1.83 0 0 1 1.01-.304c1.015 0 1.843.827 1.843 1.842 0 .373-.112.72-.304 1.01.501-.33.834-.897.834-1.539a1.846 1.846 0 0 0-1.844-1.842z" style="color:#000;font-style:normal;font-variant:normal;font-weight:400;font-stretch:normal;font-size:medium;line-height:normal;font-family:sans-serif;font-variant-ligatures:normal;font-variant-position:normal;font-variant-caps:normal;font-variant-numeric:normal;font-variant-alternates:normal;font-variant-east-asian:normal;font-feature-settings:normal;font-variation-settings:normal;text-indent:0;text-align:start;text-decoration:none;text-decoration-line:none;text-decoration-style:solid;text-decoration-color:#000;letter-spacing:normal;word-spacing:normal;text-transform:none;writing-mode:lr-tb;direction:ltr;text-orientation:mixed;dominant-baseline:auto;baseline-shift:baseline;text-anchor:start;white-space:normal;shape-padding:0;shape-margin:0;inline-size:0;clip-rule:nonzero;display:inline;overflow:visible;visibility:visible;isolation:auto;mix-blend-mode:normal;color-interpolation:sRGB;color-interpolation-filters:linearRGB;solid-color:#000;solid-opacity:1;vector-effect:none;fill:#19558a;fill-opacity:1;fill-rule:nonzero;stroke:none;stroke-width:.529167;stroke-linecap:round;stroke-linejoin:round;stroke-miterlimit:4;stroke-dasharray:none;stroke-dashoffset:0;stroke-opacity:1;color-rendering:auto;image-rendering:auto;shape-rendering:auto;text-rendering:auto;enable-background:accumulate;stop-color:#000" transform="matrix(1.25804 0 0 1.25804 39.011 -313.324)"/><path d="M-22.089 256.356c-.07 0-.136.029-.185.078l-.435.453a.265.265 0 0 1 .246-.065c.391.094.544.268.725.481.181.213.28.435.395.629a.271.271 0 0 1 .017.035c.246.604.287 1.273.112 1.879a.265.265 0 0 0 .372-.111c.346-.702.295-1.47-.009-2.216a.271.271 0 0 0-.017-.035c-.115-.194-.196-.407-.377-.62-.181-.213-.387-.406-.779-.5a.21.21 0 0 0-.065-.008z" style="color:#000;font-style:normal;font-variant:normal;font-weight:400;font-stretch:normal;font-size:medium;line-height:normal;font-family:sans-serif;font-variant-ligatures:normal;font-variant-position:normal;font-variant-caps:normal;font-variant-numeric:normal;font-variant-alternates:normal;font-variant-east-asian:normal;font-feature-settings:normal;font-variation-settings:normal;text-indent:0;text-align:start;text-decoration:none;text-decoration-line:none;text-decoration-style:solid;text-decoration-color:#000;letter-spacing:normal;word-spacing:normal;text-transform:none;writing-mode:lr-tb;direction:ltr;text-orientation:mixed;dominant-baseline:auto;baseline-shift:baseline;text-anchor:start;white-space:normal;shape-padding:0;shape-margin:0;inline-size:0;clip-rule:nonzero;display:inline;overflow:visible;visibility:visible;isolation:auto;mix-blend-mode:normal;color-interpolation:sRGB;color-interpolation-filters:linearRGB;solid-color:#000;solid-opacity:1;vector-effect:none;fill:#97bed3;fill-opacity:1;fill-rule:nonzero;stroke:none;stroke-width:.529167;stroke-linecap:round;stroke-linejoin:round;stroke-miterlimit:4;stroke-dasharray:none;stroke-dashoffset:0;stroke-opacity:1;color-rendering:auto;image-rendering:auto;shape-rendering:auto;text-rendering:auto;enable-background:accumulate;stop-color:#000" transform="matrix(1.25804 0 0 1.25804 39.011 -313.324)"/><path d="m-23.037 258.149 1.265-1.266a.265.265 0 0 1 .207-.078 1.742 1.742 0 0 1 .52.197 1.921 1.921 0 0 0-.164-.228c-.181-.213-.463-.263-.855-.357a.21.21 0 0 0-.065-.008c-.07 0-.136.029-.185.078l-1.253 1.132a.265.265 0 0 0-.075.205c.015.226.053.487.197.73" style="color:#000;font-style:normal;font-variant:normal;font-weight:400;font-stretch:normal;font-size:medium;line-height:normal;font-family:sans-serif;font-variant-ligatures:normal;font-variant-position:normal;font-variant-caps:normal;font-variant-numeric:normal;font-variant-alternates:normal;font-variant-east-asian:normal;font-feature-settings:normal;font-variation-settings:normal;text-indent:0;text-align:start;text-decoration:none;text-decoration-line:none;text-decoration-style:solid;text-decoration-color:#000;letter-spacing:normal;word-spacing:normal;text-transform:none;writing-mode:lr-tb;direction:ltr;text-orientation:mixed;dominant-baseline:auto;baseline-shift:baseline;text-anchor:start;white-space:normal;shape-padding:0;shape-margin:0;inline-size:0;clip-rule:nonzero;display:inline;overflow:visible;visibility:visible;isolation:auto;mix-blend-mode:normal;color-interpolation:sRGB;color-interpolation-filters:linearRGB;solid-color:#000;solid-opacity:1;vector-effect:none;fill:#97bed3;fill-opacity:1;fill-rule:nonzero;stroke:none;stroke-width:.529167;stroke-linecap:round;stroke-linejoin:round;stroke-miterlimit:4;stroke-dasharray:none;stroke-dashoffset:0;stroke-opacity:1;color-rendering:auto;image-rendering:auto;shape-rendering:auto;text-rendering:auto;enable-background:accumulate;stop-color:#000" transform="matrix(1.25804 0 0 1.25804 39.011 -313.324)"/><path d="M-29.242 249.828a.857.857 0 0 0-.606 1.463l4.113 4.115c-.672.264-1.41.715-1.968 1.49-.662.92-1.05 2.278-.803 4.233a.265.265 0 0 0 .002.014s.23 1.278 1.266 2.544 2.898 2.529 6.076 2.545c.003 0 1.751.02 3.525-.915 1.776-.936 3.582-2.868 3.664-6.62a.265.265 0 0 0 0-.017c-.171-3.419-1.642-5.404-3.2-6.494-1.56-1.09-3.151-1.309-3.739-1.29a.265.265 0 0 0-.008 0c-.957.056-1.565.31-1.918.702-.353.391-.408.888-.35 1.306.047.338.128.757.135 1.123.008.367-.065.638-.213.754-.018.015-.039.028-.059.041a6.115 6.115 0 0 0-.485-.346l-.055-.035a.265.265 0 0 0-.165-.04.265.265 0 0 0-.095.027l-.084.043a.646.646 0 0 0-.023.012l-4.405-4.403a.858.858 0 0 0-.605-.252zm0 .53c.084 0 .167.03.232.095l4.323 4.324a2.79 2.79 0 0 0-.464.462l-4.324-4.321a.325.325 0 0 1-.095-.233.324.324 0 0 1 .328-.328zm8.351 1.066c.407-.012 1.975.188 3.415 1.195 1.44 1.008 2.805 2.805 2.972 6.078-.082 3.58-1.735 5.284-3.379 6.15-1.646.868-3.275.856-3.275.856a.265.265 0 0 0-.002 0c-3.04-.015-4.719-1.19-5.67-2.352-.95-1.16-1.152-2.294-1.152-2.298-.232-1.85.134-3.048.709-3.846.49-.68 1.142-1.08 1.747-1.315a.265.265 0 0 0 .04.17l.035.055a6.116 6.116 0 0 0 1.821 1.84c.022.192.068.4.185.598a.265.265 0 0 0 .001.004c.336.55.856.692 1.26.777.405.086.682.127.885.43a.265.265 0 0 0 .457-.031c.346-.702.349-1.55.045-2.297a.265.265 0 0 0-.017-.035c-.115-.194-.214-.416-.395-.63a1.525 1.525 0 0 0-.753-.461 6.114 6.114 0 0 0-.953-1.137c.337-.285.4-.736.391-1.157-.008-.432-.097-.874-.14-1.188-.045-.323-.006-.626.219-.876s.68-.478 1.554-.53zm1.075 1.01a1.848 1.848 0 0 0-1.844 1.843c0 1.016.829 1.844 1.844 1.844a1.848 1.848 0 0 0 1.843-1.844 1.848 1.848 0 0 0-1.843-1.843zm0 .529c.729 0 1.314.585 1.314 1.314a1.31 1.31 0 0 1-1.314 1.315 1.31 1.31 0 0 1-1.315-1.315c0-.729.586-1.314 1.315-1.314zm-4.207 2.03a5.577 5.577 0 0 1 1.543 1.542l-.914.91a5.576 5.576 0 0 1-1.54-1.539 2.25 2.25 0 0 1 .91-.914zm6.79.886a1.848 1.848 0 0 0-1.843 1.844c0 1.015.828 1.844 1.843 1.844a1.848 1.848 0 0 0 1.844-1.844 1.848 1.848 0 0 0-1.844-1.844zm0 .53c.73 0 1.315.585 1.315 1.314a1.31 1.31 0 0 1-1.315 1.314 1.31 1.31 0 0 1-1.314-1.314c0-.73.585-1.315 1.314-1.315zm-4.805.43c.208.07.328.16.427.276.113.133.202.319.324.528.21.522.14 1.085-.025 1.586-.262-.153-.52-.36-.764-.41-.388-.082-.674-.147-.912-.534a1.017 1.017 0 0 1-.11-.386zm-3.663.907a1.848 1.848 0 0 0-1.844 1.844c0 1.015.829 1.842 1.844 1.842a1.844 1.844 0 0 0 1.841-1.842 1.846 1.846 0 0 0-1.841-1.844zm0 .53c.729 0 1.314.585 1.314 1.314a1.31 1.31 0 0 1-1.314 1.314 1.31 1.31 0 0 1-1.314-1.314c0-.73.585-1.315 1.314-1.315zm7.32 1.91a1.848 1.848 0 0 0-1.844 1.843c0 1.016.83 1.844 1.844 1.844a1.848 1.848 0 0 0 1.844-1.844 1.848 1.848 0 0 0-1.844-1.843zm0 .529c.73 0 1.314.585 1.314 1.314a1.31 1.31 0 0 1-1.314 1.315 1.31 1.31 0 0 1-1.314-1.315c0-.729.585-1.314 1.314-1.314zm-4.451.476a1.844 1.844 0 0 0-1.842 1.842c0 1.015.827 1.844 1.842 1.844a1.848 1.848 0 0 0 1.844-1.844 1.846 1.846 0 0 0-1.844-1.842zm0 .528c.729 0 1.314.585 1.314 1.314a1.31 1.31 0 0 1-1.314 1.315 1.31 1.31 0 0 1-1.314-1.315c0-.729.585-1.314 1.314-1.314z" style="color:#000;font-style:normal;font-variant:normal;font-weight:400;font-stretch:normal;font-size:medium;line-height:normal;font-family:sans-serif;font-variant-ligatures:normal;font-variant-position:normal;font-variant-caps:normal;font-variant-numeric:normal;font-variant-alternates:normal;font-variant-east-asian:normal;font-feature-settings:normal;font-variation-settings:normal;text-indent:0;text-align:start;text-decoration:none;text-decoration-line:none;text-decoration-style:solid;text-decoration-color:#000;letter-spacing:normal;word-spacing:normal;text-transform:none;writing-mode:lr-tb;direction:ltr;text-orientation:mixed;dominant-baseline:auto;baseline-shift:baseline;text-anchor:start;white-space:normal;shape-padding:0;shape-margin:0;inline-size:0;clip-rule:nonzero;display:inline;overflow:visible;visibility:visible;opacity:1;isolation:auto;mix-blend-mode:normal;color-interpolation:sRGB;color-interpolation-filters:linearRGB;solid-color:#000;solid-opacity:1;vector-effect:none;fill:#000;fill-opacity:1;fill-rule:nonzero;stroke:none;stroke-width:.529167;stroke-linecap:round;stroke-linejoin:round;stroke-miterlimit:4;stroke-dasharray:none;stroke-dashoffset:0;stroke-opacity:1;color-rendering:auto;image-rendering:auto;shape-rendering:auto;text-rendering:auto;enable-background:accumulate;stop-color:#000;stop-opacity:1" transform="matrix(1.25804 0 0 1.25804 39.011 -313.324)"/></g></svg>