<svg xmlns="http://www.w3.org/2000/svg" width="1608" height="1706.667" version="1.0" viewBox="0 0 1206 1280"><g fill="#21A8F4"><path d="M974.3 96.1c-25.2 2.4-44.8 19.7-49.9 43.9-1.9 9.3-.8 19.3 3.5 31.4 1.5 4.4 3.1 9 3.5 10.1.4 1.1-.1.6-1.1-1.2l-1.8-3.2.3 11.2c.3 11.6 2.1 27.4 4.6 41.2.9 4.4 1.6 9.6 1.6 11.5v3.5l2.1-2.5c3.9-4.7.6.5-5.7 9.1-8.3 11.2-10.8 16.8-10.8 24 .1 9.9 5.7 18.1 15.9 23.3 5.5 2.8 5.5 3.4-.1 1.1-1.9-.8-3.2-1-2.9-.5.7 1.2-1.5 8-2.6 8-.4 0-.5.9-.2 2s.1 2-.5 2c-.5 0-1.5 1.2-2.1 2.7-1.2 2.9-7.2 7.6-9.7 7.6-.7 0-1.4.3-1.4.7 0 .3-1 .7-2.2.8-7.4.5-15.1.4-20.8-.1-3.6-.4-9.4-.9-12.9-1.2-3.5-.3-8-.7-10-1l-3.6-.5 3.5 1.1c1.9.5 5.2 1.5 7.4 2 2.1.6 3.6 1.2 3.4 1.4-.2.2-2.8-.2-5.8-1-19.5-5.2-44.7-1.7-66.3 9.1-28.5 14.2-48.4 34.1-83.2 83.3-7.9 11.3-18.6 25.9-23.7 32.5-10.4 13.4-28.2 31.9-37.3 38.7-7.7 5.8-9.9 7-5.5 3l3.5-3.2-6 .5c-6.8.6-20.6-1-25-2.9-1.6-.7-4.9-1.8-7.2-2.4-2.4-.7-4.3-1.6-4.3-2.1 0-.6-.6-1-1.3-1-1.9 0-11.9-9.9-13.7-13.5-.8-1.7-1.8-3.2-2.1-3.5-.3-.3-1.4-3.5-2.4-7.3-1.4-5.4-1.7-8.7-1.2-16.6.7-10.2 1.9-14.7 6.4-24.1 2.4-4.9 11.7-19.7 13.2-21 .4-.3 2.2-2.5 4.1-5 1.9-2.5 4.1-5.2 5-6 .8-.8 4-4.4 7-8 3-3.6 6.1-7.2 7-8 .9-.8 3.1-3.5 5-6s4.3-5.4 5.3-6.5c4-4.4 13.7-19.5 17.9-28 9.7-19.3 13.8-36.6 13.8-58.1 0-29.9-8.8-55.6-27.4-79.9-4.1-5.4-19.1-20.3-24.1-24-2.2-1.7-4.6-3.6-5.3-4.3-.7-.6-1.7-1.2-2.2-1.2-.5 0-1.5-.6-2.2-1.3-.7-.7-4.4-3-8.3-5.1-3.8-2.1-8.8-4.9-11-6.1-2.2-1.3-7.6-3.5-12-5s-8.9-3.1-10-3.6c-5.8-2.5-44-9.7-45.2-8.5-.2.2 1.9.9 4.7 1.6 2.8.7 4.9 1.4 4.7 1.7-.3.2-4-.5-8.3-1.6-12.9-3.2-21.4-4.1-38.7-4.1-12.1 0-19.7.6-28.8 2.1-22.5 3.8-48.4 13.9-67.4 26.3-4.7 3.1-8.5 5.3-8.5 5.1 0-.3 3.2-2.6 7-5.1 7.2-4.8 9.6-7.1 3.8-3.6-1.8 1-6.9 3.9-11.3 6.3-19.8 10.7-35.2 24.2-46.9 41.3-5.9 8.6-15.5 28.2-19 39-3.2 9.6-3.2 10.4-.1 4.6 2.8-5.3 3.4-4.6.6.8-3.4 6.7-10.9 29.6-13.5 41.3-3.9 17.6-5.7 33.7-5.7 52.6-.1 19.4.4 25.4 3.3 43.2 8.2 51 33.5 100.5 70 137.1 31.9 32 64.5 51.1 114.2 66.9 17.1 5.4 24.7 10.1 33.4 20.5 7.7 9.1 8.6 12 8.5 26.6 0 6.3-.6 10-2.2 14.2-1.2 3.2-2.6 5.8-2.9 5.8-.4 0-1.3 1.2-2 2.7-1.5 3.2-11.3 11.3-13.6 11.3-.9 0-1.6.4-1.6.9s-3.4 1.7-7.6 2.7c-9.4 2-22 1.4-31.3-1.6-3.5-1.1-7-2-7.7-2-.8 0-1.4-.5-1.4-1 0-.6-.4-1-.9-1-3 0-16.8-7.9-24.7-14.1-6.1-4.9-21.1-20.4-25.8-26.8-1.4-1.8-3.4-4.2-4.5-5.2s-3.4-4-5.2-6.6c-1.8-2.7-3.9-5.4-4.6-6.1-.7-.7-1.3-1.7-1.3-2.2 0-.5-1-1.9-2.3-3.2-1.2-1.3-3.8-4.3-5.7-6.8-5.5-7.1-7.1-8.9-13.9-16.4-8.8-9.6-8.8-9.6-15.7-14.3-10.4-7.1-21.6-12-39.9-17.4-1.6-.4-7.9-1.6-13.9-2.5-6-.9-12.1-2-13.4-2.5-4.3-1.6-3.4-.3 2.3 3.5 3 2 5.5 3.9 5.5 4.2 0 .3-1.9-.8-4.2-2.4-15.9-10.9-35.6-17.2-53.6-17.2-19.5.1-34.8 5.8-47.7 18.1-12.4 11.8-18.4 26.8-17.1 42.9 1.7 22.2 15.2 41.8 39.9 58 5.1 3.4 21.8 12.3 37.2 19.9 38.1 18.9 50.9 27.6 62.1 42.4 10 13.3 14.4 27 14.4 45.1 0 18.2-5.7 35.4-17.4 52.5-15.4 22.6-34.4 38.5-76.6 64.3-35.5 21.8-45.6 28.6-61 41.6-23.9 20-39.3 43.6-44.5 68.5-1.9 8.8-1.9 26.4 0 34.5 6 25.6 23.9 44 50.1 51.3 6.3 1.9 10.4 2.3 20.4 2.3 14.3-.1 26.4-2.7 39.5-8.8 7.9-3.7 10.3-4.1 3.5-.6-2.2 1.1-4 2.3-4 2.6 0 .2.8.1 1.8-.4.9-.5 4.6-1.2 8.2-1.6 15.9-1.6 33.2-9.1 49.7-21.5 12.1-9.1 26.5-23.8 35.1-36 2.5-3.6 4.9-6.8 5.2-7.1 1.4-1.1 8.8-12.9 11.9-19 1.9-3.6 4.2-7.6 5.1-9 .9-1.4 8.1-15.3 16-31 7.8-15.7 14.6-29 15-29.5.4-.6 2.3-3.7 4-7 1.8-3.3 4.1-6.9 5.1-8.1 1.1-1.1 1.9-2.6 1.9-3.2 0-.7.3-1.2.8-1.2.4 0 1.8-1.7 3.2-3.8 10.4-15.6 34.5-35.3 55-45 14-6.6 33.2-10.8 45.9-9.9 5.5.3 6.7.9 13.6 6.2 17.2 13.1 34.3 36.2 44.1 59.5 9 21.4 15.3 45.9 25.8 99.5 9.6 48.8 15.1 67.5 27.2 92 18.3 37.1 46.5 61.8 80 70.2 4.9 1.2 10.9 1.7 20.4 1.7 11.7-.1 14.7-.4 22.3-2.8 9.8-2.9 14.9-5.3 21.7-10 2.5-1.7 5-3.1 5.5-3.2 4.7-.4 18.3-5.2 22.7-8.1 2.1-1.2 4-2.3 4.4-2.3.8 0 7.9-5.4 11.7-8.9 5.1-4.7 11.5-13.7 15.5-21.7 7.4-14.8 9.7-24.9 9.7-42.9 0-24.5-5.6-45.7-19.5-74-7.1-14.4-11.1-21.8-23.1-42.5-18.5-32.1-28.1-53.7-33-74.5-3.1-13.4-3.1-34.8.1-47.6 1.8-7.3 9.1-24.5 10.9-25.9.4-.3 1.8-2.1 3.1-4 2.9-4.2 10.6-12 11.8-12 .4 0 1.8-.9 3-2 1.2-1.2 2.2-1.9 2.2-1.6 0 .3 2-.4 4.4-1.5 6.4-2.8 19.3-3.4 30.8-1.5 9.3 1.6 28.2 7.1 30.5 8.8.7.5 2.2 1.1 3.5 1.2 1.3.2 9.7 5.2 18.8 11.3 28.4 18.9 41.3 25.9 58.5 31.7 28.7 9.6 58.9 6.6 77.8-7.8 2.6-2 5.1-3.5 5.5-3.3 1 .3 16.7-13 21.2-17.9 12.2-13.3 17.6-29.7 14.9-45.3-.7-4.2-2-9.6-3-12.1-.9-2.5-2.3-6.1-3.1-8-.7-1.9-1.6-3.7-1.9-4-.3-.3-1.2-1.6-1.9-2.9-2.1-4.1-13.8-16.7-19.9-21.4-7.1-5.6-19.1-12.2-29.2-16.1-14.6-5.6-41.6-11.3-62.4-13.1-3.3-.3-7.3-.8-9-1-1.6-.3-5.2-.7-8-.9-10.7-1-24.3-2.8-30.5-4.1-17.5-3.6-22.1-4.8-29.5-7.6-11-4.1-15.8-6.5-24.4-12.2-7.6-5.1-19.8-16.5-24.1-22.7-1.3-1.9-2.7-3.7-3-4-.9-.8-6.3-10.1-7.7-13.4-8.5-19.3-9.4-36-3-58.1 3.7-12.9 15.1-27.8 29.2-38.2 5.5-4.1 10.8-8.1 11.8-8.9.9-.8 1.9-1.4 2.1-1.4.3 0 10.3-5.5 18.1-10 2.2-1.2 7.6-4.2 12-6.5 17.6-9.3 24-12.9 24.3-13.7.2-.4.9-.8 1.5-.8 2.2 0 13-7.8 22.1-16 21.6-19.4 30.5-35.7 33.5-61 .6-4.7 1.3-10.8 1.6-13.5.4-2.8.6-5.5.6-6 0-.6 0-2.8-.1-5-.1-3.8.2-6.4 1.6-13 .4-1.7 1.7-4.4 3-6.2 1.3-1.7 2.4-3.5 2.4-4 0-.4.8-1.3 1.8-1.9 4.1-2.6 14.4-8.1 23.7-12.7 37.3-18.6 62.6-45.7 72.1-77 3.6-11.9 8.2-31.1 9.3-39.2 2.7-18.1.5-37.5-5.8-52.7-3.3-7.7-12.7-23.1-11.6-18.8.3 1.4-.7.2-2.2-2.5-10-17.6-21.9-29.2-37.4-36.5-11.3-5.2-22.1-7.1-34.6-5.9zM551.5 133c1.3.6 1.5.9.5.9-.8 0-2.2-.4-3-.9-1.8-1.2-.2-1.2 2.5 0zm8.5 3c.8.5 1.1 1 .5 1-.5 0-1.7-.5-2.5-1s-1-1-.5-1c.6 0 1.7.5 2.5 1zm-166 24.4c0 .2-.8 1-1.7 1.7-1.6 1.3-1.7 1.2-.4-.4 1.3-1.6 2.1-2.1 2.1-1.3zm-4 2.9c0 .2-1 1.2-2.2 2.3l-2.3 1.9 1.9-2.3c1.8-2.1 2.6-2.7 2.6-1.9zM886 326c.8.5 1.1 1 .5 1-.5 0-1.7-.5-2.5-1s-1-1-.5-1c.6 0 1.7.5 2.5 1zM543.2 628.4c1 3.8 1.8 8.3 1.7 10 0 1.8-.6.1-1.4-3.9-.7-3.9-2-9-2.9-11.4-1.9-5.1-2-6.4-.4-3.6.6 1 2 5.1 3 8.9zm1.5 23.3c-.3 1-.5.4-.5-1.2 0-1.7.2-2.4.5-1.8.2.7.2 2.1 0 3zm340.6 19c-1.8.2-4.8.2-6.5 0-1.8-.2-.4-.4 3.2-.4s5 .2 3.3.4zm21 1c-2.3.2-6.4.2-9 0-2.6-.2-.7-.3 4.2-.3 5 0 7.1.1 4.8.3zm25.8 2.3c3.9 1-4.3.4-15.1-1-5.8-.8-5.5-.8 2.6-.3 5 .2 10.6.9 12.5 1.3zm8.7 1.7c-1 .2-2.6.2-3.5 0-1-.3-.2-.5 1.7-.5s2.7.2 1.8.5zm4.9.9c-.3.3-1.2.4-1.9.1-.8-.3-.5-.6.6-.6 1.1-.1 1.7.2 1.3.5zm5.6 1.1c-.7.2-2.1.2-3 0-1-.3-.4-.5 1.2-.5 1.7 0 2.4.2 1.8.5zm7.4 1.9c-.3.3-1.2.4-1.9.1-.8-.3-.5-.6.6-.6 1.1-.1 1.7.2 1.3.5zM859 779.7c0 .7-6.1-3.1-7.3-4.6-.7-.8.7-.2 3.1 1.4 2.3 1.5 4.2 3 4.2 3.2zm171.3 20.4c-1 1.8-3.7 5.2-6.1 7.8l-4.3 4.6 4.5-5.7c2.5-3.2 5-6.7 5.6-7.8.6-1.1 1.3-2 1.6-2 .3 0-.3 1.4-1.3 3.1zm-523.2 24c3.4 1.7 5.9 3.2 5.7 3.5-.3.2-3.3-1.2-6.9-3.1-7.9-4.3-7-4.6 1.2-.4zM776 1136.5c-2.4 2.5-4.6 4.5-4.9 4.5-.3 0 1.5-2 3.9-4.5s4.6-4.5 4.9-4.5c.3 0-1.5 2-3.9 4.5z"/><path d="M528.8 126.7c.7.3 1.6.2 1.9-.1.4-.3-.2-.6-1.3-.5-1.1 0-1.4.3-.6.6zM532.8 127.7c.6.2 1.8.2 2.5 0 .6-.3.1-.5-1.3-.5-1.4 0-1.9.2-1.2.5zM324.6 248.7c-.6 1.4-.5 1.5.5.6.7-.7 1-1.5.7-1.8-.3-.3-.9.2-1.2 1.2zM94.1 253.1c-26.8 7-47.9 29-55.2 57.4-2.8 11.2-2.8 29 0 40.6 7.9 31.6 32.5 54.8 63.1 59.4 4.7.7 7.2 1.3 5.5 1.4-2.8.2-2.6.4 2.6 2.9 34.2 17 72.4 5.5 91.2-27.6 20.7-36.1 9.5-80.1-27-106.6-4.7-3.3-6.7-3.8-4.5-1 .4.5-1.5-1.5-4.2-4.4-9.6-10.4-25.8-19.9-39.1-22.7-9.7-2-23.4-1.8-32.4.6z"/></g></svg>