<svg xmlns="http://www.w3.org/2000/svg" width="110" height="40" fill="none" viewBox="0 0 73 18"><path fill="#21A8F4" d="M16.38.006c-.44.04-.783.334-.872.744-.033.158-.014.327.061.533l.061.17c.007.02-.002.011-.019-.02l-.031-.054.005.19c.005.197.036.465.08.699.016.074.028.162.028.195v.059l.037-.042c.068-.08.01.008-.1.154-.145.19-.188.285-.188.407.001.168.1.307.277.395.096.047.096.057-.001.018-.034-.013-.056-.016-.051-.008.012.02-.026.136-.046.136-.007 0-.008.015-.003.034.005.018.002.033-.009.033-.008 0-.026.02-.036.046-.021.05-.126.13-.17.13-.012 0-.024.004-.024.011 0 .005-.018.012-.039.014-.13.008-.264.006-.363-.002a11.084 11.084 0 0 0-.226-.02 4.007 4.007 0 0 1-.174-.017l-.063-.009.061.019c.033.008.09.025.13.034.036.01.062.02.059.023a.353.353 0 0 1-.102-.017c-.34-.088-.78-.028-1.158.155-.498.24-.846.578-1.454 1.412-.138.192-.325.44-.414.551-.181.227-.492.54-.651.656-.135.099-.173.119-.097.051l.062-.054-.105.008a1.38 1.38 0 0 1-.437-.049 1.075 1.075 0 0 0-.126-.04c-.042-.012-.075-.028-.075-.036 0-.01-.01-.017-.023-.017-.033 0-.208-.168-.24-.229a.299.299 0 0 0-.036-.06.675.675 0 0 1-.042-.123.731.731 0 0 1-.02-.282.897.897 0 0 1 .111-.408c.042-.083.205-.334.23-.356a.919.919 0 0 0 .072-.085c.034-.042.072-.088.088-.102.014-.013.07-.074.122-.135.053-.061.107-.122.122-.136.016-.014.055-.06.088-.102a3.038 3.038 0 0 0 .405-.585c.17-.327.241-.62.241-.985 0-.507-.153-.942-.478-1.354a3.618 3.618 0 0 0-.514-.48c-.012-.01-.03-.02-.039-.02-.008 0-.026-.01-.038-.023a1.065 1.065 0 0 0-.145-.086L9.919.843a1.493 1.493 0 0 0-.21-.084 3.57 3.57 0 0 1-.175-.061c-.101-.043-.768-.165-.79-.144-.003.003.034.015.083.027s.085.023.082.028a.713.713 0 0 1-.145-.027 2.487 2.487 0 0 0-.676-.07c-.212 0-.345.011-.503.036a3.374 3.374 0 0 0-1.178.446 1.14 1.14 0 0 1-.149.087c0-.005.056-.044.123-.087.125-.081.167-.12.066-.06l-.197.106c-.346.182-.615.41-.82.7-.103.146-.27.478-.332.662-.056.162-.056.176-.001.078.048-.09.059-.078.01.013-.06.114-.19.502-.236.7-.068.299-.1.572-.1.892-.001.33.008.43.058.733a4.275 4.275 0 0 0 1.223 2.324c.558.543 1.127.867 1.995 1.134.3.092.432.172.584.348.135.154.15.203.149.451a.598.598 0 0 1-.09.34c-.007 0-.022.02-.034.045-.027.054-.198.191-.238.191-.016 0-.028.007-.028.016 0 .008-.06.029-.133.046a1.195 1.195 0 0 1-.547-.028.966.966 0 0 0-.134-.034c-.014 0-.025-.008-.025-.017 0-.01-.007-.016-.015-.016-.053 0-.294-.134-.432-.24a3.879 3.879 0 0 1-.45-.454.904.904 0 0 0-.08-.088.892.892 0 0 1-.09-.112.967.967 0 0 0-.08-.103c-.013-.012-.023-.03-.023-.038s-.018-.032-.04-.054a1.887 1.887 0 0 1-.1-.115 3.59 3.59 0 0 0-.243-.278c-.154-.163-.154-.163-.274-.243-.182-.12-.378-.203-.697-.295a3.938 3.938 0 0 0-.243-.042 2.215 2.215 0 0 1-.234-.043c-.075-.027-.06-.005.04.06a.513.513 0 0 1 .096.071c0 .005-.033-.014-.073-.04a1.746 1.746 0 0 0-.937-.292c-.34.001-.608.098-.833.307a.874.874 0 0 0-.3.727c.03.376.266.709.698.983.09.058.38.209.65.338.666.32.89.468 1.085.719.175.225.252.457.252.764 0 .309-.1.6-.304.89-.27.384-.601.653-1.339 1.09-.62.37-.796.486-1.066.706-.417.339-.686.74-.777 1.161a1.73 1.73 0 0 0 0 .585c.105.434.418.746.875.87.11.032.182.039.357.039a1.62 1.62 0 0 0 .69-.15c.138-.062.18-.069.061-.01a.222.222 0 0 0-.07.045c0 .003.014.001.032-.007a.649.649 0 0 1 .143-.027c.278-.027.58-.154.868-.365.212-.154.463-.403.613-.61.044-.061.086-.115.091-.12.025-.02.154-.22.208-.323.033-.06.074-.128.09-.152.015-.024.14-.26.279-.526.136-.266.255-.492.262-.5.007-.01.04-.063.07-.119.031-.056.071-.117.089-.137.02-.019.033-.044.033-.054 0-.012.005-.02.014-.02.007 0 .032-.03.056-.065.182-.265.603-.599.96-.763.246-.112.581-.183.803-.168.096.005.117.015.238.105.3.222.599.614.77 1.01.157.362.267.777.45 1.686.169.828.265 1.145.476 1.56.32.629.813 1.048 1.398 1.19.085.02.19.029.356.029.205-.002.257-.007.39-.047.171-.05.26-.09.379-.17a.582.582 0 0 1 .096-.054c.082-.007.32-.088.397-.138.036-.02.07-.039.077-.039.014 0 .138-.091.204-.15.09-.08.2-.233.27-.368.13-.251.17-.423.17-.728 0-.415-.098-.775-.34-1.254a9.901 9.901 0 0 0-.404-.721c-.323-.544-.491-.91-.577-1.263a1.992 1.992 0 0 1 .002-.807c.032-.124.16-.416.19-.44a.512.512 0 0 0 .055-.067c.05-.071.185-.204.206-.204a.153.153 0 0 0 .052-.034c.021-.02.039-.032.039-.027 0 .005.035-.006.077-.025.111-.048.337-.058.538-.026.162.028.492.12.533.15a.143.143 0 0 0 .06.02c.024.003.17.088.33.192.495.32.72.439 1.021.537.502.163 1.03.112 1.36-.132.045-.034.089-.06.096-.056.017.005.291-.22.37-.304.213-.225.308-.503.26-.768a1.218 1.218 0 0 0-.106-.34.31.31 0 0 0-.033-.068 1.934 1.934 0 0 0-.38-.412 2.233 2.233 0 0 0-.511-.273 4.866 4.866 0 0 0-1.09-.222c-.058-.005-.128-.014-.158-.017a1.646 1.646 0 0 0-.14-.016 6.252 6.252 0 0 1-.533-.07c-.305-.06-.386-.08-.515-.128a1.756 1.756 0 0 1-.426-.207 2.065 2.065 0 0 1-.474-.452 1.627 1.627 0 0 1-.134-.228c-.149-.327-.165-.61-.053-.985.065-.218.264-.471.51-.647l.207-.151a.123.123 0 0 1 .036-.024c.006 0 .18-.093.317-.17l.21-.11c.307-.157.419-.219.424-.232.003-.007.016-.014.026-.014.039 0 .227-.132.386-.27.378-.33.533-.606.585-1.035a15.13 15.13 0 0 0 .039-.33c0-.011 0-.048-.002-.086a.802.802 0 0 1 .028-.22.347.347 0 0 1 .052-.105.228.228 0 0 0 .043-.068c0-.007.013-.022.03-.032.073-.044.252-.137.415-.215.652-.316 1.094-.775 1.26-1.306.063-.202.143-.527.162-.665a1.696 1.696 0 0 0-.101-.893c-.058-.13-.222-.392-.203-.319.005.024-.012.004-.038-.042-.175-.299-.383-.495-.654-.62a1.153 1.153 0 0 0-.604-.1ZM8.993.632c.022.01.026.015.008.015A.123.123 0 0 1 8.95.632c-.031-.02-.003-.02.044 0Zm.148.05c.014.009.02.017.009.017a.121.121 0 0 1-.044-.017C9.092.674 9.09.665 9.098.665c.01 0 .03.009.043.017Zm-2.9.414c0 .003-.014.017-.03.029-.028.022-.03.02-.007-.007s.037-.035.037-.022Zm-.07.05c0 .003-.017.02-.038.038l-.04.032.033-.039c.031-.035.045-.045.045-.032Zm8.666 2.758c.014.008.02.017.009.017a.12.12 0 0 1-.044-.017c-.014-.009-.017-.017-.009-.017.01 0 .03.008.044.017ZM8.847 9.03c.018.064.032.14.03.17 0 .03-.01.001-.024-.067a1.345 1.345 0 0 0-.05-.193c-.034-.086-.036-.108-.008-.061.01.017.035.086.053.15Zm.027.395c-.005.017-.009.007-.009-.02 0-.03.004-.041.009-.03a.125.125 0 0 1 0 .05Zm5.95.322a.636.636 0 0 1-.113 0c-.031-.003-.007-.007.056-.007s.088.004.058.007Zm.368.017c-.04.003-.112.003-.158 0-.045-.003-.012-.005.074-.005.087 0 .124.002.084.005Zm.45.039c.069.017-.075.007-.263-.017-.102-.013-.096-.013.045-.005.087.003.185.015.219.022Zm.152.029a.185.185 0 0 1-.06 0c-.018-.005-.004-.009.029-.009s.047.004.031.009Zm.086.015c-.005.005-.02.007-.033.002-.014-.005-.009-.01.01-.01.02-.002.03.003.023.008Zm.098.019a.136.136 0 0 1-.053 0c-.017-.005-.007-.009.021-.009.03 0 .042.004.032.009Zm.13.032c-.006.005-.022.007-.034.002-.014-.005-.009-.01.01-.01.02-.002.03.003.023.008Zm-1.743 1.697c0 .012-.106-.052-.127-.078-.012-.013.012-.003.054.024a.39.39 0 0 1 .073.054Zm2.993.346a.903.903 0 0 1-.106.132l-.075.078.078-.096c.044-.055.088-.114.098-.133.01-.018.023-.034.028-.034.005 0-.005.024-.023.053Zm-9.141.407c.06.029.103.054.1.06a.512.512 0 0 1-.121-.053c-.138-.073-.122-.078.021-.007Zm4.698 5.297a.523.523 0 0 1-.085.076.398.398 0 0 1 .068-.076.529.529 0 0 1 .085-.077.394.394 0 0 1-.068.077Z"/><path fill="#21A8F4" d="M8.596.525c.012.005.028.003.033-.002.007-.005-.003-.01-.022-.009-.02 0-.025.005-.01.01ZM8.666.542c.01.003.031.003.043 0 .01-.006.002-.01-.022-.01-.025 0-.033.004-.021.01ZM5.028 2.593c-.01.024-.008.026.01.01.011-.012.016-.025.011-.03-.005-.005-.015.003-.02.02ZM1.001 2.668a1.351 1.351 0 0 0-.964.973c-.05.19-.05.492 0 .688.138.536.568.93 1.102 1.007.082.012.126.022.096.024-.049.004-.045.007.046.05.597.288 1.265.093 1.593-.469.362-.612.166-1.358-.472-1.807-.082-.056-.117-.064-.078-.017a1.372 1.372 0 0 1-.074-.075 1.45 1.45 0 0 0-.683-.384 1.442 1.442 0 0 0-.566.01Z"/><g filter="url(#a)"><path fill="#DAD4D4" d="M24.493 4.783a1.079 1.079 0 0 0-.439-.801c-.258-.19-.61-.286-1.053-.286a2.01 2.01 0 0 0-.762.128 1.074 1.074 0 0 0-.478.345.83.83 0 0 0-.162.503.719.719 0 0 0 .098.409c.074.116.175.217.303.303.128.082.276.154.443.217.168.06.347.11.537.153l.784.188c.38.085.73.199 1.049.34.318.143.593.317.826.525.233.207.414.452.541.733.131.281.198.603.2.967-.002.534-.139.997-.408 1.39-.268.389-.654.691-1.16.907-.502.213-1.109.32-1.82.32-.704 0-1.317-.108-1.84-.324a2.697 2.697 0 0 1-1.219-.96c-.29-.425-.442-.952-.456-1.58h1.786c.02.293.103.537.251.733.15.193.351.34.601.439.253.096.538.145.857.145.312 0 .583-.046.813-.137.233-.09.414-.217.542-.379a.876.876 0 0 0 .191-.558.726.726 0 0 0-.174-.494 1.325 1.325 0 0 0-.503-.341 5.112 5.112 0 0 0-.806-.256l-.95-.239c-.736-.179-1.317-.459-1.743-.84-.426-.38-.637-.893-.635-1.538-.003-.528.138-.99.422-1.384.287-.395.68-.704 1.18-.925.5-.222 1.069-.333 1.705-.333.648 0 1.213.111 1.696.333.486.221.864.53 1.134.925.27.394.409.852.417 1.372h-1.768ZM27.588 11V4.455h1.73v1.154h.076c.137-.383.364-.686.682-.907.319-.222.7-.333 1.142-.333.45 0 .831.113 1.147.337.315.222.525.523.63.903h.069c.133-.375.375-.674.724-.899.352-.227.769-.34 1.249-.34.61 0 1.106.194 1.487.583.383.386.575.935.575 1.645V11h-1.811V6.956c0-.364-.097-.636-.29-.818a1.016 1.016 0 0 0-.724-.273c-.33 0-.587.105-.772.315-.184.208-.277.482-.277.823V11h-1.76V6.918c0-.321-.092-.577-.276-.767-.182-.19-.422-.286-.72-.286a1 1 0 0 0-.546.153c-.16.1-.286.24-.38.422a1.34 1.34 0 0 0-.14.631V11h-1.815Zm12.812.124c-.418 0-.79-.073-1.117-.218a1.797 1.797 0 0 1-.776-.652c-.187-.29-.28-.65-.28-1.082 0-.364.066-.67.2-.916.133-.247.315-.446.545-.597.23-.15.491-.264.784-.34a5.98 5.98 0 0 1 .929-.163c.38-.04.688-.076.92-.11.233-.037.403-.091.508-.162a.356.356 0 0 0 .157-.316v-.025c0-.27-.085-.48-.255-.627-.168-.148-.407-.221-.716-.221-.327 0-.587.072-.78.217a1 1 0 0 0-.384.537l-1.679-.136c.085-.398.253-.742.503-1.032.25-.292.573-.517.967-.673.398-.16.858-.239 1.381-.239.364 0 .712.043 1.044.128.335.085.632.217.89.396.262.18.468.41.619.69.15.28.226.613.226 1.002V11h-1.722v-.908h-.051a1.848 1.848 0 0 1-.422.541 1.952 1.952 0 0 1-.635.363 2.622 2.622 0 0 1-.856.128Zm.52-1.253c.266 0 .502-.053.707-.158.204-.108.365-.253.481-.435a1.12 1.12 0 0 0 .175-.617v-.695a.972.972 0 0 1-.234.102 4.274 4.274 0 0 1-.328.081c-.123.023-.245.044-.367.064l-.332.047c-.213.031-.4.08-.559.15a.893.893 0 0 0-.37.276.675.675 0 0 0-.132.426c0 .247.09.436.268.567.182.128.412.192.69.192ZM45.493 11V4.455h1.76v1.142h.068c.12-.407.32-.713.6-.92a1.58 1.58 0 0 1 .973-.316 2.748 2.748 0 0 1 .57.064v1.61a2.376 2.376 0 0 0-.353-.068c-.15-.02-.288-.03-.413-.03-.267 0-.506.059-.716.175a1.286 1.286 0 0 0-.495.477c-.119.205-.179.44-.179.708V11h-1.815Zm8.72-6.545v1.363h-3.942V4.455h3.942Zm-3.047-1.569h1.815V8.99c0 .167.026.298.077.392.051.09.122.155.213.191a.88.88 0 0 0 .324.056c.085 0 .17-.007.256-.021.085-.018.15-.03.196-.039l.285 1.351c-.09.028-.219.061-.383.098-.165.04-.366.064-.601.072-.438.018-.821-.04-1.15-.174a1.605 1.605 0 0 1-.764-.622c-.181-.282-.27-.637-.268-1.066v-6.34Zm8.427 5.327V4.455h1.815V11h-1.743V9.811h-.068a1.933 1.933 0 0 1-.737.925c-.341.233-.757.35-1.249.35-.437 0-.822-.1-1.155-.3a2.05 2.05 0 0 1-.78-.847c-.184-.367-.278-.805-.28-1.317V4.455h1.815v3.843c.002.387.106.692.31.916.205.225.48.337.823.337.219 0 .424-.05.614-.149a1.17 1.17 0 0 0 .46-.452c.12-.199.178-.444.175-.737ZM62.86 11V4.455h1.73v1.154h.077c.136-.383.364-.686.682-.907.318-.222.699-.333 1.142-.333.449 0 .83.113 1.146.337.316.222.526.523.63.903h.069c.133-.375.375-.674.724-.899.353-.227.769-.34 1.249-.34.61 0 1.106.194 1.487.583.384.386.576.935.576 1.645V11H70.56V6.956c0-.364-.096-.636-.29-.818a1.016 1.016 0 0 0-.724-.273c-.33 0-.586.105-.771.315-.185.208-.277.482-.277.823V11h-1.76V6.918c0-.321-.092-.577-.277-.767-.182-.19-.422-.286-.72-.286a1 1 0 0 0-.546.153c-.159.1-.285.24-.379.422-.094.18-.14.39-.14.631V11H62.86Z"/></g><path fill="#21A8F4" d="M21.124 13.898v-.444h2.09v.444h-.778V16h-.532v-2.102h-.78Zm2.885 2.138a.795.795 0 0 1-.326-.063.524.524 0 0 1-.226-.19.57.57 0 0 1-.082-.316c0-.106.02-.195.058-.267a.473.473 0 0 1 .16-.174.774.774 0 0 1 .228-.1 1.75 1.75 0 0 1 .271-.047c.111-.012.2-.022.268-.032a.382.382 0 0 0 .149-.048.104.104 0 0 0 .045-.092V14.7a.229.229 0 0 0-.074-.183.306.306 0 0 0-.209-.064.37.37 0 0 0-.227.063.292.292 0 0 0-.112.157l-.49-.04a.666.666 0 0 1 .429-.497 1.225 1.225 0 0 1 .707-.032.798.798 0 0 1 .26.115.56.56 0 0 1 .246.493V16h-.502v-.265h-.015a.54.54 0 0 1-.308.264.767.767 0 0 1-.25.037Zm.151-.365a.445.445 0 0 0 .207-.046.365.365 0 0 0 .14-.127.327.327 0 0 0 .051-.18v-.203a.287.287 0 0 1-.068.03 1.268 1.268 0 0 1-.203.042l-.097.014a.653.653 0 0 0-.163.043.26.26 0 0 0-.108.081.197.197 0 0 0-.038.124c0 .072.026.128.078.166.053.037.12.056.201.056Zm3.098-1.036-.485.03a.25.25 0 0 0-.053-.112.283.283 0 0 0-.108-.08.367.367 0 0 0-.158-.032.388.388 0 0 0-.208.053c-.056.034-.084.08-.084.136 0 .046.018.084.055.116a.433.433 0 0 0 .187.076l.346.07c.185.038.324.099.415.183a.433.433 0 0 1 .137.333.52.52 0 0 1-.111.33.717.717 0 0 1-.3.221 1.145 1.145 0 0 1-.44.078c-.252 0-.454-.052-.604-.158a.615.615 0 0 1-.262-.432l.52-.027a.268.268 0 0 0 .115.176c.06.04.138.06.233.06a.414.414 0 0 0 .223-.054c.058-.036.087-.083.087-.14a.146.146 0 0 0-.06-.118.436.436 0 0 0-.184-.072l-.331-.066c-.186-.037-.325-.102-.416-.194a.481.481 0 0 1-.136-.352c0-.123.033-.228.1-.317a.64.64 0 0 1 .282-.205c.122-.048.264-.072.427-.072.241 0 .431.051.57.153.139.102.22.24.243.416Zm1.032.816.001-.636h.077l.612-.724h.607l-.821.96h-.126l-.35.4Zm-.48.549v-2.546h.53V16h-.53Zm1.193 0-.562-.832.353-.374.83 1.206h-.62Zm2.004 0v-1.91h.505v.338h.022a.53.53 0 0 1 .199-.265.568.568 0 0 1 .333-.097c.131 0 .242.033.334.098a.462.462 0 0 1 .184.264h.02a.508.508 0 0 1 .212-.263.657.657 0 0 1 .364-.099.58.58 0 0 1 .434.17c.111.113.167.273.167.48V16h-.528v-1.18c0-.106-.028-.185-.084-.238a.296.296 0 0 0-.212-.08.284.284 0 0 0-.225.092.348.348 0 0 0-.08.24V16h-.514v-1.19a.307.307 0 0 0-.08-.224.277.277 0 0 0-.21-.084.291.291 0 0 0-.16.045.307.307 0 0 0-.11.123.39.39 0 0 0-.041.184V16h-.53Zm3.912.036a.797.797 0 0 1-.326-.063.524.524 0 0 1-.226-.19.57.57 0 0 1-.082-.316c0-.106.02-.195.059-.267a.473.473 0 0 1 .159-.174.772.772 0 0 1 .228-.1c.087-.022.177-.038.271-.047.111-.012.2-.022.269-.032a.381.381 0 0 0 .148-.048.104.104 0 0 0 .046-.092V14.7a.229.229 0 0 0-.075-.183.306.306 0 0 0-.209-.064.37.37 0 0 0-.227.063.291.291 0 0 0-.112.157l-.49-.04a.665.665 0 0 1 .429-.497c.116-.047.25-.07.403-.07.106 0 .207.012.304.037a.798.798 0 0 1 .26.116.561.561 0 0 1 .246.493V16h-.502v-.265h-.015a.538.538 0 0 1-.308.264.767.767 0 0 1-.25.037Zm.152-.365a.444.444 0 0 0 .206-.046.365.365 0 0 0 .14-.127.328.328 0 0 0 .051-.18v-.203a.284.284 0 0 1-.068.03 1.268 1.268 0 0 1-.203.042l-.097.014a.654.654 0 0 0-.162.043.26.26 0 0 0-.108.081.197.197 0 0 0-.04.124c0 .072.027.128.08.166.052.037.12.056.2.056Zm2.038-.775V16h-.53v-1.91h.505v.338h.023a.533.533 0 0 1 .212-.264c.1-.065.22-.098.362-.098.133 0 .248.03.347.087.098.058.175.14.23.249a.832.832 0 0 1 .082.382V16h-.53v-1.121a.383.383 0 0 0-.09-.274.321.321 0 0 0-.249-.099.38.38 0 0 0-.189.046.32.32 0 0 0-.127.134.466.466 0 0 0-.046.21Zm2.367 1.14a.797.797 0 0 1-.325-.063.525.525 0 0 1-.226-.19.57.57 0 0 1-.082-.316c0-.106.02-.195.058-.267a.473.473 0 0 1 .16-.174.773.773 0 0 1 .228-.1 1.75 1.75 0 0 1 .27-.047c.112-.012.201-.022.27-.032a.38.38 0 0 0 .147-.048.104.104 0 0 0 .046-.092V14.7a.229.229 0 0 0-.075-.183.305.305 0 0 0-.208-.064.37.37 0 0 0-.228.063.292.292 0 0 0-.112.157l-.49-.04a.666.666 0 0 1 .43-.497 1.224 1.224 0 0 1 .707-.032.798.798 0 0 1 .26.115.561.561 0 0 1 .246.493V16h-.502v-.265h-.015a.538.538 0 0 1-.309.264.767.767 0 0 1-.25.037Zm.152-.365a.444.444 0 0 0 .206-.046.365.365 0 0 0 .14-.127.327.327 0 0 0 .052-.18v-.203a.284.284 0 0 1-.069.03 1.268 1.268 0 0 1-.202.042l-.097.014a.654.654 0 0 0-.163.043.26.26 0 0 0-.108.081.197.197 0 0 0-.038.124c0 .072.026.128.078.166.053.037.12.056.201.056Zm2.37 1.085c-.172 0-.32-.024-.442-.071a.733.733 0 0 1-.29-.19.585.585 0 0 1-.141-.271l.49-.066a.321.321 0 0 0 .198.186c.054.021.12.031.197.031.115 0 .21-.028.285-.084.075-.056.113-.149.113-.28v-.35h-.023a.502.502 0 0 1-.283.267.69.69 0 0 1-.261.045.784.784 0 0 1-.392-.1.712.712 0 0 1-.28-.307 1.175 1.175 0 0 1-.102-.524c0-.216.035-.397.105-.542a.758.758 0 0 1 .281-.326.726.726 0 0 1 .387-.108c.106 0 .196.018.268.055.072.035.13.08.174.134.045.053.08.105.103.157h.02v-.321h.526v1.928c0 .162-.04.298-.12.407a.718.718 0 0 1-.33.246c-.14.056-.301.084-.483.084Zm.01-1.181a.36.36 0 0 0 .217-.063.402.402 0 0 0 .137-.184.773.773 0 0 0 .048-.289.81.81 0 0 0-.047-.29.424.424 0 0 0-.137-.193.347.347 0 0 0-.217-.069.344.344 0 0 0-.22.071.426.426 0 0 0-.136.194.824.824 0 0 0-.046.287c0 .11.016.206.046.286.032.08.077.141.136.185.06.043.133.065.22.065Zm2.39.462a1.02 1.02 0 0 1-.508-.119.817.817 0 0 1-.325-.34 1.126 1.126 0 0 1-.115-.524c0-.196.038-.369.114-.517a.845.845 0 0 1 .322-.347.94.94 0 0 1 .49-.124c.126 0 .243.02.352.061a.779.779 0 0 1 .477.483c.046.121.069.263.069.426v.145H43.66v-.328h1.114a.406.406 0 0 0-.05-.203.357.357 0 0 0-.138-.138.393.393 0 0 0-.202-.05.393.393 0 0 0-.358.204.417.417 0 0 0-.054.204v.312c0 .095.018.176.053.245a.382.382 0 0 0 .15.16.452.452 0 0 0 .23.055.5.5 0 0 0 .162-.025.323.323 0 0 0 .205-.196l.49.032a.67.67 0 0 1-.154.308.767.767 0 0 1-.295.204c-.12.048-.26.072-.417.072ZM45.793 16v-1.91h.505v.338h.022a.53.53 0 0 1 .199-.265.568.568 0 0 1 .333-.097c.13 0 .242.033.334.098a.462.462 0 0 1 .184.264h.02a.508.508 0 0 1 .211-.263.657.657 0 0 1 .365-.099.58.58 0 0 1 .433.17c.112.113.168.273.168.48V16h-.528v-1.18c0-.106-.028-.185-.085-.238a.296.296 0 0 0-.21-.08.284.284 0 0 0-.226.092.347.347 0 0 0-.08.24V16h-.514v-1.19a.308.308 0 0 0-.08-.224.277.277 0 0 0-.21-.084.291.291 0 0 0-.16.045.307.307 0 0 0-.11.123.392.392 0 0 0-.041.184V16h-.53Zm4.237.037a1.02 1.02 0 0 1-.507-.119.817.817 0 0 1-.325-.34 1.125 1.125 0 0 1-.115-.524c0-.196.038-.369.115-.517a.845.845 0 0 1 .322-.347.94.94 0 0 1 .49-.124c.125 0 .242.02.351.061a.779.779 0 0 1 .477.483c.046.121.069.263.069.426v.145h-1.612v-.328h1.113a.405.405 0 0 0-.05-.203.356.356 0 0 0-.137-.138.393.393 0 0 0-.203-.05.393.393 0 0 0-.358.204.417.417 0 0 0-.053.204v.312c0 .095.017.176.052.245a.382.382 0 0 0 .15.16.452.452 0 0 0 .23.055.5.5 0 0 0 .162-.025.325.325 0 0 0 .205-.196l.49.032a.67.67 0 0 1-.153.308.767.767 0 0 1-.296.204c-.12.048-.26.072-.417.072Zm1.927-1.14V16h-.53v-1.91h.505v.338h.022a.533.533 0 0 1 .213-.264c.1-.065.22-.098.361-.098.133 0 .249.03.347.087.099.058.175.14.23.249a.831.831 0 0 1 .082.382V16h-.53v-1.121a.383.383 0 0 0-.089-.274.321.321 0 0 0-.25-.099.38.38 0 0 0-.189.046.321.321 0 0 0-.126.134.465.465 0 0 0-.046.21Zm2.838-.806v.398h-1.15v-.398h1.15Zm-.889-.457h.53v1.78a.24.24 0 0 0 .022.114.123.123 0 0 0 .062.056c.027.01.059.016.095.016a.457.457 0 0 0 .131-.018l.084.394a1.49 1.49 0 0 1-.112.029.898.898 0 0 1-.175.021.803.803 0 0 1-.336-.05.468.468 0 0 1-.222-.182.555.555 0 0 1-.079-.311v-1.85Z"/><defs><filter id="a" width="60.895" height="16.97" x="15.477" y="-1.847" color-interpolation-filters="sRGB" filterUnits="userSpaceOnUse"><feFlood flood-opacity="0" result="BackgroundImageFix"/><feGaussianBlur in="BackgroundImageFix" stdDeviation="2"/><feComposite in2="SourceAlpha" operator="in" result="effect1_backgroundBlur_0_1"/><feBlend in="SourceGraphic" in2="effect1_backgroundBlur_0_1" result="shape"/></filter></defs></svg>