<svg width="110" height="40" viewBox="0 0 73 18" fill="none" xmlns="http://www.w3.org/2000/svg">
<path d="M16.3798 0.00587731C15.9395 0.0465688 15.5971 0.339887 15.5079 0.750193C15.4748 0.907872 15.494 1.07742 15.5691 1.28257C15.5953 1.35717 15.6233 1.43517 15.6302 1.45382C15.6372 1.47247 15.6285 1.46399 15.611 1.43347L15.5796 1.37922L15.5848 1.56911C15.5901 1.76578 15.6215 2.03367 15.6652 2.26765C15.6809 2.34225 15.6931 2.43041 15.6931 2.46263V2.52197L15.7298 2.47958C15.798 2.39989 15.7403 2.48806 15.6302 2.63387C15.4852 2.82376 15.4416 2.91871 15.4416 3.04079C15.4433 3.20864 15.5411 3.34767 15.7194 3.43583C15.8154 3.48331 15.8154 3.49348 15.7176 3.45448C15.6844 3.44092 15.6617 3.43753 15.6669 3.446C15.6792 3.46635 15.6407 3.58164 15.6215 3.58164C15.6145 3.58164 15.6128 3.5969 15.618 3.61555C15.6233 3.6342 15.6198 3.64946 15.6093 3.64946C15.6005 3.64946 15.5831 3.66981 15.5726 3.69524C15.5516 3.74441 15.4468 3.8241 15.4031 3.8241C15.3909 3.8241 15.3787 3.82918 15.3787 3.83597C15.3787 3.84105 15.3612 3.84783 15.3402 3.84953C15.2109 3.85801 15.0764 3.85631 14.9768 3.84783C14.9139 3.84105 14.8126 3.83257 14.7514 3.82749C14.6903 3.8224 14.6116 3.81562 14.5767 3.81053L14.5138 3.80206L14.575 3.82071C14.6082 3.82918 14.6658 3.84614 14.7042 3.85462C14.7409 3.86479 14.7671 3.87496 14.7636 3.87835C14.7602 3.88174 14.7147 3.87496 14.6623 3.8614C14.3216 3.77323 13.8813 3.83257 13.5039 4.01569C13.006 4.25644 12.6583 4.59384 12.0503 5.42802C11.9123 5.61961 11.7253 5.86715 11.6362 5.97905C11.4545 6.20625 11.1435 6.51991 10.9845 6.6352C10.85 6.73354 10.8115 6.75389 10.8884 6.68607L10.9496 6.63181L10.8447 6.64029C10.7259 6.65046 10.4848 6.62333 10.4079 6.59112C10.38 6.57925 10.3223 6.5606 10.2821 6.55043C10.2402 6.53856 10.207 6.5233 10.207 6.51482C10.207 6.50465 10.1965 6.49787 10.1843 6.49787C10.1511 6.49787 9.97638 6.33002 9.94493 6.26898C9.93096 6.24016 9.91349 6.21472 9.90824 6.20964C9.903 6.20455 9.88378 6.15029 9.86631 6.08587C9.84185 5.99431 9.83661 5.93836 9.84535 5.80442C9.85758 5.63148 9.87854 5.55518 9.95717 5.39581C9.9991 5.31273 10.1616 5.0618 10.1878 5.03976C10.1948 5.03467 10.2262 4.99737 10.2594 4.95498C10.2926 4.91259 10.3311 4.86682 10.3468 4.85325C10.3608 4.83969 10.4167 4.77865 10.4691 4.71761C10.5215 4.65658 10.5757 4.59554 10.5914 4.58198C10.6071 4.56841 10.6456 4.52263 10.6787 4.48025C10.7119 4.43786 10.7539 4.38869 10.7713 4.37004C10.8412 4.29544 11.0107 4.03942 11.0841 3.89531C11.2536 3.56808 11.3252 3.27476 11.3252 2.91023C11.3252 2.40329 11.1715 1.96755 10.8465 1.55555C10.7748 1.46399 10.5128 1.21136 10.4254 1.14863C10.387 1.11981 10.345 1.08759 10.3328 1.07572C10.3206 1.06555 10.3031 1.05538 10.2944 1.05538C10.2856 1.05538 10.2682 1.04521 10.2559 1.03334C10.2437 1.02147 10.1791 0.982473 10.1109 0.946868C10.0445 0.911263 9.95717 0.86379 9.91873 0.843444C9.88029 0.821403 9.78594 0.784102 9.70907 0.75867C9.63219 0.733238 9.55357 0.70611 9.53435 0.697633C9.43301 0.655246 8.76559 0.533171 8.74462 0.553517C8.74113 0.556908 8.77782 0.568776 8.82674 0.580645C8.87566 0.592513 8.91235 0.604382 8.90886 0.609468C8.90362 0.612859 8.83897 0.600991 8.76384 0.58234C8.53846 0.528085 8.38995 0.512826 8.08769 0.512826C7.87628 0.512826 7.74349 0.522999 7.5845 0.548431C7.19138 0.612859 6.73886 0.784102 6.4069 0.994342C6.32478 1.0469 6.25839 1.0842 6.25839 1.08081C6.25839 1.07572 6.3143 1.03673 6.38069 0.994342C6.50649 0.912959 6.54842 0.873963 6.44709 0.933305C6.41564 0.950259 6.32653 0.999428 6.24966 1.04012C5.90371 1.22154 5.63465 1.45043 5.43023 1.74035C5.32715 1.88616 5.15942 2.21848 5.09827 2.40159C5.04236 2.56436 5.04236 2.57792 5.09652 2.47958C5.14544 2.38972 5.15592 2.40159 5.107 2.49315C5.0476 2.60674 4.91656 2.99501 4.87113 3.19338C4.80299 3.49178 4.77154 3.76476 4.77154 4.0852C4.7698 4.41412 4.77853 4.51585 4.8292 4.81765C4.97247 5.68234 5.4145 6.5216 6.05222 7.14215C6.60957 7.6847 7.17915 8.00854 8.0475 8.27643C8.34627 8.36798 8.47905 8.44767 8.63106 8.624C8.76559 8.77829 8.78131 8.82746 8.77957 9.075C8.77957 9.18181 8.76908 9.24454 8.74113 9.31575C8.72016 9.37001 8.6957 9.41409 8.69046 9.41409C8.68347 9.41409 8.66775 9.43444 8.65552 9.45987C8.62931 9.51413 8.45809 9.65146 8.4179 9.65146C8.40218 9.65146 8.38995 9.65824 8.38995 9.66672C8.38995 9.6752 8.33054 9.69554 8.25716 9.7125C8.09293 9.74641 7.87278 9.73623 7.7103 9.68537C7.64914 9.66672 7.58799 9.65146 7.57576 9.65146C7.56179 9.65146 7.5513 9.64298 7.5513 9.6345C7.5513 9.62433 7.54431 9.61755 7.53558 9.61755C7.48316 9.61755 7.24205 9.48361 7.10402 9.37849C6.99745 9.29541 6.73537 9.03261 6.65325 8.9241C6.62879 8.89358 6.59385 8.85289 6.57463 8.83593C6.55541 8.81898 6.51523 8.76811 6.48378 8.72403C6.45233 8.67825 6.41564 8.63248 6.40341 8.62061C6.39118 8.60874 6.38069 8.59178 6.38069 8.58331C6.38069 8.57483 6.36322 8.55109 6.34051 8.52905C6.31954 8.50701 6.27412 8.45615 6.24092 8.41376C6.14482 8.29338 6.11687 8.26286 5.99806 8.1357C5.84431 7.97293 5.84431 7.97293 5.72375 7.89325C5.54205 7.77287 5.34636 7.68979 5.02663 7.59823C4.99868 7.59145 4.8886 7.57111 4.78377 7.55585C4.67894 7.54059 4.57237 7.52194 4.54965 7.51346C4.47452 7.48633 4.49025 7.50837 4.58984 7.5728C4.64225 7.60671 4.68593 7.63893 4.68593 7.64401C4.68593 7.6491 4.65274 7.63045 4.61255 7.60332C4.33475 7.41851 3.99056 7.3117 3.67606 7.3117C3.33536 7.31339 3.06805 7.41004 2.84266 7.61858C2.62601 7.81865 2.52118 8.07297 2.54389 8.34594C2.57359 8.72234 2.80946 9.05465 3.24102 9.32932C3.33012 9.38696 3.6219 9.53786 3.89097 9.66672C4.55664 9.98716 4.78028 10.1347 4.97596 10.3856C5.15068 10.6111 5.22756 10.8434 5.22756 11.1503C5.22756 11.4588 5.12797 11.7505 4.92355 12.0404C4.65448 12.4236 4.32252 12.6931 3.58521 13.1306C2.96496 13.5002 2.7885 13.6155 2.51943 13.8359C2.10186 14.175 1.83279 14.5751 1.74194 14.9973C1.70874 15.1465 1.70874 15.4449 1.74194 15.5822C1.84677 16.0163 2.15951 16.3283 2.61727 16.452C2.72735 16.4842 2.79898 16.491 2.9737 16.491C3.22354 16.4893 3.43495 16.4452 3.66383 16.3418C3.80186 16.2791 3.84379 16.2723 3.72498 16.3316C3.68655 16.3503 3.6551 16.3706 3.6551 16.3757C3.6551 16.3791 3.66907 16.3774 3.68655 16.3689C3.70227 16.3605 3.76692 16.3486 3.82981 16.3418C4.10762 16.3147 4.40988 16.1875 4.69816 15.9773C4.90957 15.823 5.16116 15.5738 5.31142 15.3669C5.3551 15.3059 5.39703 15.2516 5.40227 15.2465C5.42673 15.2279 5.55603 15.0278 5.61019 14.9244C5.64338 14.8634 5.68357 14.7955 5.69929 14.7718C5.71502 14.7481 5.84082 14.5124 5.97884 14.2462C6.11512 13.98 6.23393 13.7545 6.24092 13.746C6.24791 13.7359 6.2811 13.6833 6.31081 13.6274C6.34226 13.5714 6.38244 13.5104 6.39991 13.49C6.41913 13.4714 6.43311 13.4459 6.43311 13.4358C6.43311 13.4239 6.43835 13.4154 6.44709 13.4154C6.45407 13.4154 6.47854 13.3866 6.503 13.351C6.6847 13.0865 7.10577 12.7525 7.46394 12.588C7.70855 12.4761 8.04401 12.4049 8.2659 12.4202C8.36199 12.4253 8.38296 12.4354 8.50351 12.5253C8.80403 12.7474 9.1028 13.1391 9.27402 13.5341C9.43126 13.8969 9.54134 14.3123 9.72479 15.2211C9.89252 16.0485 9.98861 16.3656 10.2 16.781C10.5198 17.41 11.0125 17.8288 11.5978 17.9712C11.6834 17.9915 11.7882 18 11.9542 18C12.1586 17.9983 12.211 17.9932 12.3438 17.9525C12.515 17.9034 12.6041 17.8627 12.7229 17.783C12.7666 17.7542 12.8103 17.7304 12.819 17.7287C12.9012 17.7219 13.1388 17.6406 13.2157 17.5914C13.2523 17.571 13.2855 17.5524 13.2925 17.5524C13.3065 17.5524 13.4306 17.4608 13.4969 17.4015C13.5861 17.3218 13.6979 17.1692 13.7678 17.0336C13.897 16.7826 13.9372 16.6114 13.9372 16.3062C13.9372 15.8908 13.8394 15.5314 13.5965 15.0516C13.4725 14.8074 13.4026 14.6819 13.1929 14.331C12.8697 13.7867 12.702 13.4205 12.6164 13.0679C12.5622 12.8407 12.5622 12.4778 12.6181 12.2608C12.6496 12.137 12.7771 11.8454 12.8086 11.8217C12.8155 11.8166 12.84 11.7861 12.8627 11.7539C12.9134 11.6826 13.0479 11.5504 13.0689 11.5504C13.0759 11.5504 13.1003 11.5351 13.1213 11.5165C13.1423 11.4961 13.1597 11.4843 13.1597 11.4894C13.1597 11.4944 13.1947 11.4826 13.2366 11.4639C13.3484 11.4165 13.5738 11.4063 13.7747 11.4385C13.9372 11.4656 14.2675 11.5589 14.3076 11.5877C14.3199 11.5962 14.3461 11.6063 14.3688 11.608C14.3915 11.6114 14.5383 11.6962 14.6973 11.7996C15.1935 12.1201 15.4188 12.2388 15.7194 12.3371C16.2208 12.4999 16.7484 12.449 17.0787 12.2049C17.1241 12.1709 17.1678 12.1455 17.1748 12.1489C17.1922 12.154 17.4665 11.9285 17.5452 11.8454C17.7583 11.6199 17.8527 11.3419 17.8055 11.0774C17.7933 11.0061 17.7705 10.9146 17.7531 10.8722C17.7373 10.8298 17.7129 10.7688 17.6989 10.7366C17.6867 10.7044 17.671 10.6738 17.6657 10.6687C17.6605 10.6637 17.6447 10.6416 17.6325 10.6196C17.5958 10.5501 17.3914 10.3364 17.2848 10.2567C17.1608 10.1618 16.9511 10.0499 16.7747 9.98377C16.5196 9.88883 16.0478 9.79218 15.6844 9.76167C15.6268 9.75658 15.5569 9.7481 15.5272 9.74471C15.4992 9.73962 15.4363 9.73284 15.3874 9.72945C15.2004 9.7125 14.9628 9.68198 14.8545 9.65994C14.5487 9.5989 14.4684 9.57855 14.3391 9.53108C14.1469 9.46157 14.063 9.42087 13.9128 9.32423C13.78 9.23776 13.5668 9.04448 13.4917 8.93936C13.469 8.90714 13.4445 8.87663 13.4393 8.87154C13.4236 8.85798 13.3292 8.7003 13.3048 8.64434C13.1562 8.31712 13.1405 8.03397 13.2523 7.65927C13.317 7.44055 13.5162 7.18793 13.7625 7.0116C13.8586 6.94208 13.9512 6.87426 13.9687 6.8607C13.9844 6.84714 14.0019 6.83696 14.0054 6.83696C14.0106 6.83696 14.1853 6.74371 14.3216 6.66742C14.3601 6.64707 14.4544 6.59621 14.5313 6.55721C14.8388 6.39953 14.9506 6.33849 14.9558 6.32493C14.9593 6.31815 14.9716 6.31137 14.982 6.31137C15.0205 6.31137 15.2092 6.17912 15.3682 6.04009C15.7456 5.71117 15.9011 5.4348 15.9535 5.00585C15.964 4.92616 15.9762 4.82273 15.9814 4.77696C15.9884 4.72948 15.9919 4.6837 15.9919 4.67523C15.9919 4.66505 15.9919 4.62775 15.9902 4.59045C15.9884 4.52603 15.9937 4.48194 16.0181 4.37004C16.0251 4.34122 16.0478 4.29544 16.0705 4.26492C16.0933 4.2361 16.1125 4.20558 16.1125 4.1971C16.1125 4.19032 16.1264 4.17506 16.1439 4.16489C16.2156 4.12081 16.3955 4.02755 16.558 3.94956C17.2097 3.6342 17.6517 3.17473 17.8177 2.64404C17.8806 2.44228 17.961 2.11675 17.9802 1.97942C18.0274 1.67253 17.9889 1.34361 17.8789 1.0859C17.8212 0.955346 17.657 0.694242 17.6762 0.767148C17.6814 0.790884 17.664 0.770539 17.6378 0.724761C17.463 0.426356 17.2551 0.229681 16.9843 0.105911C16.7869 0.0177457 16.5982 -0.0144684 16.3798 0.00587731ZM8.99272 0.631509C9.01544 0.641682 9.01893 0.646769 9.00146 0.646769C8.98748 0.646769 8.96302 0.639987 8.94904 0.631509C8.91759 0.611163 8.94555 0.611163 8.99272 0.631509ZM9.14123 0.682374C9.15521 0.690851 9.16045 0.699328 9.14997 0.699328C9.14123 0.699328 9.12027 0.690851 9.10629 0.682374C9.09231 0.673896 9.08882 0.665419 9.09755 0.665419C9.10804 0.665419 9.12726 0.673896 9.14123 0.682374ZM6.24092 1.09607C6.24092 1.09946 6.22694 1.11303 6.21122 1.12489C6.18326 1.14693 6.18152 1.14524 6.20423 1.11811C6.22694 1.09098 6.24092 1.08251 6.24092 1.09607ZM6.17103 1.14524C6.17103 1.14863 6.15356 1.16559 6.13259 1.18424L6.09241 1.21645L6.12561 1.17745C6.15705 1.14185 6.17103 1.13168 6.17103 1.14524ZM14.837 3.90378C14.851 3.91226 14.8562 3.92074 14.8458 3.92074C14.837 3.92074 14.8161 3.91226 14.8021 3.90378C14.7881 3.89531 14.7846 3.88683 14.7934 3.88683C14.8038 3.88683 14.8231 3.89531 14.837 3.90378ZM8.84771 9.03091C8.86518 9.09534 8.87916 9.17164 8.87741 9.20046C8.87741 9.23098 8.86693 9.20216 8.85295 9.13434C8.84072 9.06821 8.81801 8.98175 8.80228 8.94105C8.76908 8.85458 8.76734 8.83254 8.79529 8.88002C8.80578 8.89697 8.83024 8.96649 8.84771 9.03091ZM8.87392 9.42596C8.86867 9.44292 8.86518 9.43274 8.86518 9.40562C8.86518 9.37679 8.86867 9.36492 8.87392 9.3751C8.87741 9.38696 8.87741 9.4107 8.87392 9.42596ZM14.8248 9.7481C14.7934 9.75149 14.7409 9.75149 14.7112 9.7481C14.6798 9.74471 14.7042 9.74132 14.7671 9.74132C14.83 9.74132 14.8545 9.74471 14.8248 9.7481ZM15.1917 9.76506C15.1515 9.76845 15.0799 9.76845 15.0345 9.76506C14.989 9.76167 15.0222 9.75997 15.1078 9.75997C15.1952 9.75997 15.2319 9.76167 15.1917 9.76506ZM15.6425 9.80405C15.7106 9.82101 15.5674 9.81083 15.3787 9.7871C15.2773 9.77353 15.2826 9.77353 15.4241 9.78201C15.5114 9.7854 15.6093 9.79727 15.6425 9.80405ZM15.7945 9.83288C15.777 9.83627 15.7491 9.83627 15.7333 9.83288C15.7159 9.82779 15.7298 9.8244 15.763 9.8244C15.7962 9.8244 15.8102 9.82779 15.7945 9.83288ZM15.8801 9.84814C15.8749 9.85322 15.8591 9.85492 15.8469 9.84983C15.8329 9.84474 15.8382 9.83966 15.8574 9.83966C15.8766 9.83796 15.8871 9.84305 15.8801 9.84814ZM15.9779 9.86679C15.9657 9.87018 15.9412 9.87018 15.9255 9.86679C15.9081 9.8617 15.9185 9.85831 15.9465 9.85831C15.9762 9.85831 15.9884 9.8617 15.9779 9.86679ZM16.1072 9.899C16.102 9.90409 16.0863 9.90578 16.074 9.90069C16.0601 9.89561 16.0653 9.89052 16.0845 9.89052C16.1037 9.88883 16.1142 9.89391 16.1072 9.899ZM14.3653 11.5962C14.3653 11.608 14.2587 11.5436 14.2377 11.5182C14.2255 11.5046 14.25 11.5148 14.2919 11.5419C14.3321 11.5674 14.3653 11.5928 14.3653 11.5962ZM17.3582 11.9421C17.3407 11.9726 17.2936 12.0302 17.2516 12.0743L17.1765 12.1523L17.2551 12.0556C17.2988 12.0014 17.3425 11.9421 17.353 11.9234C17.3634 11.9048 17.3757 11.8895 17.3809 11.8895C17.3862 11.8895 17.3757 11.9132 17.3582 11.9421ZM8.21698 12.349C8.27638 12.3778 8.32006 12.4032 8.31657 12.4083C8.31132 12.4117 8.25891 12.388 8.19601 12.3557C8.05798 12.2828 8.07371 12.2778 8.21698 12.349ZM12.9151 17.6456C12.8732 17.688 12.8348 17.7219 12.8295 17.7219C12.8243 17.7219 12.8557 17.688 12.8977 17.6456C12.9396 17.6033 12.978 17.5693 12.9833 17.5693C12.9885 17.5693 12.9571 17.6033 12.9151 17.6456Z" fill="#21A8F4"/>
<path d="M8.59608 0.524618C8.60826 0.529815 8.62392 0.528082 8.62914 0.522885C8.6361 0.517688 8.62566 0.512491 8.60652 0.514224C8.58738 0.514224 8.58216 0.519421 8.59608 0.524618Z" fill="#21A8F4"/>
<path d="M8.66597 0.541591C8.67641 0.545056 8.6973 0.545056 8.70948 0.541591C8.71992 0.536394 8.71122 0.532929 8.68685 0.532929C8.66249 0.532929 8.65379 0.536394 8.66597 0.541591Z" fill="#21A8F4"/>
<path d="M5.02835 2.59317C5.01791 2.61691 5.01965 2.6186 5.03705 2.60334C5.04923 2.59147 5.05445 2.57791 5.04923 2.57282C5.04401 2.56774 5.03357 2.57621 5.02835 2.59317Z" fill="#21A8F4"/>
<path d="M1.00113 2.66777C0.532889 2.78646 0.164235 3.15946 0.0366907 3.64098C-0.0122302 3.83087 -0.0122302 4.13267 0.0366907 4.32934C0.174718 4.86512 0.604523 5.25847 1.13916 5.33646C1.22128 5.34833 1.26496 5.3585 1.23525 5.3602C1.18633 5.36359 1.18983 5.36698 1.28068 5.40936C1.87822 5.6976 2.54564 5.50262 2.87411 4.94141C3.23577 4.32934 3.04009 3.58333 2.40237 3.13403C2.32025 3.07808 2.28531 3.0696 2.32375 3.11708C2.33073 3.12555 2.29754 3.09164 2.25036 3.04248C2.08264 2.86615 1.79959 2.70508 1.56722 2.6576C1.39774 2.62369 1.15838 2.62708 1.00113 2.66777Z" fill="#21A8F4"/>
<g filter="url(#filter0_b_0_1)">
<path d="M24.4929 4.78267C24.4588 4.43892 24.3125 4.17187 24.054 3.98153C23.7955 3.79119 23.4446 3.69602 23.0014 3.69602C22.7003 3.69602 22.446 3.73864 22.2386 3.82386C22.0313 3.90625 21.8722 4.02131 21.7614 4.16903C21.6534 4.31676 21.5994 4.48438 21.5994 4.67188C21.5938 4.82812 21.6264 4.96449 21.6974 5.08097C21.7713 5.19744 21.8722 5.2983 22 5.38352C22.1278 5.46591 22.2756 5.53835 22.4432 5.60085C22.6108 5.66051 22.7898 5.71165 22.9801 5.75426L23.7642 5.94176C24.1449 6.02699 24.4943 6.14062 24.8125 6.28267C25.1307 6.42472 25.4063 6.59943 25.6392 6.80682C25.8722 7.0142 26.0526 7.25852 26.1804 7.53977C26.3111 7.82102 26.3778 8.14347 26.3807 8.5071C26.3778 9.04119 26.2415 9.50426 25.9716 9.89631C25.7045 10.2855 25.3182 10.5881 24.8125 10.804C24.3097 11.017 23.7031 11.1236 22.9929 11.1236C22.2884 11.1236 21.6747 11.0156 21.152 10.7997C20.6321 10.5838 20.2259 10.2642 19.9332 9.84091C19.6435 9.41477 19.4915 8.88778 19.4773 8.25994H21.2628C21.2827 8.55256 21.3665 8.79687 21.5142 8.9929C21.6648 9.18608 21.8651 9.33239 22.1151 9.43182C22.3679 9.52841 22.6534 9.5767 22.9716 9.5767C23.2841 9.5767 23.5554 9.53125 23.7855 9.44034C24.0185 9.34943 24.1989 9.22301 24.3267 9.06108C24.4545 8.89915 24.5185 8.71307 24.5185 8.50284C24.5185 8.30682 24.4602 8.14205 24.3438 8.00852C24.2301 7.875 24.0625 7.76136 23.8409 7.66761C23.6222 7.57386 23.3537 7.48864 23.0355 7.41193L22.0852 7.1733C21.3494 6.99432 20.7685 6.71449 20.3423 6.33381C19.9162 5.95312 19.7045 5.44034 19.7074 4.79545C19.7045 4.26705 19.8452 3.8054 20.1293 3.41051C20.4162 3.01562 20.8097 2.70739 21.3097 2.4858C21.8097 2.2642 22.3778 2.15341 23.0142 2.15341C23.6619 2.15341 24.2273 2.2642 24.7102 2.4858C25.196 2.70739 25.5739 3.01562 25.8438 3.41051C26.1136 3.8054 26.2528 4.26278 26.2614 4.78267H24.4929ZM27.5877 11V4.45455H29.3178V5.60938H29.3945C29.5309 5.22585 29.7582 4.9233 30.0763 4.7017C30.3945 4.48011 30.7752 4.36932 31.2184 4.36932C31.6673 4.36932 32.0494 4.48153 32.3647 4.70597C32.68 4.92756 32.8903 5.22869 32.9954 5.60938H33.0636C33.1971 5.23438 33.4386 4.93466 33.788 4.71023C34.1403 4.48295 34.5565 4.36932 35.0366 4.36932C35.6474 4.36932 36.1431 4.56392 36.5238 4.95312C36.9073 5.33949 37.0991 5.88778 37.0991 6.59801V11H35.288V6.95597C35.288 6.59233 35.1914 6.3196 34.9982 6.13778C34.805 5.95597 34.5636 5.86506 34.2738 5.86506C33.9442 5.86506 33.6871 5.97017 33.5025 6.1804C33.3178 6.38778 33.2255 6.66193 33.2255 7.00284V11H31.4656V6.91761C31.4656 6.59659 31.3732 6.34091 31.1886 6.15057C31.0067 5.96023 30.7667 5.86506 30.4684 5.86506C30.2667 5.86506 30.0849 5.91619 29.9229 6.01847C29.7638 6.1179 29.6374 6.25852 29.5437 6.44034C29.4499 6.61932 29.4031 6.82955 29.4031 7.07102V11H27.5877ZM40.3995 11.1236C39.9819 11.1236 39.6097 11.0511 39.283 10.9062C38.9563 10.7585 38.6978 10.5412 38.5075 10.2543C38.32 9.96449 38.2262 9.60369 38.2262 9.17188C38.2262 8.80824 38.293 8.50284 38.4265 8.25568C38.56 8.00852 38.7418 7.80966 38.9719 7.65909C39.2021 7.50852 39.4634 7.39489 39.756 7.31818C40.0515 7.24148 40.3612 7.1875 40.685 7.15625C41.0657 7.11648 41.3725 7.07955 41.6055 7.04545C41.8384 7.00852 42.0075 6.95455 42.1126 6.88352C42.2177 6.8125 42.2702 6.70739 42.2702 6.56818V6.54261C42.2702 6.27273 42.185 6.06392 42.0146 5.91619C41.8469 5.76847 41.6083 5.6946 41.2987 5.6946C40.9719 5.6946 40.712 5.76705 40.5188 5.91193C40.3256 6.05398 40.1978 6.23295 40.1353 6.44886L38.4563 6.3125C38.5415 5.91477 38.7092 5.57102 38.9592 5.28125C39.2092 4.98864 39.5316 4.7642 39.9265 4.60795C40.3242 4.44886 40.7844 4.36932 41.3072 4.36932C41.6708 4.36932 42.0188 4.41193 42.3512 4.49716C42.6864 4.58239 42.9833 4.71449 43.2418 4.89347C43.5032 5.07244 43.7092 5.30256 43.8597 5.58381C44.0103 5.86222 44.0856 6.19602 44.0856 6.58523V11H42.364V10.0923H42.3129C42.2077 10.2969 42.0671 10.4773 41.891 10.6335C41.7148 10.7869 41.5032 10.9077 41.256 10.9957C41.0089 11.081 40.7234 11.1236 40.3995 11.1236ZM40.9194 9.87074C41.1864 9.87074 41.4222 9.81818 41.6268 9.71307C41.8313 9.60511 41.9918 9.46023 42.1083 9.27841C42.2248 9.09659 42.283 8.89062 42.283 8.66051V7.96591C42.2262 8.00284 42.1481 8.03693 42.0487 8.06818C41.9521 8.09659 41.8427 8.12358 41.7205 8.14915C41.5984 8.17187 41.4762 8.19318 41.354 8.21307C41.2319 8.23011 41.1211 8.24574 41.0217 8.25994C40.8086 8.29119 40.6225 8.34091 40.4634 8.40909C40.3043 8.47727 40.1808 8.5696 40.0927 8.68608C40.0046 8.79972 39.9606 8.94176 39.9606 9.11222C39.9606 9.35938 40.0501 9.5483 40.229 9.67898C40.4109 9.80682 40.641 9.87074 40.9194 9.87074ZM45.494 11V4.45455H47.2539V5.59659H47.3221C47.4414 5.19034 47.6417 4.88352 47.9229 4.67614C48.2042 4.46591 48.5281 4.3608 48.8945 4.3608C48.9854 4.3608 49.0835 4.36648 49.1886 4.37784C49.2937 4.3892 49.386 4.40483 49.4656 4.42472V6.03551C49.3803 6.00994 49.2624 5.98722 49.1119 5.96733C48.9613 5.94744 48.8235 5.9375 48.6985 5.9375C48.4315 5.9375 48.1928 5.99574 47.9826 6.11222C47.7752 6.22585 47.6104 6.38494 47.4883 6.58949C47.369 6.79403 47.3093 7.02983 47.3093 7.29688V11H45.494ZM54.2138 4.45455V5.81818H50.272V4.45455H54.2138ZM51.1669 2.88636H52.9822V8.98864C52.9822 9.15625 53.0078 9.28693 53.0589 9.38068C53.1101 9.47159 53.1811 9.53551 53.272 9.57244C53.3658 9.60937 53.4737 9.62784 53.5959 9.62784C53.6811 9.62784 53.7663 9.62074 53.8516 9.60653C53.9368 9.58949 54.0021 9.5767 54.0476 9.56818L54.3331 10.919C54.2422 10.9474 54.1143 10.9801 53.9496 11.017C53.7848 11.0568 53.5845 11.081 53.3487 11.0895C52.9112 11.1065 52.5277 11.0483 52.1982 10.9148C51.8714 10.7812 51.6172 10.5739 51.4354 10.2926C51.2536 10.0114 51.1641 9.65625 51.1669 9.22727V2.88636ZM59.5938 8.21307V4.45455H61.4091V11H59.6662V9.81108H59.598C59.4503 10.1946 59.2045 10.5028 58.8608 10.7358C58.5199 10.9687 58.1037 11.0852 57.6122 11.0852C57.1747 11.0852 56.7898 10.9858 56.4574 10.7869C56.125 10.5881 55.8651 10.3054 55.6776 9.93892C55.4929 9.57244 55.3991 9.13352 55.3963 8.62216V4.45455H57.2116V8.2983C57.2145 8.68466 57.3182 8.99006 57.5227 9.21449C57.7273 9.43892 58.0014 9.55114 58.3452 9.55114C58.5639 9.55114 58.7685 9.50142 58.9588 9.40199C59.1491 9.29972 59.3026 9.14915 59.419 8.95028C59.5384 8.75142 59.5966 8.50568 59.5938 8.21307ZM62.8612 11V4.45455H64.5913V5.60938H64.668C64.8043 5.22585 65.0316 4.9233 65.3498 4.7017C65.668 4.48011 66.0487 4.36932 66.4918 4.36932C66.9407 4.36932 67.3228 4.48153 67.6381 4.70597C67.9535 4.92756 68.1637 5.22869 68.2688 5.60938H68.337C68.4705 5.23438 68.712 4.93466 69.0614 4.71023C69.4137 4.48295 69.8299 4.36932 70.31 4.36932C70.9208 4.36932 71.4165 4.56392 71.7972 4.95312C72.1808 5.33949 72.3725 5.88778 72.3725 6.59801V11H70.5614V6.95597C70.5614 6.59233 70.4648 6.3196 70.2717 6.13778C70.0785 5.95597 69.837 5.86506 69.5472 5.86506C69.2177 5.86506 68.9606 5.97017 68.7759 6.1804C68.5913 6.38778 68.4989 6.66193 68.4989 7.00284V11H66.739V6.91761C66.739 6.59659 66.6467 6.34091 66.462 6.15057C66.2802 5.96023 66.0401 5.86506 65.7418 5.86506C65.5401 5.86506 65.3583 5.91619 65.1964 6.01847C65.0373 6.1179 64.9109 6.25852 64.8171 6.44034C64.7234 6.61932 64.6765 6.82955 64.6765 7.07102V11H62.8612Z" fill="#DAD4D4"/>
</g>
<path d="M21.1243 13.8983V13.4545H23.2148V13.8983H22.4355V16H21.9036V13.8983H21.1243ZM24.0088 16.036C23.887 16.036 23.778 16.0149 23.6832 15.9727C23.5879 15.9296 23.5125 15.8662 23.457 15.7825C23.4023 15.698 23.3749 15.5927 23.3749 15.4668C23.3749 15.3607 23.3944 15.2717 23.4333 15.1996C23.4723 15.1275 23.5253 15.0695 23.5924 15.0256C23.6596 14.9817 23.7358 14.9485 23.8211 14.9261C23.9073 14.9038 23.9976 14.888 24.0921 14.8789C24.2031 14.8673 24.2926 14.8565 24.3605 14.8466C24.4285 14.8358 24.4778 14.8201 24.5085 14.7994C24.5391 14.7786 24.5544 14.748 24.5544 14.7074V14.6999C24.5544 14.6212 24.5296 14.5603 24.4799 14.5172C24.431 14.4741 24.3614 14.4526 24.2711 14.4526C24.1758 14.4526 24.1 14.4737 24.0436 14.516C23.9873 14.5574 23.95 14.6096 23.9317 14.6726L23.442 14.6328C23.4669 14.5168 23.5158 14.4165 23.5887 14.332C23.6616 14.2467 23.7557 14.1812 23.8708 14.1357C23.9868 14.0893 24.1211 14.0661 24.2735 14.0661C24.3796 14.0661 24.4811 14.0785 24.5781 14.1033C24.6758 14.1282 24.7624 14.1667 24.8378 14.2189C24.9141 14.2711 24.9741 14.3382 25.018 14.4203C25.062 14.5015 25.0839 14.5988 25.0839 14.7124V16H24.5818V15.7353H24.5669C24.5362 15.7949 24.4952 15.8475 24.4438 15.8931C24.3924 15.9379 24.3307 15.9731 24.2586 15.9988C24.1865 16.0236 24.1033 16.036 24.0088 16.036ZM24.1604 15.6706C24.2383 15.6706 24.3071 15.6553 24.3668 15.6246C24.4264 15.5932 24.4732 15.5509 24.5072 15.4979C24.5412 15.4448 24.5582 15.3848 24.5582 15.3176V15.1151C24.5416 15.1258 24.5188 15.1358 24.4898 15.1449C24.4616 15.1532 24.4297 15.161 24.3941 15.1685C24.3585 15.1751 24.3228 15.1813 24.2872 15.1871C24.2516 15.1921 24.2193 15.1967 24.1903 15.2008C24.1281 15.2099 24.0739 15.2244 24.0275 15.2443C23.981 15.2642 23.945 15.2911 23.9193 15.3251C23.8936 15.3583 23.8808 15.3997 23.8808 15.4494C23.8808 15.5215 23.9069 15.5766 23.9591 15.6147C24.0121 15.652 24.0792 15.6706 24.1604 15.6706ZM27.2581 14.6353L26.7734 14.6651C26.7651 14.6237 26.7473 14.5864 26.7199 14.5533C26.6926 14.5193 26.6566 14.4924 26.6118 14.4725C26.5679 14.4518 26.5153 14.4414 26.454 14.4414C26.3719 14.4414 26.3027 14.4588 26.2464 14.4936C26.1901 14.5276 26.1619 14.5732 26.1619 14.6303C26.1619 14.6759 26.1801 14.7144 26.2166 14.7459C26.253 14.7774 26.3156 14.8027 26.4042 14.8217L26.7498 14.8913C26.9354 14.9295 27.0738 14.9908 27.1649 15.0753C27.256 15.1598 27.3016 15.2708 27.3016 15.4084C27.3016 15.5335 27.2647 15.6433 27.191 15.7377C27.1181 15.8322 27.0178 15.906 26.8902 15.959C26.7634 16.0112 26.6172 16.0373 26.4515 16.0373C26.1988 16.0373 25.9974 15.9847 25.8474 15.8794C25.6983 15.7734 25.6109 15.6292 25.5852 15.4469L26.1059 15.4196C26.1217 15.4966 26.1598 15.5555 26.2203 15.5961C26.2808 15.6358 26.3583 15.6557 26.4527 15.6557C26.5455 15.6557 26.6201 15.6379 26.6764 15.6023C26.7336 15.5658 26.7626 15.519 26.7634 15.4618C26.7626 15.4138 26.7423 15.3744 26.7025 15.3438C26.6628 15.3123 26.6014 15.2882 26.5186 15.2717L26.188 15.2058C26.0015 15.1685 25.8628 15.1039 25.7716 15.0119C25.6813 14.9199 25.6361 14.8027 25.6361 14.6602C25.6361 14.5375 25.6693 14.4319 25.7356 14.3432C25.8027 14.2546 25.8967 14.1862 26.0177 14.1381C26.1395 14.0901 26.282 14.0661 26.4453 14.0661C26.6864 14.0661 26.8761 14.117 27.0145 14.2189C27.1537 14.3208 27.2349 14.4596 27.2581 14.6353ZM28.2898 15.4506L28.291 14.8155H28.3681L28.9796 14.0909H29.5874L28.7658 15.0504H28.6403L28.2898 15.4506ZM27.81 16V13.4545H28.3395V16H27.81ZM29.0032 16L28.4414 15.1685L28.7944 14.7944L29.6234 16H29.0032ZM31.0072 16V14.0909H31.5118V14.4277H31.5342C31.574 14.3159 31.6402 14.2276 31.733 14.163C31.8258 14.0984 31.9369 14.0661 32.0661 14.0661C32.1971 14.0661 32.3085 14.0988 32.4005 14.1642C32.4925 14.2289 32.5538 14.3167 32.5844 14.4277H32.6043C32.6433 14.3184 32.7137 14.2309 32.8156 14.1655C32.9184 14.0992 33.0397 14.0661 33.1798 14.0661C33.3579 14.0661 33.5025 14.1228 33.6135 14.2363C33.7254 14.349 33.7813 14.5089 33.7813 14.7161V16H33.2531V14.8205C33.2531 14.7144 33.2249 14.6349 33.1686 14.5819C33.1122 14.5288 33.0418 14.5023 32.9573 14.5023C32.8612 14.5023 32.7862 14.533 32.7323 14.5943C32.6785 14.6548 32.6515 14.7347 32.6515 14.8342V16H32.1382V14.8093C32.1382 14.7157 32.1113 14.6411 32.0574 14.5856C32.0044 14.5301 31.9344 14.5023 31.8474 14.5023C31.7886 14.5023 31.7355 14.5172 31.6883 14.5471C31.6419 14.5761 31.605 14.6171 31.5777 14.6701C31.5503 14.7223 31.5367 14.7836 31.5367 14.854V16H31.0072ZM34.919 16.036C34.7972 16.036 34.6886 16.0149 34.5933 15.9727C34.498 15.9296 34.4226 15.8662 34.3671 15.7825C34.3124 15.698 34.2851 15.5927 34.2851 15.4668C34.2851 15.3607 34.3046 15.2717 34.3435 15.1996C34.3824 15.1275 34.4355 15.0695 34.5026 15.0256C34.5697 14.9817 34.6459 14.9485 34.7313 14.9261C34.8175 14.9038 34.9078 14.888 35.0022 14.8789C35.1133 14.8673 35.2028 14.8565 35.2707 14.8466C35.3386 14.8358 35.388 14.8201 35.4186 14.7994C35.4493 14.7786 35.4646 14.748 35.4646 14.7074V14.6999C35.4646 14.6212 35.4397 14.5603 35.39 14.5172C35.3411 14.4741 35.2715 14.4526 35.1812 14.4526C35.0859 14.4526 35.0101 14.4737 34.9538 14.516C34.8974 14.5574 34.8601 14.6096 34.8419 14.6726L34.3522 14.6328C34.3771 14.5168 34.4259 14.4165 34.4989 14.332C34.5718 14.2467 34.6658 14.1812 34.781 14.1357C34.897 14.0893 35.0312 14.0661 35.1837 14.0661C35.2898 14.0661 35.3913 14.0785 35.4882 14.1033C35.586 14.1282 35.6726 14.1667 35.748 14.2189C35.8242 14.2711 35.8843 14.3382 35.9282 14.4203C35.9721 14.5015 35.9941 14.5988 35.9941 14.7124V16H35.4919V15.7353H35.477C35.4464 15.7949 35.4054 15.8475 35.354 15.8931C35.3026 15.9379 35.2409 15.9731 35.1688 15.9988C35.0967 16.0236 35.0134 16.036 34.919 16.036ZM35.0706 15.6706C35.1485 15.6706 35.2173 15.6553 35.2769 15.6246C35.3366 15.5932 35.3834 15.5509 35.4174 15.4979C35.4513 15.4448 35.4683 15.3848 35.4683 15.3176V15.1151C35.4518 15.1258 35.429 15.1358 35.4 15.1449C35.3718 15.1532 35.3399 15.161 35.3043 15.1685C35.2686 15.1751 35.233 15.1813 35.1974 15.1871C35.1617 15.1921 35.1294 15.1967 35.1004 15.2008C35.0383 15.2099 34.984 15.2244 34.9376 15.2443C34.8912 15.2642 34.8552 15.2911 34.8295 15.3251C34.8038 15.3583 34.7909 15.3997 34.7909 15.4494C34.7909 15.5215 34.817 15.5766 34.8692 15.6147C34.9223 15.652 34.9894 15.6706 35.0706 15.6706ZM37.1093 14.8963V16H36.5798V14.0909H37.0845V14.4277H37.1068C37.1491 14.3167 37.2199 14.2289 37.3194 14.1642C37.4188 14.0988 37.5394 14.0661 37.6811 14.0661C37.8136 14.0661 37.9292 14.0951 38.0278 14.1531C38.1264 14.2111 38.2031 14.2939 38.2578 14.4016C38.3124 14.5085 38.3398 14.6361 38.3398 14.7844V16H37.8103V14.8789C37.8111 14.7621 37.7813 14.6709 37.7208 14.6055C37.6603 14.5392 37.5771 14.506 37.471 14.506C37.3997 14.506 37.3368 14.5214 37.2821 14.552C37.2282 14.5827 37.186 14.6274 37.1553 14.6863C37.1255 14.7443 37.1102 14.8143 37.1093 14.8963ZM39.4765 16.036C39.3547 16.036 39.2461 16.0149 39.1508 15.9727C39.0556 15.9296 38.9802 15.8662 38.9246 15.7825C38.8699 15.698 38.8426 15.5927 38.8426 15.4668C38.8426 15.3607 38.8621 15.2717 38.901 15.1996C38.94 15.1275 38.993 15.0695 39.0601 15.0256C39.1272 14.9817 39.2035 14.9485 39.2888 14.9261C39.375 14.9038 39.4653 14.888 39.5598 14.8789C39.6708 14.8673 39.7603 14.8565 39.8282 14.8466C39.8962 14.8358 39.9455 14.8201 39.9761 14.7994C40.0068 14.7786 40.0221 14.748 40.0221 14.7074V14.6999C40.0221 14.6212 39.9973 14.5603 39.9475 14.5172C39.8987 14.4741 39.8291 14.4526 39.7387 14.4526C39.6434 14.4526 39.5676 14.4737 39.5113 14.516C39.4549 14.5574 39.4177 14.6096 39.3994 14.6726L38.9097 14.6328C38.9346 14.5168 38.9835 14.4165 39.0564 14.332C39.1293 14.2467 39.2233 14.1812 39.3385 14.1357C39.4545 14.0893 39.5888 14.0661 39.7412 14.0661C39.8473 14.0661 39.9488 14.0785 40.0457 14.1033C40.1435 14.1282 40.2301 14.1667 40.3055 14.2189C40.3817 14.2711 40.4418 14.3382 40.4857 14.4203C40.5296 14.5015 40.5516 14.5988 40.5516 14.7124V16H40.0495V15.7353H40.0345C40.0039 15.7949 39.9629 15.8475 39.9115 15.8931C39.8601 15.9379 39.7984 15.9731 39.7263 15.9988C39.6542 16.0236 39.5709 16.036 39.4765 16.036ZM39.6281 15.6706C39.706 15.6706 39.7748 15.6553 39.8344 15.6246C39.8941 15.5932 39.9409 15.5509 39.9749 15.4979C40.0089 15.4448 40.0258 15.3848 40.0258 15.3176V15.1151C40.0093 15.1258 39.9865 15.1358 39.9575 15.1449C39.9293 15.1532 39.8974 15.161 39.8618 15.1685C39.8262 15.1751 39.7905 15.1813 39.7549 15.1871C39.7193 15.1921 39.6869 15.1967 39.6579 15.2008C39.5958 15.2099 39.5415 15.2244 39.4951 15.2443C39.4487 15.2642 39.4127 15.2911 39.387 15.3251C39.3613 15.3583 39.3485 15.3997 39.3485 15.4494C39.3485 15.5215 39.3746 15.5766 39.4268 15.6147C39.4798 15.652 39.5469 15.6706 39.6281 15.6706ZM41.9975 16.7557C41.8259 16.7557 41.6789 16.7321 41.5562 16.6848C41.4344 16.6384 41.3375 16.575 41.2654 16.4947C41.1933 16.4143 41.1465 16.324 41.1249 16.2237L41.6146 16.1578C41.6296 16.196 41.6532 16.2316 41.6855 16.2647C41.7178 16.2979 41.7605 16.3244 41.8135 16.3443C41.8674 16.365 41.9328 16.3754 42.0099 16.3754C42.1251 16.3754 42.2199 16.3472 42.2945 16.2908C42.3699 16.2353 42.4076 16.1421 42.4076 16.0112V15.6619H42.3852C42.362 15.715 42.3272 15.7651 42.2808 15.8123C42.2344 15.8596 42.1748 15.8981 42.1019 15.9279C42.0289 15.9577 41.9419 15.9727 41.8408 15.9727C41.6975 15.9727 41.567 15.9395 41.4493 15.8732C41.3325 15.8061 41.2393 15.7038 41.1697 15.5662C41.1009 15.4279 41.0665 15.253 41.0665 15.0417C41.0665 14.8255 41.1017 14.6448 41.1722 14.4998C41.2426 14.3548 41.3362 14.2463 41.4531 14.1742C41.5707 14.1021 41.6996 14.0661 41.8396 14.0661C41.9465 14.0661 42.036 14.0843 42.1081 14.1207C42.1802 14.1564 42.2382 14.2011 42.2821 14.255C42.3268 14.308 42.3612 14.3602 42.3852 14.4116H42.4051V14.0909H42.9309V16.0186C42.9309 16.181 42.8911 16.3169 42.8116 16.4263C42.732 16.5357 42.6218 16.6177 42.4809 16.6724C42.3409 16.7279 42.1797 16.7557 41.9975 16.7557ZM42.0086 15.5749C42.094 15.5749 42.1661 15.5538 42.2249 15.5115C42.2846 15.4685 42.3301 15.4071 42.3616 15.3276C42.3939 15.2472 42.4101 15.1511 42.4101 15.0392C42.4101 14.9274 42.3944 14.8304 42.3629 14.7484C42.3314 14.6655 42.2858 14.6013 42.2261 14.5558C42.1665 14.5102 42.094 14.4874 42.0086 14.4874C41.9216 14.4874 41.8483 14.511 41.7886 14.5582C41.729 14.6046 41.6838 14.6693 41.6532 14.7521C41.6225 14.835 41.6072 14.9307 41.6072 15.0392C41.6072 15.1494 41.6225 15.2447 41.6532 15.3251C41.6847 15.4047 41.7298 15.4664 41.7886 15.5103C41.8483 15.5534 41.9216 15.5749 42.0086 15.5749ZM44.3972 16.0373C44.2009 16.0373 44.0318 15.9975 43.8901 15.918C43.7493 15.8376 43.6407 15.7241 43.5645 15.5774C43.4883 15.4299 43.4502 15.2555 43.4502 15.0542C43.4502 14.8578 43.4883 14.6854 43.5645 14.5371C43.6407 14.3888 43.748 14.2732 43.8864 14.1903C44.0256 14.1075 44.1888 14.0661 44.3761 14.0661C44.5021 14.0661 44.6193 14.0864 44.7278 14.127C44.8372 14.1667 44.9325 14.2268 45.0137 14.3072C45.0957 14.3875 45.1595 14.4886 45.2051 14.6104C45.2507 14.7314 45.2735 14.8731 45.2735 15.0355V15.1809H43.6614V14.8528H44.7751C44.7751 14.7766 44.7585 14.709 44.7254 14.6502C44.6922 14.5914 44.6462 14.5454 44.5874 14.5123C44.5294 14.4783 44.4619 14.4613 44.3848 14.4613C44.3044 14.4613 44.2332 14.4799 44.171 14.5172C44.1097 14.5537 44.0617 14.603 44.0269 14.6651C43.9921 14.7264 43.9742 14.7948 43.9734 14.8702V15.1822C43.9734 15.2766 43.9908 15.3583 44.0256 15.427C44.0612 15.4958 44.1114 15.5488 44.176 15.5861C44.2406 15.6234 44.3173 15.642 44.4059 15.642C44.4648 15.642 44.5186 15.6338 44.5675 15.6172C44.6164 15.6006 44.6582 15.5758 44.693 15.5426C44.7278 15.5095 44.7544 15.4689 44.7726 15.4208L45.2623 15.4531C45.2374 15.5708 45.1865 15.6735 45.1094 15.7614C45.0332 15.8484 44.9346 15.9163 44.8136 15.9652C44.6935 16.0133 44.5547 16.0373 44.3972 16.0373ZM45.794 16V14.0909H46.2986V14.4277H46.321C46.3608 14.3159 46.4271 14.2276 46.5199 14.163C46.6127 14.0984 46.7237 14.0661 46.853 14.0661C46.9839 14.0661 47.0953 14.0988 47.1873 14.1642C47.2793 14.2289 47.3406 14.3167 47.3712 14.4277H47.3911C47.4301 14.3184 47.5005 14.2309 47.6024 14.1655C47.7052 14.0992 47.8266 14.0661 47.9666 14.0661C48.1447 14.0661 48.2893 14.1228 48.4004 14.2363C48.5122 14.349 48.5682 14.5089 48.5682 14.7161V16H48.0399V14.8205C48.0399 14.7144 48.0118 14.6349 47.9554 14.5819C47.8991 14.5288 47.8286 14.5023 47.7441 14.5023C47.648 14.5023 47.573 14.533 47.5191 14.5943C47.4653 14.6548 47.4384 14.7347 47.4384 14.8342V16H46.925V14.8093C46.925 14.7157 46.8981 14.6411 46.8443 14.5856C46.7912 14.5301 46.7212 14.5023 46.6342 14.5023C46.5754 14.5023 46.5223 14.5172 46.4751 14.5471C46.4287 14.5761 46.3918 14.6171 46.3645 14.6701C46.3372 14.7223 46.3235 14.7836 46.3235 14.854V16H45.794ZM50.0314 16.0373C49.835 16.0373 49.666 15.9975 49.5243 15.918C49.3835 15.8376 49.2749 15.7241 49.1987 15.5774C49.1224 15.4299 49.0843 15.2555 49.0843 15.0542C49.0843 14.8578 49.1224 14.6854 49.1987 14.5371C49.2749 14.3888 49.3822 14.2732 49.5206 14.1903C49.6598 14.1075 49.823 14.0661 50.0103 14.0661C50.1362 14.0661 50.2535 14.0864 50.362 14.127C50.4714 14.1667 50.5667 14.2268 50.6479 14.3072C50.7299 14.3875 50.7937 14.4886 50.8393 14.6104C50.8849 14.7314 50.9077 14.8731 50.9077 15.0355V15.1809H49.2956V14.8528H50.4093C50.4093 14.7766 50.3927 14.709 50.3595 14.6502C50.3264 14.5914 50.2804 14.5454 50.2216 14.5123C50.1636 14.4783 50.096 14.4613 50.019 14.4613C49.9386 14.4613 49.8674 14.4799 49.8052 14.5172C49.7439 14.5537 49.6958 14.603 49.661 14.6651C49.6262 14.7264 49.6084 14.7948 49.6076 14.8702V15.1822C49.6076 15.2766 49.625 15.3583 49.6598 15.427C49.6954 15.4958 49.7456 15.5488 49.8102 15.5861C49.8748 15.6234 49.9515 15.642 50.0401 15.642C50.0989 15.642 50.1528 15.6338 50.2017 15.6172C50.2506 15.6006 50.2924 15.5758 50.3272 15.5426C50.362 15.5095 50.3885 15.4689 50.4068 15.4208L50.8965 15.4531C50.8716 15.5708 50.8207 15.6735 50.7436 15.7614C50.6674 15.8484 50.5688 15.9163 50.4478 15.9652C50.3276 16.0133 50.1889 16.0373 50.0314 16.0373ZM51.9577 14.8963V16H51.4282V14.0909H51.9328V14.4277H51.9552C51.9974 14.3167 52.0683 14.2289 52.1677 14.1642C52.2671 14.0988 52.3877 14.0661 52.5294 14.0661C52.662 14.0661 52.7776 14.0951 52.8762 14.1531C52.9748 14.2111 53.0514 14.2939 53.1061 14.4016C53.1608 14.5085 53.1881 14.6361 53.1881 14.7844V16H52.6587V14.8789C52.6595 14.7621 52.6297 14.6709 52.5692 14.6055C52.5087 14.5392 52.4254 14.506 52.3193 14.506C52.2481 14.506 52.1851 14.5214 52.1304 14.552C52.0766 14.5827 52.0343 14.6274 52.0036 14.6863C51.9738 14.7443 51.9585 14.8143 51.9577 14.8963ZM54.7959 14.0909V14.4886H53.6462V14.0909H54.7959ZM53.9072 13.6335H54.4367V15.4134C54.4367 15.4622 54.4441 15.5004 54.4591 15.5277C54.474 15.5542 54.4947 15.5729 54.5212 15.5836C54.5485 15.5944 54.58 15.5998 54.6157 15.5998C54.6405 15.5998 54.6654 15.5977 54.6902 15.5936C54.7151 15.5886 54.7342 15.5849 54.7474 15.5824L54.8307 15.9764C54.8042 15.9847 54.7669 15.9942 54.7188 16.005C54.6708 16.0166 54.6123 16.0236 54.5436 16.0261C54.416 16.0311 54.3041 16.0141 54.208 15.9751C54.1127 15.9362 54.0385 15.8757 53.9855 15.7937C53.9325 15.7116 53.9064 15.6081 53.9072 15.483V13.6335Z" fill="#21A8F4"/>
<defs>
<filter id="filter0_b_0_1" x="15.4773" y="-1.84659" width="60.8952" height="16.9702" filterUnits="userSpaceOnUse" color-interpolation-filters="sRGB">
<feFlood flood-opacity="0" result="BackgroundImageFix"/>
<feGaussianBlur in="BackgroundImageFix" stdDeviation="2"/>
<feComposite in2="SourceAlpha" operator="in" result="effect1_backgroundBlur_0_1"/>
<feBlend mode="normal" in="SourceGraphic" in2="effect1_backgroundBlur_0_1" result="shape"/>
</filter>
</defs>
</svg>
