<svg xmlns="http://www.w3.org/2000/svg" viewBox="0 0 128 128"><circle cx="64" cy="64" r="55" fill="#f6ca47"/><path fill="#464c54" d="M77 104a3 3 0 0 1-2.66-1.61C72.28 98.45 68.32 96 64 96s-8.28 2.45-10.34 6.39a2.999 2.999 0 0 1-4.05 1.27 2.999 2.999 0 0 1-1.27-4.05C51.44 93.68 57.44 90 64 90s12.56 3.68 15.66 9.61A2.999 2.999 0 0 1 77 104zM24.96 55.46c-.45 0-.9-.1-1.32-.31a3.002 3.002 0 0 1-1.37-4.02c3.79-7.7 10.66-13.54 18.87-16.02 1.59-.48 3.26.42 3.74 2 .48 1.59-.42 3.26-2 3.74a25.152 25.152 0 0 0-15.22 12.93 3.009 3.009 0 0 1-2.7 1.68z"/><ellipse cx="45" cy="61" fill="#464c54" rx="8" ry="10"/><ellipse cx="83" cy="61" fill="#464c54" rx="8" ry="10"/><path fill="#00a6e4" d="M101.41 94.25 89 76 76.59 94.25a15 15 0 0 0 1.8 19.04c5.86 5.86 15.36 5.86 21.21 0 5.1-5.09 5.85-13.08 1.81-19.04z"/><path fill="#464c54" d="M103.04 55.46c-1.11 0-2.17-.62-2.69-1.68a25.152 25.152 0 0 0-15.22-12.93 3.005 3.005 0 0 1-2-3.74 2.993 2.993 0 0 1 3.74-2 31.206 31.206 0 0 1 18.87 16.02 3.005 3.005 0 0 1-2.7 4.33z"/></svg>