<svg xmlns="http://www.w3.org/2000/svg" enable-background="new 0 0 128 128" viewBox="0 0 128 128" id="sad-smiley"><circle cx="64" cy="64" r="55" fill="#f6ca47"></circle><path fill="#464c54" d="M77 104c-1.08 0-2.13-.59-2.66-1.61C72.28 98.45 68.32 96 64 96s-8.28 2.45-10.34 6.39c-.77 1.47-2.58 2.04-4.05 1.27-1.47-.77-2.04-2.58-1.27-4.05C51.44 93.68 57.44 90 64 90s12.56 3.68 15.66 9.61c.77 1.47.2 3.28-1.27 4.05C77.95 103.89 77.47 104 77 104zM24.96 55.46c-.45 0-.9-.1-1.32-.31-1.49-.73-2.1-2.53-1.37-4.02 3.79-7.7 10.66-13.54 18.87-16.02 1.59-.48 3.26.42 3.74 2 .48 1.59-.42 3.26-2 3.74-6.62 2.01-12.17 6.72-15.22 12.93C27.14 54.84 26.07 55.46 24.96 55.46z"></path><ellipse cx="45" cy="61" fill="#464c54" rx="8" ry="10"></ellipse><ellipse cx="83" cy="61" fill="#464c54" rx="8" ry="10"></ellipse><path fill="#00a6e4" d="M101.41,94.25L89,76L76.59,94.25c-4.05,5.96-3.29,13.95,1.8,19.04l0,0c5.86,5.86,15.36,5.86,21.21,0l0,0
			C104.7,108.2,105.45,100.21,101.41,94.25z"></path><path fill="#464c54" d="M103.04,55.46c-1.11,0-2.17-0.62-2.69-1.68c-3.05-6.21-8.6-10.92-15.22-12.93c-1.58-0.48-2.48-2.16-2-3.74
		c0.48-1.59,2.15-2.48,3.74-2c8.21,2.49,15.08,8.33,18.87,16.02c0.73,1.49,0.12,3.28-1.37,4.02
		C103.93,55.36,103.48,55.46,103.04,55.46z"></path></svg>