<svg xmlns="http://www.w3.org/2000/svg" width="17" height="17" fill="currentColor" viewBox="0 0 14 14"><path d="M10.26 9.028H9.61l-.23-.221a5.335 5.335 0 0 0 1.215-4.383C10.21 2.143 8.306.321 6.008.042A5.339 5.339 0 0 0 .042 6.008c.279 2.298 2.1 4.202 4.382 4.588a5.335 5.335 0 0 0 4.383-1.215l.221.23v.649l3.489 3.488a.867.867 0 0 0 1.222 0 .867.867 0 0 0 0-1.223l-3.48-3.497Zm-4.925 0a3.688 3.688 0 0 1-3.693-3.693 3.688 3.688 0 0 1 3.693-3.693 3.688 3.688 0 0 1 3.693 3.693 3.688 3.688 0 0 1-3.693 3.693Z"/></svg>